%TF.GenerationSoftware,KiCad,Pcbnew,7.0.10*%
%TF.CreationDate,2024-01-23T14:11:02+00:00*%
%TF.ProjectId,view_base,76696577-5f62-4617-9365-2e6b69636164,rev?*%
%TF.SameCoordinates,Original*%
%TF.FileFunction,Profile,NP*%
%FSLAX46Y46*%
G04 Gerber Fmt 4.6, Leading zero omitted, Abs format (unit mm)*
G04 Created by KiCad (PCBNEW 7.0.10) date 2024-01-23 14:11:02*
%MOMM*%
%LPD*%
G01*
G04 APERTURE LIST*
%TA.AperFunction,Profile*%
%ADD10C,0.200000*%
%TD*%
%TA.AperFunction,Profile*%
%ADD11C,0.050000*%
%TD*%
G04 APERTURE END LIST*
D10*
X84793094Y-102499999D02*
X76709801Y-102499999D01*
X96500000Y-116007810D02*
X96500000Y-123290199D01*
X97500000Y-123290199D02*
X97500001Y-115206906D01*
X103878784Y-115522715D02*
G75*
G03*
X103499999Y-116007810I121216J-485085D01*
G01*
X96500000Y-123290199D02*
G75*
G03*
X97500000Y-123290199I500000J0D01*
G01*
X102903225Y-114716360D02*
G75*
G03*
X114716360Y-102903226I-2903225J14716360D01*
G01*
X115206906Y-102500007D02*
G75*
G03*
X114716362Y-102903226I-6J-499993D01*
G01*
X103878787Y-115522725D02*
G75*
G03*
X115522724Y-103878788I-3878787J15522725D01*
G01*
X109749999Y-103499999D02*
G75*
G03*
X110499999Y-102750000I1J749999D01*
G01*
X116007810Y-103500011D02*
G75*
G03*
X115522726Y-103878787I-10J-499989D01*
G01*
X110499999Y-102750000D02*
X110499999Y-97250001D01*
X123290199Y-97499999D02*
G75*
G03*
X123290199Y-96500001I1J499999D01*
G01*
X102499999Y-123290199D02*
G75*
G03*
X103499999Y-123290199I500000J0D01*
G01*
X103499999Y-123290199D02*
X103499999Y-116007810D01*
X110499999Y-97250001D02*
G75*
G03*
X109749999Y-96500001I-749999J1D01*
G01*
X109749999Y-96500001D02*
X107749999Y-96500001D01*
X107749999Y-96499999D02*
G75*
G03*
X106999999Y-97250001I1J-750001D01*
G01*
X106999999Y-97250001D02*
X106999999Y-102750000D01*
X116007810Y-103500000D02*
X123290199Y-103500000D01*
X107000000Y-102750000D02*
G75*
G03*
X107749999Y-103500000I750000J0D01*
G01*
X114716360Y-97096775D02*
G75*
G03*
X102903226Y-85283640I-14716360J-2903225D01*
G01*
X115206906Y-97500001D02*
X123290199Y-97500001D01*
X84477275Y-103878787D02*
G75*
G03*
X96121212Y-115522724I15522725J3878787D01*
G01*
X114716353Y-97096776D02*
G75*
G03*
X115206906Y-97500002I490547J96776D01*
G01*
X102903224Y-114716353D02*
G75*
G03*
X102499998Y-115206906I96776J-490547D01*
G01*
X136600000Y-140600000D02*
G75*
G03*
X140600000Y-136599999I0J4000000D01*
G01*
X123290199Y-102500000D02*
X115206906Y-102500000D01*
X76709801Y-102500001D02*
G75*
G03*
X76709801Y-103499999I-1J-499999D01*
G01*
X85283640Y-102903225D02*
G75*
G03*
X97096774Y-114716360I14716360J2903225D01*
G01*
X84477285Y-103878784D02*
G75*
G03*
X83992190Y-103499999I-485085J-121216D01*
G01*
X97499994Y-115206906D02*
G75*
G03*
X97096774Y-114716361I-499994J6D01*
G01*
X76709801Y-103499999D02*
X83992190Y-103499999D01*
X102499999Y-115206906D02*
X102499999Y-123290199D01*
X85283647Y-102903224D02*
G75*
G03*
X84793094Y-102499998I-490547J-96776D01*
G01*
X107749999Y-103500000D02*
X109749999Y-103500000D01*
X102500007Y-84793094D02*
G75*
G03*
X102903226Y-85283638I499993J-6D01*
G01*
X123290199Y-96500001D02*
X116007810Y-96500001D01*
X123290199Y-103500000D02*
G75*
G03*
X123290199Y-102500000I1J500000D01*
G01*
X96499989Y-116007810D02*
G75*
G03*
X96121213Y-115522726I-499989J10D01*
G01*
X63400001Y-59400001D02*
G75*
G03*
X59400001Y-63400000I-1J-3999999D01*
G01*
X140600000Y-63400000D02*
G75*
G03*
X136600000Y-59400000I-4000000J0D01*
G01*
X59400001Y-136599999D02*
X59400001Y-63400000D01*
X136600000Y-140599999D02*
X104620000Y-140600000D01*
X95380000Y-140600000D02*
X63400001Y-140599999D01*
X59400001Y-136599999D02*
G75*
G03*
X63400001Y-140599999I3999999J-1D01*
G01*
X140600000Y-63400000D02*
X140600000Y-136599999D01*
X63400001Y-59400000D02*
X136600000Y-59400000D01*
X97096776Y-85283647D02*
G75*
G03*
X97500002Y-84793094I-96776J490547D01*
G01*
X115522725Y-96121213D02*
G75*
G03*
X103878788Y-84477276I-15522725J-3878787D01*
G01*
X103500011Y-83992190D02*
G75*
G03*
X103878787Y-84477274I499989J-10D01*
G01*
X103500000Y-76709801D02*
G75*
G03*
X102500000Y-76709801I-500000J0D01*
G01*
X83992190Y-96500000D02*
X76709801Y-96500000D01*
X102500000Y-76709801D02*
X102500000Y-84793094D01*
X115522715Y-96121216D02*
G75*
G03*
X116007810Y-96500001I485085J121216D01*
G01*
X97096775Y-85283640D02*
G75*
G03*
X85283640Y-97096774I2903225J-14716360D01*
G01*
X96500001Y-76709801D02*
X96500001Y-83992190D01*
X103500000Y-83992190D02*
X103500000Y-76709801D01*
X76709801Y-97500000D02*
X84793094Y-97500000D01*
X96121216Y-84477285D02*
G75*
G03*
X96500001Y-83992190I-121216J485085D01*
G01*
X96121213Y-84477275D02*
G75*
G03*
X84477276Y-96121212I3878787J-15522725D01*
G01*
X76709801Y-96500000D02*
G75*
G03*
X76709801Y-97500000I-1J-500000D01*
G01*
X84793094Y-97499992D02*
G75*
G03*
X85283637Y-97096775I6J499992D01*
G01*
X97500001Y-84793094D02*
X97500001Y-76709801D01*
X97500001Y-76709801D02*
G75*
G03*
X96500001Y-76709801I-500000J0D01*
G01*
X83992190Y-96499989D02*
G75*
G03*
X84477274Y-96121213I10J499989D01*
G01*
%TO.C,J1*%
X95380000Y-140600000D02*
X95380000Y-134900000D01*
X95880000Y-134400000D02*
X104120000Y-134400000D01*
X104620000Y-140600000D02*
X104620000Y-134900000D01*
X95880000Y-134400000D02*
G75*
G03*
X95380000Y-134900000I1J-500001D01*
G01*
X104620000Y-134900000D02*
G75*
G03*
X104120000Y-134400000I-500000J0D01*
G01*
D11*
%TO.C,REF\u002A\u002A*%
X97603553Y-106639087D02*
X99724874Y-104517767D01*
X96896447Y-106639087D02*
X93360913Y-103103553D01*
X99724874Y-103810660D02*
X96189340Y-100275126D01*
X93360913Y-102396447D02*
X95482233Y-100275126D01*
X96896448Y-106639086D02*
G75*
G03*
X97603552Y-106639086I353552J353554D01*
G01*
X99724874Y-104517767D02*
G75*
G03*
X99724874Y-103810660I-353555J353553D01*
G01*
X93360913Y-102396447D02*
G75*
G03*
X93360913Y-103103553I353553J-353553D01*
G01*
X96189339Y-100275127D02*
G75*
G03*
X95482233Y-100275126I-353553J-353553D01*
G01*
%TD*%
M02*
