%TF.GenerationSoftware,KiCad,Pcbnew,7.0.10*%
%TF.CreationDate,2024-01-23T14:11:02+00:00*%
%TF.ProjectId,view_base,76696577-5f62-4617-9365-2e6b69636164,rev?*%
%TF.SameCoordinates,Original*%
%TF.FileFunction,Soldermask,Bot*%
%TF.FilePolarity,Negative*%
%FSLAX46Y46*%
G04 Gerber Fmt 4.6, Leading zero omitted, Abs format (unit mm)*
G04 Created by KiCad (PCBNEW 7.0.10) date 2024-01-23 14:11:02*
%MOMM*%
%LPD*%
G01*
G04 APERTURE LIST*
G04 Aperture macros list*
%AMRoundRect*
0 Rectangle with rounded corners*
0 $1 Rounding radius*
0 $2 $3 $4 $5 $6 $7 $8 $9 X,Y pos of 4 corners*
0 Add a 4 corners polygon primitive as box body*
4,1,4,$2,$3,$4,$5,$6,$7,$8,$9,$2,$3,0*
0 Add four circle primitives for the rounded corners*
1,1,$1+$1,$2,$3*
1,1,$1+$1,$4,$5*
1,1,$1+$1,$6,$7*
1,1,$1+$1,$8,$9*
0 Add four rect primitives between the rounded corners*
20,1,$1+$1,$2,$3,$4,$5,0*
20,1,$1+$1,$4,$5,$6,$7,0*
20,1,$1+$1,$6,$7,$8,$9,0*
20,1,$1+$1,$8,$9,$2,$3,0*%
%AMHorizOval*
0 Thick line with rounded ends*
0 $1 width*
0 $2 $3 position (X,Y) of the first rounded end (center of the circle)*
0 $4 $5 position (X,Y) of the second rounded end (center of the circle)*
0 Add line between two ends*
20,1,$1,$2,$3,$4,$5,0*
0 Add two circle primitives to create the rounded ends*
1,1,$1,$2,$3*
1,1,$1,$4,$5*%
%AMRotRect*
0 Rectangle, with rotation*
0 The origin of the aperture is its center*
0 $1 length*
0 $2 width*
0 $3 Rotation angle, in degrees counterclockwise*
0 Add horizontal line*
21,1,$1,$2,0,0,$3*%
G04 Aperture macros list end*
%ADD10C,2.400000*%
%ADD11C,3.500000*%
%ADD12O,1.000000X1.800000*%
%ADD13O,1.000000X2.200000*%
%ADD14O,2.500000X1.250000*%
%ADD15HorizOval,1.250000X-0.441942X0.441942X0.441942X-0.441942X0*%
%ADD16R,0.700000X1.600000*%
%ADD17RotRect,2.100000X2.999999X45.000000*%
%ADD18RotRect,0.800000X1.600000X45.000000*%
%ADD19C,2.000000*%
%ADD20RoundRect,0.250000X0.362500X1.425000X-0.362500X1.425000X-0.362500X-1.425000X0.362500X-1.425000X0*%
%ADD21R,0.650000X1.050000*%
%ADD22RoundRect,0.150000X-0.150000X-0.625000X0.150000X-0.625000X0.150000X0.625000X-0.150000X0.625000X0*%
%ADD23RoundRect,0.250000X-0.350000X-0.650000X0.350000X-0.650000X0.350000X0.650000X-0.350000X0.650000X0*%
%ADD24RoundRect,0.250000X-0.362500X-1.425000X0.362500X-1.425000X0.362500X1.425000X-0.362500X1.425000X0*%
%ADD25RotRect,0.300000X1.800000X315.000000*%
%ADD26RotRect,1.200000X1.075000X315.000000*%
G04 APERTURE END LIST*
D10*
%TO.C,H4*%
X105125427Y-91122500D03*
%TD*%
%TO.C,H1*%
X105125427Y-108877499D03*
%TD*%
%TO.C,H2*%
X89749146Y-100000000D03*
%TD*%
D11*
%TO.C,H3*%
X70200000Y-100000000D03*
%TD*%
%TO.C,H5*%
X100000000Y-70200000D03*
%TD*%
%TO.C,H6*%
X129800000Y-100000000D03*
%TD*%
D12*
%TO.C,J1*%
X94380000Y-135000000D03*
D13*
X94380000Y-139000000D03*
D12*
X105620000Y-135000000D03*
D13*
X105620000Y-139000000D03*
%TD*%
D11*
%TO.C,H7*%
X135000000Y-100000000D03*
%TD*%
%TO.C,H8*%
X65000000Y-100000000D03*
%TD*%
D14*
%TO.C,J4*%
X67500000Y-119000000D03*
X67500000Y-121000000D03*
X67500000Y-123000000D03*
X67500000Y-125000000D03*
X67500000Y-127000000D03*
X67500000Y-129000000D03*
X67500000Y-131000000D03*
X67500000Y-133000000D03*
%TD*%
D15*
%TO.C,J2*%
X82171573Y-80000000D03*
X83585787Y-78585786D03*
X85000000Y-77171573D03*
%TD*%
D16*
%TO.C,U3*%
X101905000Y-62350000D03*
X100635000Y-62350000D03*
X99365000Y-62350000D03*
X98095000Y-62350000D03*
%TD*%
D15*
%TO.C,J3*%
X77000000Y-85000000D03*
X78414214Y-83585786D03*
X79828427Y-82171573D03*
%TD*%
D17*
%TO.C,J6*%
X112962269Y-118336513D03*
X118336280Y-112962502D03*
D18*
X116816000Y-118584000D03*
X117699883Y-117700117D03*
X118583767Y-116816233D03*
%TD*%
D19*
%TO.C,TP1*%
X131250000Y-138250000D03*
%TD*%
%TO.C,TP3*%
X137250000Y-138250000D03*
%TD*%
%TO.C,TP2*%
X134250000Y-138250000D03*
%TD*%
%TO.C,TP8*%
X92000000Y-62000000D03*
%TD*%
%TO.C,TP9*%
X88000000Y-62000000D03*
%TD*%
%TO.C,TP14*%
X123000000Y-116500000D03*
%TD*%
%TO.C,TP15*%
X120500000Y-119000000D03*
%TD*%
%TO.C,TP16*%
X118000000Y-121500000D03*
%TD*%
%TO.C,TP5*%
X67500000Y-104500000D03*
%TD*%
%TO.C,TP7*%
X67500000Y-112500000D03*
%TD*%
%TO.C,TP4*%
X83750000Y-138250000D03*
%TD*%
%TO.C,TP6*%
X67500000Y-108500000D03*
%TD*%
%TO.C,TP13*%
X67750000Y-138250000D03*
%TD*%
%TO.C,TP12*%
X71750000Y-138250000D03*
%TD*%
D20*
%TO.C,R3*%
X126462500Y-100000000D03*
X120537500Y-100000000D03*
%TD*%
D21*
%TO.C,SW1*%
X80825000Y-134325000D03*
X80825000Y-130175000D03*
X78675000Y-134325000D03*
X78675000Y-130175000D03*
%TD*%
D19*
%TO.C,TP17*%
X116250000Y-138250000D03*
%TD*%
D22*
%TO.C,J7*%
X116100000Y-64875000D03*
X117100000Y-64875000D03*
X118100000Y-64875000D03*
X119100000Y-64875000D03*
D23*
X114800000Y-61000000D03*
X120400000Y-61000000D03*
%TD*%
D24*
%TO.C,R7*%
X73537500Y-100000000D03*
X79462500Y-100000000D03*
%TD*%
D19*
%TO.C,TP10*%
X79750000Y-138250000D03*
%TD*%
%TO.C,TP19*%
X110250000Y-138250000D03*
%TD*%
%TO.C,TP22*%
X125250000Y-138250000D03*
%TD*%
%TO.C,TP23*%
X122250000Y-138250000D03*
%TD*%
D22*
%TO.C,J9*%
X123900000Y-64875000D03*
X124900000Y-64875000D03*
X125900000Y-64875000D03*
X126900000Y-64875000D03*
D23*
X122600000Y-61000000D03*
X128200000Y-61000000D03*
%TD*%
D22*
%TO.C,J8*%
X131700000Y-64875000D03*
X132700000Y-64875000D03*
X133700000Y-64875000D03*
X134700000Y-64875000D03*
D23*
X130400000Y-61000000D03*
X136000000Y-61000000D03*
%TD*%
D20*
%TO.C,R4*%
X118562500Y-100000000D03*
X112637500Y-100000000D03*
%TD*%
D21*
%TO.C,SW2*%
X74675000Y-130175000D03*
X74675000Y-134325000D03*
X76825000Y-130175000D03*
X76825000Y-134325000D03*
%TD*%
D19*
%TO.C,TP11*%
X75750000Y-138250000D03*
%TD*%
D25*
%TO.C,J5*%
X81248750Y-116408960D03*
X81602303Y-116762514D03*
X81955857Y-117116067D03*
X82309410Y-117469620D03*
X82662964Y-117823174D03*
X83016517Y-118176727D03*
X83370070Y-118530281D03*
X83723624Y-118883834D03*
D26*
X81496237Y-114429061D03*
X85703523Y-118636347D03*
%TD*%
D19*
%TO.C,TP18*%
X113250000Y-138250000D03*
%TD*%
D24*
%TO.C,R6*%
X81437500Y-100000000D03*
X87362500Y-100000000D03*
%TD*%
D19*
%TO.C,TP20*%
X119250000Y-138250000D03*
%TD*%
%TO.C,TP21*%
X128250000Y-138250000D03*
%TD*%
M02*
