%TF.GenerationSoftware,KiCad,Pcbnew,7.0.10*%
%TF.CreationDate,2024-01-23T14:11:02+00:00*%
%TF.ProjectId,view_base,76696577-5f62-4617-9365-2e6b69636164,rev?*%
%TF.SameCoordinates,Original*%
%TF.FileFunction,Legend,Bot*%
%TF.FilePolarity,Positive*%
%FSLAX46Y46*%
G04 Gerber Fmt 4.6, Leading zero omitted, Abs format (unit mm)*
G04 Created by KiCad (PCBNEW 7.0.10) date 2024-01-23 14:11:02*
%MOMM*%
%LPD*%
G01*
G04 APERTURE LIST*
G04 Aperture macros list*
%AMRoundRect*
0 Rectangle with rounded corners*
0 $1 Rounding radius*
0 $2 $3 $4 $5 $6 $7 $8 $9 X,Y pos of 4 corners*
0 Add a 4 corners polygon primitive as box body*
4,1,4,$2,$3,$4,$5,$6,$7,$8,$9,$2,$3,0*
0 Add four circle primitives for the rounded corners*
1,1,$1+$1,$2,$3*
1,1,$1+$1,$4,$5*
1,1,$1+$1,$6,$7*
1,1,$1+$1,$8,$9*
0 Add four rect primitives between the rounded corners*
20,1,$1+$1,$2,$3,$4,$5,0*
20,1,$1+$1,$4,$5,$6,$7,0*
20,1,$1+$1,$6,$7,$8,$9,0*
20,1,$1+$1,$8,$9,$2,$3,0*%
%AMHorizOval*
0 Thick line with rounded ends*
0 $1 width*
0 $2 $3 position (X,Y) of the first rounded end (center of the circle)*
0 $4 $5 position (X,Y) of the second rounded end (center of the circle)*
0 Add line between two ends*
20,1,$1,$2,$3,$4,$5,0*
0 Add two circle primitives to create the rounded ends*
1,1,$1,$2,$3*
1,1,$1,$4,$5*%
%AMRotRect*
0 Rectangle, with rotation*
0 The origin of the aperture is its center*
0 $1 length*
0 $2 width*
0 $3 Rotation angle, in degrees counterclockwise*
0 Add horizontal line*
21,1,$1,$2,0,0,$3*%
G04 Aperture macros list end*
%ADD10C,0.120000*%
%ADD11C,1.000000*%
%ADD12C,0.150000*%
%ADD13C,0.300000*%
%ADD14C,2.400000*%
%ADD15C,3.500000*%
%ADD16O,1.000000X1.800000*%
%ADD17O,1.000000X2.200000*%
%ADD18O,2.500000X1.250000*%
%ADD19HorizOval,1.250000X-0.441942X0.441942X0.441942X-0.441942X0*%
%ADD20R,0.700000X1.600000*%
%ADD21RotRect,2.100000X2.999999X45.000000*%
%ADD22RotRect,0.800000X1.600000X45.000000*%
%ADD23C,2.000000*%
%ADD24RoundRect,0.250000X0.362500X1.425000X-0.362500X1.425000X-0.362500X-1.425000X0.362500X-1.425000X0*%
%ADD25R,0.650000X1.050000*%
%ADD26RoundRect,0.150000X-0.150000X-0.625000X0.150000X-0.625000X0.150000X0.625000X-0.150000X0.625000X0*%
%ADD27RoundRect,0.250000X-0.350000X-0.650000X0.350000X-0.650000X0.350000X0.650000X-0.350000X0.650000X0*%
%ADD28RoundRect,0.250000X-0.362500X-1.425000X0.362500X-1.425000X0.362500X1.425000X-0.362500X1.425000X0*%
%ADD29RotRect,0.300000X1.800000X315.000000*%
%ADD30RotRect,1.200000X1.075000X315.000000*%
G04 APERTURE END LIST*
D10*
X78000000Y-96300000D02*
X78000000Y-94500000D01*
X78000000Y-103700000D02*
X78000000Y-105500000D01*
X80000000Y-96300000D02*
X80000000Y-94500000D01*
X82000000Y-105500000D02*
X82000000Y-103700000D01*
X78000000Y-105500000D02*
X82000000Y-105500000D01*
X78000000Y-94500000D02*
X82000000Y-94500000D01*
X82000000Y-94500000D02*
X82000000Y-96300000D01*
X80000000Y-105500000D02*
X80000000Y-103700000D01*
D11*
X90000000Y-94000000D02*
X90000000Y-92500000D01*
X96000000Y-93500000D02*
X85000000Y-82500000D01*
D10*
X118000000Y-96300000D02*
X118000000Y-94500000D01*
X118000000Y-94500000D02*
X122000000Y-94500000D01*
D11*
X88000000Y-96000000D02*
X90000000Y-94000000D01*
D10*
X122000000Y-94500000D02*
X122000000Y-96300000D01*
D11*
X109500000Y-93500000D02*
X96000000Y-93500000D01*
X90000000Y-92500000D02*
X82500000Y-85000000D01*
X112000000Y-96000000D02*
X109500000Y-93500000D01*
X108750000Y-103000000D02*
X108750000Y-108750000D01*
D10*
X120000000Y-96300000D02*
X120000000Y-94500000D01*
D11*
X108750000Y-108750000D02*
X113500000Y-113500000D01*
D10*
X118000000Y-103700000D02*
X118000000Y-105500000D01*
X122000000Y-105500000D02*
X122000000Y-103700000D01*
D11*
X85000000Y-82500000D02*
X85000000Y-80000000D01*
D10*
X120000000Y-105500000D02*
X120000000Y-103700000D01*
D11*
X97250000Y-102750000D02*
X85000000Y-115000000D01*
X82500000Y-85000000D02*
X80000000Y-85000000D01*
D10*
X118000000Y-105500000D02*
X122000000Y-105500000D01*
D12*
X78928571Y-95431009D02*
X78785714Y-95478628D01*
X78785714Y-95478628D02*
X78738095Y-95526247D01*
X78738095Y-95526247D02*
X78690476Y-95621485D01*
X78690476Y-95621485D02*
X78690476Y-95764342D01*
X78690476Y-95764342D02*
X78738095Y-95859580D01*
X78738095Y-95859580D02*
X78785714Y-95907200D01*
X78785714Y-95907200D02*
X78880952Y-95954819D01*
X78880952Y-95954819D02*
X79261904Y-95954819D01*
X79261904Y-95954819D02*
X79261904Y-94954819D01*
X79261904Y-94954819D02*
X78928571Y-94954819D01*
X78928571Y-94954819D02*
X78833333Y-95002438D01*
X78833333Y-95002438D02*
X78785714Y-95050057D01*
X78785714Y-95050057D02*
X78738095Y-95145295D01*
X78738095Y-95145295D02*
X78738095Y-95240533D01*
X78738095Y-95240533D02*
X78785714Y-95335771D01*
X78785714Y-95335771D02*
X78833333Y-95383390D01*
X78833333Y-95383390D02*
X78928571Y-95431009D01*
X78928571Y-95431009D02*
X79261904Y-95431009D01*
X80928571Y-95431009D02*
X80785714Y-95478628D01*
X80785714Y-95478628D02*
X80738095Y-95526247D01*
X80738095Y-95526247D02*
X80690476Y-95621485D01*
X80690476Y-95621485D02*
X80690476Y-95764342D01*
X80690476Y-95764342D02*
X80738095Y-95859580D01*
X80738095Y-95859580D02*
X80785714Y-95907200D01*
X80785714Y-95907200D02*
X80880952Y-95954819D01*
X80880952Y-95954819D02*
X81261904Y-95954819D01*
X81261904Y-95954819D02*
X81261904Y-94954819D01*
X81261904Y-94954819D02*
X80928571Y-94954819D01*
X80928571Y-94954819D02*
X80833333Y-95002438D01*
X80833333Y-95002438D02*
X80785714Y-95050057D01*
X80785714Y-95050057D02*
X80738095Y-95145295D01*
X80738095Y-95145295D02*
X80738095Y-95240533D01*
X80738095Y-95240533D02*
X80785714Y-95335771D01*
X80785714Y-95335771D02*
X80833333Y-95383390D01*
X80833333Y-95383390D02*
X80928571Y-95431009D01*
X80928571Y-95431009D02*
X81261904Y-95431009D01*
X79380951Y-104573866D02*
X78619047Y-104573866D01*
X81380951Y-104573866D02*
X80619047Y-104573866D01*
X80999999Y-104954819D02*
X80999999Y-104192914D01*
D13*
X128666666Y-112909638D02*
X128666666Y-110909638D01*
X128666666Y-110909638D02*
X127999999Y-112338209D01*
X127999999Y-112338209D02*
X127333333Y-110909638D01*
X127333333Y-110909638D02*
X127333333Y-112909638D01*
X126095238Y-112909638D02*
X126285714Y-112814400D01*
X126285714Y-112814400D02*
X126380952Y-112719161D01*
X126380952Y-112719161D02*
X126476190Y-112528685D01*
X126476190Y-112528685D02*
X126476190Y-111957257D01*
X126476190Y-111957257D02*
X126380952Y-111766780D01*
X126380952Y-111766780D02*
X126285714Y-111671542D01*
X126285714Y-111671542D02*
X126095238Y-111576304D01*
X126095238Y-111576304D02*
X125809523Y-111576304D01*
X125809523Y-111576304D02*
X125619047Y-111671542D01*
X125619047Y-111671542D02*
X125523809Y-111766780D01*
X125523809Y-111766780D02*
X125428571Y-111957257D01*
X125428571Y-111957257D02*
X125428571Y-112528685D01*
X125428571Y-112528685D02*
X125523809Y-112719161D01*
X125523809Y-112719161D02*
X125619047Y-112814400D01*
X125619047Y-112814400D02*
X125809523Y-112909638D01*
X125809523Y-112909638D02*
X126095238Y-112909638D01*
X124857142Y-111576304D02*
X124095238Y-111576304D01*
X124571428Y-110909638D02*
X124571428Y-112623923D01*
X124571428Y-112623923D02*
X124476190Y-112814400D01*
X124476190Y-112814400D02*
X124285714Y-112909638D01*
X124285714Y-112909638D02*
X124095238Y-112909638D01*
X123142857Y-112909638D02*
X123333333Y-112814400D01*
X123333333Y-112814400D02*
X123428571Y-112719161D01*
X123428571Y-112719161D02*
X123523809Y-112528685D01*
X123523809Y-112528685D02*
X123523809Y-111957257D01*
X123523809Y-111957257D02*
X123428571Y-111766780D01*
X123428571Y-111766780D02*
X123333333Y-111671542D01*
X123333333Y-111671542D02*
X123142857Y-111576304D01*
X123142857Y-111576304D02*
X122857142Y-111576304D01*
X122857142Y-111576304D02*
X122666666Y-111671542D01*
X122666666Y-111671542D02*
X122571428Y-111766780D01*
X122571428Y-111766780D02*
X122476190Y-111957257D01*
X122476190Y-111957257D02*
X122476190Y-112528685D01*
X122476190Y-112528685D02*
X122571428Y-112719161D01*
X122571428Y-112719161D02*
X122666666Y-112814400D01*
X122666666Y-112814400D02*
X122857142Y-112909638D01*
X122857142Y-112909638D02*
X123142857Y-112909638D01*
X121619047Y-112909638D02*
X121619047Y-111576304D01*
X121619047Y-111957257D02*
X121523809Y-111766780D01*
X121523809Y-111766780D02*
X121428571Y-111671542D01*
X121428571Y-111671542D02*
X121238095Y-111576304D01*
X121238095Y-111576304D02*
X121047618Y-111576304D01*
X88904762Y-122909638D02*
X88904762Y-120909638D01*
X88904762Y-120909638D02*
X88428572Y-120909638D01*
X88428572Y-120909638D02*
X88142857Y-121004876D01*
X88142857Y-121004876D02*
X87952381Y-121195352D01*
X87952381Y-121195352D02*
X87857143Y-121385828D01*
X87857143Y-121385828D02*
X87761905Y-121766780D01*
X87761905Y-121766780D02*
X87761905Y-122052495D01*
X87761905Y-122052495D02*
X87857143Y-122433447D01*
X87857143Y-122433447D02*
X87952381Y-122623923D01*
X87952381Y-122623923D02*
X88142857Y-122814400D01*
X88142857Y-122814400D02*
X88428572Y-122909638D01*
X88428572Y-122909638D02*
X88904762Y-122909638D01*
X86904762Y-122909638D02*
X86904762Y-121576304D01*
X86904762Y-120909638D02*
X87000000Y-121004876D01*
X87000000Y-121004876D02*
X86904762Y-121100114D01*
X86904762Y-121100114D02*
X86809524Y-121004876D01*
X86809524Y-121004876D02*
X86904762Y-120909638D01*
X86904762Y-120909638D02*
X86904762Y-121100114D01*
X86047619Y-122814400D02*
X85857143Y-122909638D01*
X85857143Y-122909638D02*
X85476191Y-122909638D01*
X85476191Y-122909638D02*
X85285714Y-122814400D01*
X85285714Y-122814400D02*
X85190476Y-122623923D01*
X85190476Y-122623923D02*
X85190476Y-122528685D01*
X85190476Y-122528685D02*
X85285714Y-122338209D01*
X85285714Y-122338209D02*
X85476191Y-122242971D01*
X85476191Y-122242971D02*
X85761905Y-122242971D01*
X85761905Y-122242971D02*
X85952381Y-122147733D01*
X85952381Y-122147733D02*
X86047619Y-121957257D01*
X86047619Y-121957257D02*
X86047619Y-121862019D01*
X86047619Y-121862019D02*
X85952381Y-121671542D01*
X85952381Y-121671542D02*
X85761905Y-121576304D01*
X85761905Y-121576304D02*
X85476191Y-121576304D01*
X85476191Y-121576304D02*
X85285714Y-121671542D01*
X84333333Y-121576304D02*
X84333333Y-123576304D01*
X84333333Y-121671542D02*
X84142857Y-121576304D01*
X84142857Y-121576304D02*
X83761904Y-121576304D01*
X83761904Y-121576304D02*
X83571428Y-121671542D01*
X83571428Y-121671542D02*
X83476190Y-121766780D01*
X83476190Y-121766780D02*
X83380952Y-121957257D01*
X83380952Y-121957257D02*
X83380952Y-122528685D01*
X83380952Y-122528685D02*
X83476190Y-122719161D01*
X83476190Y-122719161D02*
X83571428Y-122814400D01*
X83571428Y-122814400D02*
X83761904Y-122909638D01*
X83761904Y-122909638D02*
X84142857Y-122909638D01*
X84142857Y-122909638D02*
X84333333Y-122814400D01*
X82238095Y-122909638D02*
X82428571Y-122814400D01*
X82428571Y-122814400D02*
X82523809Y-122623923D01*
X82523809Y-122623923D02*
X82523809Y-120909638D01*
X80619047Y-122909638D02*
X80619047Y-121862019D01*
X80619047Y-121862019D02*
X80714285Y-121671542D01*
X80714285Y-121671542D02*
X80904761Y-121576304D01*
X80904761Y-121576304D02*
X81285714Y-121576304D01*
X81285714Y-121576304D02*
X81476190Y-121671542D01*
X80619047Y-122814400D02*
X80809523Y-122909638D01*
X80809523Y-122909638D02*
X81285714Y-122909638D01*
X81285714Y-122909638D02*
X81476190Y-122814400D01*
X81476190Y-122814400D02*
X81571428Y-122623923D01*
X81571428Y-122623923D02*
X81571428Y-122433447D01*
X81571428Y-122433447D02*
X81476190Y-122242971D01*
X81476190Y-122242971D02*
X81285714Y-122147733D01*
X81285714Y-122147733D02*
X80809523Y-122147733D01*
X80809523Y-122147733D02*
X80619047Y-122052495D01*
X79857142Y-121576304D02*
X79380952Y-122909638D01*
X78904761Y-121576304D02*
X79380952Y-122909638D01*
X79380952Y-122909638D02*
X79571428Y-123385828D01*
X79571428Y-123385828D02*
X79666666Y-123481066D01*
X79666666Y-123481066D02*
X79857142Y-123576304D01*
D12*
X118263220Y-67569819D02*
X118263220Y-66569819D01*
X118263220Y-66569819D02*
X118025125Y-66569819D01*
X118025125Y-66569819D02*
X117882268Y-66617438D01*
X117882268Y-66617438D02*
X117787030Y-66712676D01*
X117787030Y-66712676D02*
X117739411Y-66807914D01*
X117739411Y-66807914D02*
X117691792Y-66998390D01*
X117691792Y-66998390D02*
X117691792Y-67141247D01*
X117691792Y-67141247D02*
X117739411Y-67331723D01*
X117739411Y-67331723D02*
X117787030Y-67426961D01*
X117787030Y-67426961D02*
X117882268Y-67522200D01*
X117882268Y-67522200D02*
X118025125Y-67569819D01*
X118025125Y-67569819D02*
X118263220Y-67569819D01*
X64785713Y-131407200D02*
X64642856Y-131454819D01*
X64642856Y-131454819D02*
X64404761Y-131454819D01*
X64404761Y-131454819D02*
X64309523Y-131407200D01*
X64309523Y-131407200D02*
X64261904Y-131359580D01*
X64261904Y-131359580D02*
X64214285Y-131264342D01*
X64214285Y-131264342D02*
X64214285Y-131169104D01*
X64214285Y-131169104D02*
X64261904Y-131073866D01*
X64261904Y-131073866D02*
X64309523Y-131026247D01*
X64309523Y-131026247D02*
X64404761Y-130978628D01*
X64404761Y-130978628D02*
X64595237Y-130931009D01*
X64595237Y-130931009D02*
X64690475Y-130883390D01*
X64690475Y-130883390D02*
X64738094Y-130835771D01*
X64738094Y-130835771D02*
X64785713Y-130740533D01*
X64785713Y-130740533D02*
X64785713Y-130645295D01*
X64785713Y-130645295D02*
X64738094Y-130550057D01*
X64738094Y-130550057D02*
X64690475Y-130502438D01*
X64690475Y-130502438D02*
X64595237Y-130454819D01*
X64595237Y-130454819D02*
X64357142Y-130454819D01*
X64357142Y-130454819D02*
X64214285Y-130502438D01*
X64190476Y-125359580D02*
X64238095Y-125407200D01*
X64238095Y-125407200D02*
X64380952Y-125454819D01*
X64380952Y-125454819D02*
X64476190Y-125454819D01*
X64476190Y-125454819D02*
X64619047Y-125407200D01*
X64619047Y-125407200D02*
X64714285Y-125311961D01*
X64714285Y-125311961D02*
X64761904Y-125216723D01*
X64761904Y-125216723D02*
X64809523Y-125026247D01*
X64809523Y-125026247D02*
X64809523Y-124883390D01*
X64809523Y-124883390D02*
X64761904Y-124692914D01*
X64761904Y-124692914D02*
X64714285Y-124597676D01*
X64714285Y-124597676D02*
X64619047Y-124502438D01*
X64619047Y-124502438D02*
X64476190Y-124454819D01*
X64476190Y-124454819D02*
X64380952Y-124454819D01*
X64380952Y-124454819D02*
X64238095Y-124502438D01*
X64238095Y-124502438D02*
X64190476Y-124550057D01*
X123539411Y-66617438D02*
X123634649Y-66569819D01*
X123634649Y-66569819D02*
X123777506Y-66569819D01*
X123777506Y-66569819D02*
X123920363Y-66617438D01*
X123920363Y-66617438D02*
X124015601Y-66712676D01*
X124015601Y-66712676D02*
X124063220Y-66807914D01*
X124063220Y-66807914D02*
X124110839Y-66998390D01*
X124110839Y-66998390D02*
X124110839Y-67141247D01*
X124110839Y-67141247D02*
X124063220Y-67331723D01*
X124063220Y-67331723D02*
X124015601Y-67426961D01*
X124015601Y-67426961D02*
X123920363Y-67522200D01*
X123920363Y-67522200D02*
X123777506Y-67569819D01*
X123777506Y-67569819D02*
X123682268Y-67569819D01*
X123682268Y-67569819D02*
X123539411Y-67522200D01*
X123539411Y-67522200D02*
X123491792Y-67474580D01*
X123491792Y-67474580D02*
X123491792Y-67141247D01*
X123491792Y-67141247D02*
X123682268Y-67141247D01*
X115739411Y-66617438D02*
X115834649Y-66569819D01*
X115834649Y-66569819D02*
X115977506Y-66569819D01*
X115977506Y-66569819D02*
X116120363Y-66617438D01*
X116120363Y-66617438D02*
X116215601Y-66712676D01*
X116215601Y-66712676D02*
X116263220Y-66807914D01*
X116263220Y-66807914D02*
X116310839Y-66998390D01*
X116310839Y-66998390D02*
X116310839Y-67141247D01*
X116310839Y-67141247D02*
X116263220Y-67331723D01*
X116263220Y-67331723D02*
X116215601Y-67426961D01*
X116215601Y-67426961D02*
X116120363Y-67522200D01*
X116120363Y-67522200D02*
X115977506Y-67569819D01*
X115977506Y-67569819D02*
X115882268Y-67569819D01*
X115882268Y-67569819D02*
X115739411Y-67522200D01*
X115739411Y-67522200D02*
X115691792Y-67474580D01*
X115691792Y-67474580D02*
X115691792Y-67141247D01*
X115691792Y-67141247D02*
X115882268Y-67141247D01*
X64833332Y-133454819D02*
X64833332Y-132454819D01*
X64833332Y-132454819D02*
X64499999Y-133169104D01*
X64499999Y-133169104D02*
X64166666Y-132454819D01*
X64166666Y-132454819D02*
X64166666Y-133454819D01*
X126491792Y-67474580D02*
X126539411Y-67522200D01*
X126539411Y-67522200D02*
X126682268Y-67569819D01*
X126682268Y-67569819D02*
X126777506Y-67569819D01*
X126777506Y-67569819D02*
X126920363Y-67522200D01*
X126920363Y-67522200D02*
X127015601Y-67426961D01*
X127015601Y-67426961D02*
X127063220Y-67331723D01*
X127063220Y-67331723D02*
X127110839Y-67141247D01*
X127110839Y-67141247D02*
X127110839Y-66998390D01*
X127110839Y-66998390D02*
X127063220Y-66807914D01*
X127063220Y-66807914D02*
X127015601Y-66712676D01*
X127015601Y-66712676D02*
X126920363Y-66617438D01*
X126920363Y-66617438D02*
X126777506Y-66569819D01*
X126777506Y-66569819D02*
X126682268Y-66569819D01*
X126682268Y-66569819D02*
X126539411Y-66617438D01*
X126539411Y-66617438D02*
X126491792Y-66665057D01*
X126063220Y-67569819D02*
X126063220Y-66569819D01*
X126063220Y-66569819D02*
X125825125Y-66569819D01*
X125825125Y-66569819D02*
X125682268Y-66617438D01*
X125682268Y-66617438D02*
X125587030Y-66712676D01*
X125587030Y-66712676D02*
X125539411Y-66807914D01*
X125539411Y-66807914D02*
X125491792Y-66998390D01*
X125491792Y-66998390D02*
X125491792Y-67141247D01*
X125491792Y-67141247D02*
X125539411Y-67331723D01*
X125539411Y-67331723D02*
X125587030Y-67426961D01*
X125587030Y-67426961D02*
X125682268Y-67522200D01*
X125682268Y-67522200D02*
X125825125Y-67569819D01*
X125825125Y-67569819D02*
X126063220Y-67569819D01*
X121380951Y-104573866D02*
X120619047Y-104573866D01*
X120999999Y-104954819D02*
X120999999Y-104192914D01*
X132387030Y-66569819D02*
X132863220Y-66569819D01*
X132863220Y-66569819D02*
X132910839Y-67046009D01*
X132910839Y-67046009D02*
X132863220Y-66998390D01*
X132863220Y-66998390D02*
X132767982Y-66950771D01*
X132767982Y-66950771D02*
X132529887Y-66950771D01*
X132529887Y-66950771D02*
X132434649Y-66998390D01*
X132434649Y-66998390D02*
X132387030Y-67046009D01*
X132387030Y-67046009D02*
X132339411Y-67141247D01*
X132339411Y-67141247D02*
X132339411Y-67379342D01*
X132339411Y-67379342D02*
X132387030Y-67474580D01*
X132387030Y-67474580D02*
X132434649Y-67522200D01*
X132434649Y-67522200D02*
X132529887Y-67569819D01*
X132529887Y-67569819D02*
X132767982Y-67569819D01*
X132767982Y-67569819D02*
X132863220Y-67522200D01*
X132863220Y-67522200D02*
X132910839Y-67474580D01*
G36*
X83155515Y-132906877D02*
G01*
X83185922Y-132937284D01*
X83220180Y-133005800D01*
X83220180Y-133294047D01*
X82846371Y-133294047D01*
X82846371Y-133005800D01*
X82880629Y-132937284D01*
X82911036Y-132906877D01*
X82979552Y-132872619D01*
X83086999Y-132872619D01*
X83155515Y-132906877D01*
G37*
G36*
X83513037Y-133586904D02*
G01*
X82077323Y-133586904D01*
X82077323Y-132791093D01*
X82220464Y-132791093D01*
X82233749Y-132840646D01*
X82252170Y-132859061D01*
X82696371Y-133170001D01*
X82696371Y-133294047D01*
X82295180Y-133294047D01*
X82246971Y-133311594D01*
X82221319Y-133356023D01*
X82230228Y-133406547D01*
X82269528Y-133439524D01*
X82295180Y-133444047D01*
X83295180Y-133444047D01*
X83313488Y-133437383D01*
X83332680Y-133433999D01*
X83337030Y-133428814D01*
X83343389Y-133426500D01*
X83353131Y-133409626D01*
X83365657Y-133394699D01*
X83367374Y-133384956D01*
X83369041Y-133382071D01*
X83368462Y-133378788D01*
X83370180Y-133369047D01*
X83370180Y-132988095D01*
X83368646Y-132983881D01*
X83369688Y-132979520D01*
X83362262Y-132954554D01*
X83314643Y-132859316D01*
X83313453Y-132858190D01*
X83300594Y-132839824D01*
X83252975Y-132792205D01*
X83251493Y-132791514D01*
X83233483Y-132778156D01*
X83138245Y-132730537D01*
X83133791Y-132730024D01*
X83130356Y-132727142D01*
X83104704Y-132722619D01*
X82961847Y-132722619D01*
X82957633Y-132724152D01*
X82953272Y-132723111D01*
X82928306Y-132730537D01*
X82833068Y-132778156D01*
X82831942Y-132779345D01*
X82813576Y-132792205D01*
X82765957Y-132839824D01*
X82765266Y-132841305D01*
X82751908Y-132859316D01*
X82704289Y-132954554D01*
X82703776Y-132959007D01*
X82700894Y-132962443D01*
X82696558Y-132987034D01*
X82338190Y-132736177D01*
X82288633Y-132722906D01*
X82242139Y-132744593D01*
X82220464Y-132791093D01*
X82077323Y-132791093D01*
X82077323Y-132273809D01*
X82220180Y-132273809D01*
X82220739Y-132275346D01*
X82224029Y-132297527D01*
X82271649Y-132440384D01*
X82303541Y-132480570D01*
X82353802Y-132490855D01*
X82398916Y-132466426D01*
X82417772Y-132418715D01*
X82413951Y-132392949D01*
X82370180Y-132261637D01*
X82370180Y-132053420D01*
X82404438Y-131984903D01*
X82434846Y-131954496D01*
X82503362Y-131920238D01*
X82563190Y-131920238D01*
X82631706Y-131954496D01*
X82662113Y-131984903D01*
X82700606Y-132061890D01*
X82746229Y-132244380D01*
X82748217Y-132247324D01*
X82751908Y-132259731D01*
X82799527Y-132354969D01*
X82800716Y-132356094D01*
X82813576Y-132374461D01*
X82861195Y-132422080D01*
X82862676Y-132422771D01*
X82880687Y-132436129D01*
X82975925Y-132483748D01*
X82980378Y-132484260D01*
X82983814Y-132487143D01*
X83009466Y-132491666D01*
X83104704Y-132491666D01*
X83108917Y-132490132D01*
X83113278Y-132491174D01*
X83138245Y-132483748D01*
X83233483Y-132436129D01*
X83234608Y-132434939D01*
X83252975Y-132422080D01*
X83300594Y-132374461D01*
X83301285Y-132372979D01*
X83314643Y-132354969D01*
X83362262Y-132259731D01*
X83362774Y-132255277D01*
X83365657Y-132251842D01*
X83370180Y-132226190D01*
X83370180Y-131988095D01*
X83369620Y-131986557D01*
X83366331Y-131964377D01*
X83318712Y-131821521D01*
X83286821Y-131781335D01*
X83236560Y-131771049D01*
X83191446Y-131795478D01*
X83172589Y-131843189D01*
X83176410Y-131868955D01*
X83220180Y-132000265D01*
X83220180Y-132208485D01*
X83185922Y-132277001D01*
X83155515Y-132307408D01*
X83086999Y-132341666D01*
X83027171Y-132341666D01*
X82958655Y-132307408D01*
X82928248Y-132277001D01*
X82889754Y-132200014D01*
X82844132Y-132017524D01*
X82842143Y-132014579D01*
X82838453Y-132002173D01*
X82790834Y-131906935D01*
X82789644Y-131905809D01*
X82776785Y-131887443D01*
X82729166Y-131839824D01*
X82727684Y-131839133D01*
X82709674Y-131825775D01*
X82614436Y-131778156D01*
X82609982Y-131777643D01*
X82606547Y-131774761D01*
X82580895Y-131770238D01*
X82485657Y-131770238D01*
X82481443Y-131771771D01*
X82477082Y-131770730D01*
X82452116Y-131778156D01*
X82356878Y-131825775D01*
X82355752Y-131826964D01*
X82337386Y-131839824D01*
X82289767Y-131887443D01*
X82289075Y-131888925D01*
X82275718Y-131906934D01*
X82228098Y-132002172D01*
X82227585Y-132006626D01*
X82224703Y-132010062D01*
X82220180Y-132035714D01*
X82220180Y-132273809D01*
X82077323Y-132273809D01*
X82077323Y-131260785D01*
X82221319Y-131260785D01*
X82230228Y-131311309D01*
X82269528Y-131344286D01*
X82295180Y-131348809D01*
X83220180Y-131348809D01*
X83220180Y-131559523D01*
X83237727Y-131607732D01*
X83282156Y-131633384D01*
X83332680Y-131624475D01*
X83365657Y-131585175D01*
X83370180Y-131559523D01*
X83370180Y-130988095D01*
X83352633Y-130939886D01*
X83308204Y-130914234D01*
X83257680Y-130923143D01*
X83224703Y-130962443D01*
X83220180Y-130988095D01*
X83220180Y-131198809D01*
X82295180Y-131198809D01*
X82246971Y-131216356D01*
X82221319Y-131260785D01*
X82077323Y-131260785D01*
X82077323Y-130771377D01*
X83513037Y-130771377D01*
X83513037Y-133586904D01*
G37*
X121238094Y-95669104D02*
X120761904Y-95669104D01*
X121333332Y-95954819D02*
X120999999Y-94954819D01*
X120999999Y-94954819D02*
X120666666Y-95954819D01*
X64880951Y-119073866D02*
X64119047Y-119073866D01*
X64499999Y-119454819D02*
X64499999Y-118692914D01*
X134339411Y-69187438D02*
X134434649Y-69139819D01*
X134434649Y-69139819D02*
X134577506Y-69139819D01*
X134577506Y-69139819D02*
X134720363Y-69187438D01*
X134720363Y-69187438D02*
X134815601Y-69282676D01*
X134815601Y-69282676D02*
X134863220Y-69377914D01*
X134863220Y-69377914D02*
X134910839Y-69568390D01*
X134910839Y-69568390D02*
X134910839Y-69711247D01*
X134910839Y-69711247D02*
X134863220Y-69901723D01*
X134863220Y-69901723D02*
X134815601Y-69996961D01*
X134815601Y-69996961D02*
X134720363Y-70092200D01*
X134720363Y-70092200D02*
X134577506Y-70139819D01*
X134577506Y-70139819D02*
X134482268Y-70139819D01*
X134482268Y-70139819D02*
X134339411Y-70092200D01*
X134339411Y-70092200D02*
X134291792Y-70044580D01*
X134291792Y-70044580D02*
X134291792Y-69711247D01*
X134291792Y-69711247D02*
X134482268Y-69711247D01*
X133101315Y-69758866D02*
X132339411Y-69758866D01*
X130577506Y-69187438D02*
X130672744Y-69139819D01*
X130672744Y-69139819D02*
X130815601Y-69139819D01*
X130815601Y-69139819D02*
X130958458Y-69187438D01*
X130958458Y-69187438D02*
X131053696Y-69282676D01*
X131053696Y-69282676D02*
X131101315Y-69377914D01*
X131101315Y-69377914D02*
X131148934Y-69568390D01*
X131148934Y-69568390D02*
X131148934Y-69711247D01*
X131148934Y-69711247D02*
X131101315Y-69901723D01*
X131101315Y-69901723D02*
X131053696Y-69996961D01*
X131053696Y-69996961D02*
X130958458Y-70092200D01*
X130958458Y-70092200D02*
X130815601Y-70139819D01*
X130815601Y-70139819D02*
X130720363Y-70139819D01*
X130720363Y-70139819D02*
X130577506Y-70092200D01*
X130577506Y-70092200D02*
X130529887Y-70044580D01*
X130529887Y-70044580D02*
X130529887Y-69711247D01*
X130529887Y-69711247D02*
X130720363Y-69711247D01*
X130101315Y-70139819D02*
X130101315Y-69473152D01*
X130101315Y-69663628D02*
X130053696Y-69568390D01*
X130053696Y-69568390D02*
X130006077Y-69520771D01*
X130006077Y-69520771D02*
X129910839Y-69473152D01*
X129910839Y-69473152D02*
X129815601Y-69473152D01*
X129339410Y-70139819D02*
X129434648Y-70092200D01*
X129434648Y-70092200D02*
X129482267Y-70044580D01*
X129482267Y-70044580D02*
X129529886Y-69949342D01*
X129529886Y-69949342D02*
X129529886Y-69663628D01*
X129529886Y-69663628D02*
X129482267Y-69568390D01*
X129482267Y-69568390D02*
X129434648Y-69520771D01*
X129434648Y-69520771D02*
X129339410Y-69473152D01*
X129339410Y-69473152D02*
X129196553Y-69473152D01*
X129196553Y-69473152D02*
X129101315Y-69520771D01*
X129101315Y-69520771D02*
X129053696Y-69568390D01*
X129053696Y-69568390D02*
X129006077Y-69663628D01*
X129006077Y-69663628D02*
X129006077Y-69949342D01*
X129006077Y-69949342D02*
X129053696Y-70044580D01*
X129053696Y-70044580D02*
X129101315Y-70092200D01*
X129101315Y-70092200D02*
X129196553Y-70139819D01*
X129196553Y-70139819D02*
X129339410Y-70139819D01*
X128148934Y-69473152D02*
X128148934Y-70139819D01*
X128577505Y-69473152D02*
X128577505Y-69996961D01*
X128577505Y-69996961D02*
X128529886Y-70092200D01*
X128529886Y-70092200D02*
X128434648Y-70139819D01*
X128434648Y-70139819D02*
X128291791Y-70139819D01*
X128291791Y-70139819D02*
X128196553Y-70092200D01*
X128196553Y-70092200D02*
X128148934Y-70044580D01*
X127672743Y-69473152D02*
X127672743Y-70139819D01*
X127672743Y-69568390D02*
X127625124Y-69520771D01*
X127625124Y-69520771D02*
X127529886Y-69473152D01*
X127529886Y-69473152D02*
X127387029Y-69473152D01*
X127387029Y-69473152D02*
X127291791Y-69520771D01*
X127291791Y-69520771D02*
X127244172Y-69616009D01*
X127244172Y-69616009D02*
X127244172Y-70139819D01*
X126339410Y-70139819D02*
X126339410Y-69139819D01*
X126339410Y-70092200D02*
X126434648Y-70139819D01*
X126434648Y-70139819D02*
X126625124Y-70139819D01*
X126625124Y-70139819D02*
X126720362Y-70092200D01*
X126720362Y-70092200D02*
X126767981Y-70044580D01*
X126767981Y-70044580D02*
X126815600Y-69949342D01*
X126815600Y-69949342D02*
X126815600Y-69663628D01*
X126815600Y-69663628D02*
X126767981Y-69568390D01*
X126767981Y-69568390D02*
X126720362Y-69520771D01*
X126720362Y-69520771D02*
X126625124Y-69473152D01*
X126625124Y-69473152D02*
X126434648Y-69473152D01*
X126434648Y-69473152D02*
X126339410Y-69520771D01*
X134387030Y-70749819D02*
X134863220Y-70749819D01*
X134863220Y-70749819D02*
X134910839Y-71226009D01*
X134910839Y-71226009D02*
X134863220Y-71178390D01*
X134863220Y-71178390D02*
X134767982Y-71130771D01*
X134767982Y-71130771D02*
X134529887Y-71130771D01*
X134529887Y-71130771D02*
X134434649Y-71178390D01*
X134434649Y-71178390D02*
X134387030Y-71226009D01*
X134387030Y-71226009D02*
X134339411Y-71321247D01*
X134339411Y-71321247D02*
X134339411Y-71559342D01*
X134339411Y-71559342D02*
X134387030Y-71654580D01*
X134387030Y-71654580D02*
X134434649Y-71702200D01*
X134434649Y-71702200D02*
X134529887Y-71749819D01*
X134529887Y-71749819D02*
X134767982Y-71749819D01*
X134767982Y-71749819D02*
X134863220Y-71702200D01*
X134863220Y-71702200D02*
X134910839Y-71654580D01*
X133148934Y-71368866D02*
X132387030Y-71368866D01*
X131291791Y-70749819D02*
X130958458Y-71749819D01*
X130958458Y-71749819D02*
X130625125Y-70749819D01*
X129720363Y-71654580D02*
X129767982Y-71702200D01*
X129767982Y-71702200D02*
X129910839Y-71749819D01*
X129910839Y-71749819D02*
X130006077Y-71749819D01*
X130006077Y-71749819D02*
X130148934Y-71702200D01*
X130148934Y-71702200D02*
X130244172Y-71606961D01*
X130244172Y-71606961D02*
X130291791Y-71511723D01*
X130291791Y-71511723D02*
X130339410Y-71321247D01*
X130339410Y-71321247D02*
X130339410Y-71178390D01*
X130339410Y-71178390D02*
X130291791Y-70987914D01*
X130291791Y-70987914D02*
X130244172Y-70892676D01*
X130244172Y-70892676D02*
X130148934Y-70797438D01*
X130148934Y-70797438D02*
X130006077Y-70749819D01*
X130006077Y-70749819D02*
X129910839Y-70749819D01*
X129910839Y-70749819D02*
X129767982Y-70797438D01*
X129767982Y-70797438D02*
X129720363Y-70845057D01*
X128720363Y-71654580D02*
X128767982Y-71702200D01*
X128767982Y-71702200D02*
X128910839Y-71749819D01*
X128910839Y-71749819D02*
X129006077Y-71749819D01*
X129006077Y-71749819D02*
X129148934Y-71702200D01*
X129148934Y-71702200D02*
X129244172Y-71606961D01*
X129244172Y-71606961D02*
X129291791Y-71511723D01*
X129291791Y-71511723D02*
X129339410Y-71321247D01*
X129339410Y-71321247D02*
X129339410Y-71178390D01*
X129339410Y-71178390D02*
X129291791Y-70987914D01*
X129291791Y-70987914D02*
X129244172Y-70892676D01*
X129244172Y-70892676D02*
X129148934Y-70797438D01*
X129148934Y-70797438D02*
X129006077Y-70749819D01*
X129006077Y-70749819D02*
X128910839Y-70749819D01*
X128910839Y-70749819D02*
X128767982Y-70797438D01*
X128767982Y-70797438D02*
X128720363Y-70845057D01*
X127053696Y-70749819D02*
X127529886Y-70749819D01*
X127529886Y-70749819D02*
X127577505Y-71226009D01*
X127577505Y-71226009D02*
X127529886Y-71178390D01*
X127529886Y-71178390D02*
X127434648Y-71130771D01*
X127434648Y-71130771D02*
X127196553Y-71130771D01*
X127196553Y-71130771D02*
X127101315Y-71178390D01*
X127101315Y-71178390D02*
X127053696Y-71226009D01*
X127053696Y-71226009D02*
X127006077Y-71321247D01*
X127006077Y-71321247D02*
X127006077Y-71559342D01*
X127006077Y-71559342D02*
X127053696Y-71654580D01*
X127053696Y-71654580D02*
X127101315Y-71702200D01*
X127101315Y-71702200D02*
X127196553Y-71749819D01*
X127196553Y-71749819D02*
X127434648Y-71749819D01*
X127434648Y-71749819D02*
X127529886Y-71702200D01*
X127529886Y-71702200D02*
X127577505Y-71654580D01*
X126720362Y-70749819D02*
X126387029Y-71749819D01*
X126387029Y-71749819D02*
X126053696Y-70749819D01*
X134863220Y-73359819D02*
X134863220Y-72359819D01*
X134863220Y-72359819D02*
X134625125Y-72359819D01*
X134625125Y-72359819D02*
X134482268Y-72407438D01*
X134482268Y-72407438D02*
X134387030Y-72502676D01*
X134387030Y-72502676D02*
X134339411Y-72597914D01*
X134339411Y-72597914D02*
X134291792Y-72788390D01*
X134291792Y-72788390D02*
X134291792Y-72931247D01*
X134291792Y-72931247D02*
X134339411Y-73121723D01*
X134339411Y-73121723D02*
X134387030Y-73216961D01*
X134387030Y-73216961D02*
X134482268Y-73312200D01*
X134482268Y-73312200D02*
X134625125Y-73359819D01*
X134625125Y-73359819D02*
X134863220Y-73359819D01*
X133101315Y-72978866D02*
X132339411Y-72978866D01*
X131148934Y-73312200D02*
X131006077Y-73359819D01*
X131006077Y-73359819D02*
X130767982Y-73359819D01*
X130767982Y-73359819D02*
X130672744Y-73312200D01*
X130672744Y-73312200D02*
X130625125Y-73264580D01*
X130625125Y-73264580D02*
X130577506Y-73169342D01*
X130577506Y-73169342D02*
X130577506Y-73074104D01*
X130577506Y-73074104D02*
X130625125Y-72978866D01*
X130625125Y-72978866D02*
X130672744Y-72931247D01*
X130672744Y-72931247D02*
X130767982Y-72883628D01*
X130767982Y-72883628D02*
X130958458Y-72836009D01*
X130958458Y-72836009D02*
X131053696Y-72788390D01*
X131053696Y-72788390D02*
X131101315Y-72740771D01*
X131101315Y-72740771D02*
X131148934Y-72645533D01*
X131148934Y-72645533D02*
X131148934Y-72550295D01*
X131148934Y-72550295D02*
X131101315Y-72455057D01*
X131101315Y-72455057D02*
X131053696Y-72407438D01*
X131053696Y-72407438D02*
X130958458Y-72359819D01*
X130958458Y-72359819D02*
X130720363Y-72359819D01*
X130720363Y-72359819D02*
X130577506Y-72407438D01*
X130148934Y-73359819D02*
X130148934Y-72359819D01*
X130148934Y-72359819D02*
X129910839Y-72359819D01*
X129910839Y-72359819D02*
X129767982Y-72407438D01*
X129767982Y-72407438D02*
X129672744Y-72502676D01*
X129672744Y-72502676D02*
X129625125Y-72597914D01*
X129625125Y-72597914D02*
X129577506Y-72788390D01*
X129577506Y-72788390D02*
X129577506Y-72931247D01*
X129577506Y-72931247D02*
X129625125Y-73121723D01*
X129625125Y-73121723D02*
X129672744Y-73216961D01*
X129672744Y-73216961D02*
X129767982Y-73312200D01*
X129767982Y-73312200D02*
X129910839Y-73359819D01*
X129910839Y-73359819D02*
X130148934Y-73359819D01*
X129196553Y-73074104D02*
X128720363Y-73074104D01*
X129291791Y-73359819D02*
X128958458Y-72359819D01*
X128958458Y-72359819D02*
X128625125Y-73359819D01*
X134291792Y-74874580D02*
X134339411Y-74922200D01*
X134339411Y-74922200D02*
X134482268Y-74969819D01*
X134482268Y-74969819D02*
X134577506Y-74969819D01*
X134577506Y-74969819D02*
X134720363Y-74922200D01*
X134720363Y-74922200D02*
X134815601Y-74826961D01*
X134815601Y-74826961D02*
X134863220Y-74731723D01*
X134863220Y-74731723D02*
X134910839Y-74541247D01*
X134910839Y-74541247D02*
X134910839Y-74398390D01*
X134910839Y-74398390D02*
X134863220Y-74207914D01*
X134863220Y-74207914D02*
X134815601Y-74112676D01*
X134815601Y-74112676D02*
X134720363Y-74017438D01*
X134720363Y-74017438D02*
X134577506Y-73969819D01*
X134577506Y-73969819D02*
X134482268Y-73969819D01*
X134482268Y-73969819D02*
X134339411Y-74017438D01*
X134339411Y-74017438D02*
X134291792Y-74065057D01*
X133101315Y-74588866D02*
X132339411Y-74588866D01*
X131148934Y-74922200D02*
X131006077Y-74969819D01*
X131006077Y-74969819D02*
X130767982Y-74969819D01*
X130767982Y-74969819D02*
X130672744Y-74922200D01*
X130672744Y-74922200D02*
X130625125Y-74874580D01*
X130625125Y-74874580D02*
X130577506Y-74779342D01*
X130577506Y-74779342D02*
X130577506Y-74684104D01*
X130577506Y-74684104D02*
X130625125Y-74588866D01*
X130625125Y-74588866D02*
X130672744Y-74541247D01*
X130672744Y-74541247D02*
X130767982Y-74493628D01*
X130767982Y-74493628D02*
X130958458Y-74446009D01*
X130958458Y-74446009D02*
X131053696Y-74398390D01*
X131053696Y-74398390D02*
X131101315Y-74350771D01*
X131101315Y-74350771D02*
X131148934Y-74255533D01*
X131148934Y-74255533D02*
X131148934Y-74160295D01*
X131148934Y-74160295D02*
X131101315Y-74065057D01*
X131101315Y-74065057D02*
X131053696Y-74017438D01*
X131053696Y-74017438D02*
X130958458Y-73969819D01*
X130958458Y-73969819D02*
X130720363Y-73969819D01*
X130720363Y-73969819D02*
X130577506Y-74017438D01*
X129577506Y-74874580D02*
X129625125Y-74922200D01*
X129625125Y-74922200D02*
X129767982Y-74969819D01*
X129767982Y-74969819D02*
X129863220Y-74969819D01*
X129863220Y-74969819D02*
X130006077Y-74922200D01*
X130006077Y-74922200D02*
X130101315Y-74826961D01*
X130101315Y-74826961D02*
X130148934Y-74731723D01*
X130148934Y-74731723D02*
X130196553Y-74541247D01*
X130196553Y-74541247D02*
X130196553Y-74398390D01*
X130196553Y-74398390D02*
X130148934Y-74207914D01*
X130148934Y-74207914D02*
X130101315Y-74112676D01*
X130101315Y-74112676D02*
X130006077Y-74017438D01*
X130006077Y-74017438D02*
X129863220Y-73969819D01*
X129863220Y-73969819D02*
X129767982Y-73969819D01*
X129767982Y-73969819D02*
X129625125Y-74017438D01*
X129625125Y-74017438D02*
X129577506Y-74065057D01*
X128672744Y-74969819D02*
X129148934Y-74969819D01*
X129148934Y-74969819D02*
X129148934Y-73969819D01*
X64190476Y-123454819D02*
X64523809Y-122978628D01*
X64761904Y-123454819D02*
X64761904Y-122454819D01*
X64761904Y-122454819D02*
X64380952Y-122454819D01*
X64380952Y-122454819D02*
X64285714Y-122502438D01*
X64285714Y-122502438D02*
X64238095Y-122550057D01*
X64238095Y-122550057D02*
X64190476Y-122645295D01*
X64190476Y-122645295D02*
X64190476Y-122788152D01*
X64190476Y-122788152D02*
X64238095Y-122883390D01*
X64238095Y-122883390D02*
X64285714Y-122931009D01*
X64285714Y-122931009D02*
X64380952Y-122978628D01*
X64380952Y-122978628D02*
X64761904Y-122978628D01*
X64428571Y-128931009D02*
X64285714Y-128978628D01*
X64285714Y-128978628D02*
X64238095Y-129026247D01*
X64238095Y-129026247D02*
X64190476Y-129121485D01*
X64190476Y-129121485D02*
X64190476Y-129264342D01*
X64190476Y-129264342D02*
X64238095Y-129359580D01*
X64238095Y-129359580D02*
X64285714Y-129407200D01*
X64285714Y-129407200D02*
X64380952Y-129454819D01*
X64380952Y-129454819D02*
X64761904Y-129454819D01*
X64761904Y-129454819D02*
X64761904Y-128454819D01*
X64761904Y-128454819D02*
X64428571Y-128454819D01*
X64428571Y-128454819D02*
X64333333Y-128502438D01*
X64333333Y-128502438D02*
X64285714Y-128550057D01*
X64285714Y-128550057D02*
X64238095Y-128645295D01*
X64238095Y-128645295D02*
X64238095Y-128740533D01*
X64238095Y-128740533D02*
X64285714Y-128835771D01*
X64285714Y-128835771D02*
X64333333Y-128883390D01*
X64333333Y-128883390D02*
X64428571Y-128931009D01*
X64428571Y-128931009D02*
X64761904Y-128931009D01*
X119238094Y-95669104D02*
X118761904Y-95669104D01*
X119333332Y-95954819D02*
X118999999Y-94954819D01*
X118999999Y-94954819D02*
X118666666Y-95954819D01*
X116787030Y-66569819D02*
X117263220Y-66569819D01*
X117263220Y-66569819D02*
X117310839Y-67046009D01*
X117310839Y-67046009D02*
X117263220Y-66998390D01*
X117263220Y-66998390D02*
X117167982Y-66950771D01*
X117167982Y-66950771D02*
X116929887Y-66950771D01*
X116929887Y-66950771D02*
X116834649Y-66998390D01*
X116834649Y-66998390D02*
X116787030Y-67046009D01*
X116787030Y-67046009D02*
X116739411Y-67141247D01*
X116739411Y-67141247D02*
X116739411Y-67379342D01*
X116739411Y-67379342D02*
X116787030Y-67474580D01*
X116787030Y-67474580D02*
X116834649Y-67522200D01*
X116834649Y-67522200D02*
X116929887Y-67569819D01*
X116929887Y-67569819D02*
X117167982Y-67569819D01*
X117167982Y-67569819D02*
X117263220Y-67522200D01*
X117263220Y-67522200D02*
X117310839Y-67474580D01*
X119380951Y-104573866D02*
X118619047Y-104573866D01*
X64761904Y-127454819D02*
X64761904Y-126454819D01*
X64761904Y-126454819D02*
X64523809Y-126454819D01*
X64523809Y-126454819D02*
X64380952Y-126502438D01*
X64380952Y-126502438D02*
X64285714Y-126597676D01*
X64285714Y-126597676D02*
X64238095Y-126692914D01*
X64238095Y-126692914D02*
X64190476Y-126883390D01*
X64190476Y-126883390D02*
X64190476Y-127026247D01*
X64190476Y-127026247D02*
X64238095Y-127216723D01*
X64238095Y-127216723D02*
X64285714Y-127311961D01*
X64285714Y-127311961D02*
X64380952Y-127407200D01*
X64380952Y-127407200D02*
X64523809Y-127454819D01*
X64523809Y-127454819D02*
X64761904Y-127454819D01*
X134291792Y-67474580D02*
X134339411Y-67522200D01*
X134339411Y-67522200D02*
X134482268Y-67569819D01*
X134482268Y-67569819D02*
X134577506Y-67569819D01*
X134577506Y-67569819D02*
X134720363Y-67522200D01*
X134720363Y-67522200D02*
X134815601Y-67426961D01*
X134815601Y-67426961D02*
X134863220Y-67331723D01*
X134863220Y-67331723D02*
X134910839Y-67141247D01*
X134910839Y-67141247D02*
X134910839Y-66998390D01*
X134910839Y-66998390D02*
X134863220Y-66807914D01*
X134863220Y-66807914D02*
X134815601Y-66712676D01*
X134815601Y-66712676D02*
X134720363Y-66617438D01*
X134720363Y-66617438D02*
X134577506Y-66569819D01*
X134577506Y-66569819D02*
X134482268Y-66569819D01*
X134482268Y-66569819D02*
X134339411Y-66617438D01*
X134339411Y-66617438D02*
X134291792Y-66665057D01*
X64880951Y-121073866D02*
X64119047Y-121073866D01*
X131339411Y-66617438D02*
X131434649Y-66569819D01*
X131434649Y-66569819D02*
X131577506Y-66569819D01*
X131577506Y-66569819D02*
X131720363Y-66617438D01*
X131720363Y-66617438D02*
X131815601Y-66712676D01*
X131815601Y-66712676D02*
X131863220Y-66807914D01*
X131863220Y-66807914D02*
X131910839Y-66998390D01*
X131910839Y-66998390D02*
X131910839Y-67141247D01*
X131910839Y-67141247D02*
X131863220Y-67331723D01*
X131863220Y-67331723D02*
X131815601Y-67426961D01*
X131815601Y-67426961D02*
X131720363Y-67522200D01*
X131720363Y-67522200D02*
X131577506Y-67569819D01*
X131577506Y-67569819D02*
X131482268Y-67569819D01*
X131482268Y-67569819D02*
X131339411Y-67522200D01*
X131339411Y-67522200D02*
X131291792Y-67474580D01*
X131291792Y-67474580D02*
X131291792Y-67141247D01*
X131291792Y-67141247D02*
X131482268Y-67141247D01*
D13*
X80937966Y-75213769D02*
X80803279Y-75483143D01*
X80803279Y-75483143D02*
X80466561Y-75819860D01*
X80466561Y-75819860D02*
X80264531Y-75887204D01*
X80264531Y-75887204D02*
X80129844Y-75887204D01*
X80129844Y-75887204D02*
X79927813Y-75819860D01*
X79927813Y-75819860D02*
X79793126Y-75685173D01*
X79793126Y-75685173D02*
X79725783Y-75483143D01*
X79725783Y-75483143D02*
X79725783Y-75348456D01*
X79725783Y-75348456D02*
X79793126Y-75146425D01*
X79793126Y-75146425D02*
X79995157Y-74809708D01*
X79995157Y-74809708D02*
X80062500Y-74607677D01*
X80062500Y-74607677D02*
X80062500Y-74472990D01*
X80062500Y-74472990D02*
X79995157Y-74270960D01*
X79995157Y-74270960D02*
X79860470Y-74136273D01*
X79860470Y-74136273D02*
X79658439Y-74068929D01*
X79658439Y-74068929D02*
X79523752Y-74068929D01*
X79523752Y-74068929D02*
X79321722Y-74136273D01*
X79321722Y-74136273D02*
X78985004Y-74472990D01*
X78985004Y-74472990D02*
X78850317Y-74742364D01*
X78850317Y-75550486D02*
X78311569Y-76089234D01*
X78176882Y-75281112D02*
X79389065Y-76493295D01*
X79389065Y-76493295D02*
X79456409Y-76695326D01*
X79456409Y-76695326D02*
X79389065Y-76897356D01*
X79389065Y-76897356D02*
X79254378Y-77032043D01*
X78782974Y-77503448D02*
X77840165Y-76560639D01*
X78109539Y-76830013D02*
X77907508Y-76762669D01*
X77907508Y-76762669D02*
X77772821Y-76762669D01*
X77772821Y-76762669D02*
X77570791Y-76830013D01*
X77570791Y-76830013D02*
X77436104Y-76964700D01*
X77301417Y-78985005D02*
X76560638Y-78244226D01*
X76560638Y-78244226D02*
X76493295Y-78042196D01*
X76493295Y-78042196D02*
X76560638Y-77840165D01*
X76560638Y-77840165D02*
X76830012Y-77570791D01*
X76830012Y-77570791D02*
X77032043Y-77503448D01*
X77234073Y-78917661D02*
X77436104Y-78850318D01*
X77436104Y-78850318D02*
X77772821Y-78513600D01*
X77772821Y-78513600D02*
X77840165Y-78311570D01*
X77840165Y-78311570D02*
X77772821Y-78109539D01*
X77772821Y-78109539D02*
X77638134Y-77974852D01*
X77638134Y-77974852D02*
X77436104Y-77907509D01*
X77436104Y-77907509D02*
X77234073Y-77974852D01*
X77234073Y-77974852D02*
X76897356Y-78311570D01*
X76897356Y-78311570D02*
X76695325Y-78378913D01*
X76627982Y-79658440D02*
X75685173Y-78715631D01*
X75213768Y-78244226D02*
X75348455Y-78244226D01*
X75348455Y-78244226D02*
X75348455Y-78378913D01*
X75348455Y-78378913D02*
X75213768Y-78378913D01*
X75213768Y-78378913D02*
X75213768Y-78244226D01*
X75213768Y-78244226D02*
X75348455Y-78378913D01*
X75011738Y-79389066D02*
X75954547Y-80331875D01*
X75146425Y-79523753D02*
X75011738Y-79523753D01*
X75011738Y-79523753D02*
X74809707Y-79591096D01*
X74809707Y-79591096D02*
X74607677Y-79793127D01*
X74607677Y-79793127D02*
X74540333Y-79995157D01*
X74540333Y-79995157D02*
X74607677Y-80197188D01*
X74607677Y-80197188D02*
X75348455Y-80937966D01*
D12*
X133863220Y-67569819D02*
X133863220Y-66569819D01*
X133863220Y-66569819D02*
X133625125Y-66569819D01*
X133625125Y-66569819D02*
X133482268Y-66617438D01*
X133482268Y-66617438D02*
X133387030Y-66712676D01*
X133387030Y-66712676D02*
X133339411Y-66807914D01*
X133339411Y-66807914D02*
X133291792Y-66998390D01*
X133291792Y-66998390D02*
X133291792Y-67141247D01*
X133291792Y-67141247D02*
X133339411Y-67331723D01*
X133339411Y-67331723D02*
X133387030Y-67426961D01*
X133387030Y-67426961D02*
X133482268Y-67522200D01*
X133482268Y-67522200D02*
X133625125Y-67569819D01*
X133625125Y-67569819D02*
X133863220Y-67569819D01*
X124587030Y-66569819D02*
X125063220Y-66569819D01*
X125063220Y-66569819D02*
X125110839Y-67046009D01*
X125110839Y-67046009D02*
X125063220Y-66998390D01*
X125063220Y-66998390D02*
X124967982Y-66950771D01*
X124967982Y-66950771D02*
X124729887Y-66950771D01*
X124729887Y-66950771D02*
X124634649Y-66998390D01*
X124634649Y-66998390D02*
X124587030Y-67046009D01*
X124587030Y-67046009D02*
X124539411Y-67141247D01*
X124539411Y-67141247D02*
X124539411Y-67379342D01*
X124539411Y-67379342D02*
X124587030Y-67474580D01*
X124587030Y-67474580D02*
X124634649Y-67522200D01*
X124634649Y-67522200D02*
X124729887Y-67569819D01*
X124729887Y-67569819D02*
X124967982Y-67569819D01*
X124967982Y-67569819D02*
X125063220Y-67522200D01*
X125063220Y-67522200D02*
X125110839Y-67474580D01*
X118691792Y-67474580D02*
X118739411Y-67522200D01*
X118739411Y-67522200D02*
X118882268Y-67569819D01*
X118882268Y-67569819D02*
X118977506Y-67569819D01*
X118977506Y-67569819D02*
X119120363Y-67522200D01*
X119120363Y-67522200D02*
X119215601Y-67426961D01*
X119215601Y-67426961D02*
X119263220Y-67331723D01*
X119263220Y-67331723D02*
X119310839Y-67141247D01*
X119310839Y-67141247D02*
X119310839Y-66998390D01*
X119310839Y-66998390D02*
X119263220Y-66807914D01*
X119263220Y-66807914D02*
X119215601Y-66712676D01*
X119215601Y-66712676D02*
X119120363Y-66617438D01*
X119120363Y-66617438D02*
X118977506Y-66569819D01*
X118977506Y-66569819D02*
X118882268Y-66569819D01*
X118882268Y-66569819D02*
X118739411Y-66617438D01*
X118739411Y-66617438D02*
X118691792Y-66665057D01*
X82105953Y-76769235D02*
X81769236Y-77105953D01*
X82375327Y-76903922D02*
X81432518Y-76432518D01*
X81432518Y-76432518D02*
X81903923Y-77375327D01*
X83553838Y-75186664D02*
X83015090Y-75725412D01*
X80725411Y-78015091D02*
X80186663Y-78553839D01*
X80725411Y-78553839D02*
X80186663Y-78015091D01*
X76547155Y-81819742D02*
X76479812Y-81954429D01*
X76479812Y-81954429D02*
X76479812Y-82021773D01*
X76479812Y-82021773D02*
X76513483Y-82122788D01*
X76513483Y-82122788D02*
X76614499Y-82223804D01*
X76614499Y-82223804D02*
X76715514Y-82257475D01*
X76715514Y-82257475D02*
X76782857Y-82257475D01*
X76782857Y-82257475D02*
X76883873Y-82223804D01*
X76883873Y-82223804D02*
X77153247Y-81954429D01*
X77153247Y-81954429D02*
X76446140Y-81247323D01*
X76446140Y-81247323D02*
X76210438Y-81483025D01*
X76210438Y-81483025D02*
X76176766Y-81584040D01*
X76176766Y-81584040D02*
X76176766Y-81651384D01*
X76176766Y-81651384D02*
X76210438Y-81752399D01*
X76210438Y-81752399D02*
X76277781Y-81819742D01*
X76277781Y-81819742D02*
X76378796Y-81853414D01*
X76378796Y-81853414D02*
X76446140Y-81853414D01*
X76446140Y-81853414D02*
X76547155Y-81819742D01*
X76547155Y-81819742D02*
X76782857Y-81584040D01*
X78382265Y-80186664D02*
X77843517Y-80725412D01*
X75553838Y-83015091D02*
X75015090Y-83553839D01*
X75553838Y-83553839D02*
X75015090Y-83015091D01*
X131795180Y-136190476D02*
X131795180Y-136666666D01*
X131795180Y-136666666D02*
X131318990Y-136714285D01*
X131318990Y-136714285D02*
X131366609Y-136666666D01*
X131366609Y-136666666D02*
X131414228Y-136571428D01*
X131414228Y-136571428D02*
X131414228Y-136333333D01*
X131414228Y-136333333D02*
X131366609Y-136238095D01*
X131366609Y-136238095D02*
X131318990Y-136190476D01*
X131318990Y-136190476D02*
X131223752Y-136142857D01*
X131223752Y-136142857D02*
X130985657Y-136142857D01*
X130985657Y-136142857D02*
X130890419Y-136190476D01*
X130890419Y-136190476D02*
X130842800Y-136238095D01*
X130842800Y-136238095D02*
X130795180Y-136333333D01*
X130795180Y-136333333D02*
X130795180Y-136571428D01*
X130795180Y-136571428D02*
X130842800Y-136666666D01*
X130842800Y-136666666D02*
X130890419Y-136714285D01*
X131795180Y-135857142D02*
X130795180Y-135523809D01*
X130795180Y-135523809D02*
X131795180Y-135190476D01*
X137795180Y-136738094D02*
X137795180Y-136119047D01*
X137795180Y-136119047D02*
X137414228Y-136452380D01*
X137414228Y-136452380D02*
X137414228Y-136309523D01*
X137414228Y-136309523D02*
X137366609Y-136214285D01*
X137366609Y-136214285D02*
X137318990Y-136166666D01*
X137318990Y-136166666D02*
X137223752Y-136119047D01*
X137223752Y-136119047D02*
X136985657Y-136119047D01*
X136985657Y-136119047D02*
X136890419Y-136166666D01*
X136890419Y-136166666D02*
X136842800Y-136214285D01*
X136842800Y-136214285D02*
X136795180Y-136309523D01*
X136795180Y-136309523D02*
X136795180Y-136595237D01*
X136795180Y-136595237D02*
X136842800Y-136690475D01*
X136842800Y-136690475D02*
X136890419Y-136738094D01*
X137795180Y-135833332D02*
X136795180Y-135499999D01*
X136795180Y-135499999D02*
X137795180Y-135166666D01*
X137795180Y-134928570D02*
X137795180Y-134309523D01*
X137795180Y-134309523D02*
X137414228Y-134642856D01*
X137414228Y-134642856D02*
X137414228Y-134499999D01*
X137414228Y-134499999D02*
X137366609Y-134404761D01*
X137366609Y-134404761D02*
X137318990Y-134357142D01*
X137318990Y-134357142D02*
X137223752Y-134309523D01*
X137223752Y-134309523D02*
X136985657Y-134309523D01*
X136985657Y-134309523D02*
X136890419Y-134357142D01*
X136890419Y-134357142D02*
X136842800Y-134404761D01*
X136842800Y-134404761D02*
X136795180Y-134499999D01*
X136795180Y-134499999D02*
X136795180Y-134785713D01*
X136795180Y-134785713D02*
X136842800Y-134880951D01*
X136842800Y-134880951D02*
X136890419Y-134928570D01*
X134747561Y-136011904D02*
X134795180Y-136107142D01*
X134795180Y-136107142D02*
X134795180Y-136249999D01*
X134795180Y-136249999D02*
X134747561Y-136392856D01*
X134747561Y-136392856D02*
X134652323Y-136488094D01*
X134652323Y-136488094D02*
X134557085Y-136535713D01*
X134557085Y-136535713D02*
X134366609Y-136583332D01*
X134366609Y-136583332D02*
X134223752Y-136583332D01*
X134223752Y-136583332D02*
X134033276Y-136535713D01*
X134033276Y-136535713D02*
X133938038Y-136488094D01*
X133938038Y-136488094D02*
X133842800Y-136392856D01*
X133842800Y-136392856D02*
X133795180Y-136249999D01*
X133795180Y-136249999D02*
X133795180Y-136154761D01*
X133795180Y-136154761D02*
X133842800Y-136011904D01*
X133842800Y-136011904D02*
X133890419Y-135964285D01*
X133890419Y-135964285D02*
X134223752Y-135964285D01*
X134223752Y-135964285D02*
X134223752Y-136154761D01*
X133795180Y-135535713D02*
X134795180Y-135535713D01*
X134795180Y-135535713D02*
X133795180Y-134964285D01*
X133795180Y-134964285D02*
X134795180Y-134964285D01*
X133795180Y-134488094D02*
X134795180Y-134488094D01*
X134795180Y-134488094D02*
X134795180Y-134249999D01*
X134795180Y-134249999D02*
X134747561Y-134107142D01*
X134747561Y-134107142D02*
X134652323Y-134011904D01*
X134652323Y-134011904D02*
X134557085Y-133964285D01*
X134557085Y-133964285D02*
X134366609Y-133916666D01*
X134366609Y-133916666D02*
X134223752Y-133916666D01*
X134223752Y-133916666D02*
X134033276Y-133964285D01*
X134033276Y-133964285D02*
X133938038Y-134011904D01*
X133938038Y-134011904D02*
X133842800Y-134107142D01*
X133842800Y-134107142D02*
X133795180Y-134249999D01*
X133795180Y-134249999D02*
X133795180Y-134488094D01*
X93214285Y-64657200D02*
X93071428Y-64704819D01*
X93071428Y-64704819D02*
X92833333Y-64704819D01*
X92833333Y-64704819D02*
X92738095Y-64657200D01*
X92738095Y-64657200D02*
X92690476Y-64609580D01*
X92690476Y-64609580D02*
X92642857Y-64514342D01*
X92642857Y-64514342D02*
X92642857Y-64419104D01*
X92642857Y-64419104D02*
X92690476Y-64323866D01*
X92690476Y-64323866D02*
X92738095Y-64276247D01*
X92738095Y-64276247D02*
X92833333Y-64228628D01*
X92833333Y-64228628D02*
X93023809Y-64181009D01*
X93023809Y-64181009D02*
X93119047Y-64133390D01*
X93119047Y-64133390D02*
X93166666Y-64085771D01*
X93166666Y-64085771D02*
X93214285Y-63990533D01*
X93214285Y-63990533D02*
X93214285Y-63895295D01*
X93214285Y-63895295D02*
X93166666Y-63800057D01*
X93166666Y-63800057D02*
X93119047Y-63752438D01*
X93119047Y-63752438D02*
X93023809Y-63704819D01*
X93023809Y-63704819D02*
X92785714Y-63704819D01*
X92785714Y-63704819D02*
X92642857Y-63752438D01*
X92214285Y-64704819D02*
X92214285Y-63704819D01*
X92214285Y-63704819D02*
X91976190Y-63704819D01*
X91976190Y-63704819D02*
X91833333Y-63752438D01*
X91833333Y-63752438D02*
X91738095Y-63847676D01*
X91738095Y-63847676D02*
X91690476Y-63942914D01*
X91690476Y-63942914D02*
X91642857Y-64133390D01*
X91642857Y-64133390D02*
X91642857Y-64276247D01*
X91642857Y-64276247D02*
X91690476Y-64466723D01*
X91690476Y-64466723D02*
X91738095Y-64561961D01*
X91738095Y-64561961D02*
X91833333Y-64657200D01*
X91833333Y-64657200D02*
X91976190Y-64704819D01*
X91976190Y-64704819D02*
X92214285Y-64704819D01*
X91261904Y-64419104D02*
X90785714Y-64419104D01*
X91357142Y-64704819D02*
X91023809Y-63704819D01*
X91023809Y-63704819D02*
X90690476Y-64704819D01*
X89190475Y-64657200D02*
X89047618Y-64704819D01*
X89047618Y-64704819D02*
X88809523Y-64704819D01*
X88809523Y-64704819D02*
X88714285Y-64657200D01*
X88714285Y-64657200D02*
X88666666Y-64609580D01*
X88666666Y-64609580D02*
X88619047Y-64514342D01*
X88619047Y-64514342D02*
X88619047Y-64419104D01*
X88619047Y-64419104D02*
X88666666Y-64323866D01*
X88666666Y-64323866D02*
X88714285Y-64276247D01*
X88714285Y-64276247D02*
X88809523Y-64228628D01*
X88809523Y-64228628D02*
X88999999Y-64181009D01*
X88999999Y-64181009D02*
X89095237Y-64133390D01*
X89095237Y-64133390D02*
X89142856Y-64085771D01*
X89142856Y-64085771D02*
X89190475Y-63990533D01*
X89190475Y-63990533D02*
X89190475Y-63895295D01*
X89190475Y-63895295D02*
X89142856Y-63800057D01*
X89142856Y-63800057D02*
X89095237Y-63752438D01*
X89095237Y-63752438D02*
X88999999Y-63704819D01*
X88999999Y-63704819D02*
X88761904Y-63704819D01*
X88761904Y-63704819D02*
X88619047Y-63752438D01*
X87619047Y-64609580D02*
X87666666Y-64657200D01*
X87666666Y-64657200D02*
X87809523Y-64704819D01*
X87809523Y-64704819D02*
X87904761Y-64704819D01*
X87904761Y-64704819D02*
X88047618Y-64657200D01*
X88047618Y-64657200D02*
X88142856Y-64561961D01*
X88142856Y-64561961D02*
X88190475Y-64466723D01*
X88190475Y-64466723D02*
X88238094Y-64276247D01*
X88238094Y-64276247D02*
X88238094Y-64133390D01*
X88238094Y-64133390D02*
X88190475Y-63942914D01*
X88190475Y-63942914D02*
X88142856Y-63847676D01*
X88142856Y-63847676D02*
X88047618Y-63752438D01*
X88047618Y-63752438D02*
X87904761Y-63704819D01*
X87904761Y-63704819D02*
X87809523Y-63704819D01*
X87809523Y-63704819D02*
X87666666Y-63752438D01*
X87666666Y-63752438D02*
X87619047Y-63800057D01*
X86714285Y-64704819D02*
X87190475Y-64704819D01*
X87190475Y-64704819D02*
X87190475Y-63704819D01*
X125035713Y-117454819D02*
X125035713Y-118264342D01*
X125035713Y-118264342D02*
X124988094Y-118359580D01*
X124988094Y-118359580D02*
X124940475Y-118407200D01*
X124940475Y-118407200D02*
X124845237Y-118454819D01*
X124845237Y-118454819D02*
X124654761Y-118454819D01*
X124654761Y-118454819D02*
X124559523Y-118407200D01*
X124559523Y-118407200D02*
X124511904Y-118359580D01*
X124511904Y-118359580D02*
X124464285Y-118264342D01*
X124464285Y-118264342D02*
X124464285Y-117454819D01*
X122333332Y-119954819D02*
X121999999Y-120954819D01*
X121999999Y-120954819D02*
X121666666Y-119954819D01*
X119928570Y-122704819D02*
X119690475Y-123704819D01*
X119690475Y-123704819D02*
X119499999Y-122990533D01*
X119499999Y-122990533D02*
X119309523Y-123704819D01*
X119309523Y-123704819D02*
X119071428Y-122704819D01*
X64940476Y-104859580D02*
X64988095Y-104907200D01*
X64988095Y-104907200D02*
X65130952Y-104954819D01*
X65130952Y-104954819D02*
X65226190Y-104954819D01*
X65226190Y-104954819D02*
X65369047Y-104907200D01*
X65369047Y-104907200D02*
X65464285Y-104811961D01*
X65464285Y-104811961D02*
X65511904Y-104716723D01*
X65511904Y-104716723D02*
X65559523Y-104526247D01*
X65559523Y-104526247D02*
X65559523Y-104383390D01*
X65559523Y-104383390D02*
X65511904Y-104192914D01*
X65511904Y-104192914D02*
X65464285Y-104097676D01*
X65464285Y-104097676D02*
X65369047Y-104002438D01*
X65369047Y-104002438D02*
X65226190Y-103954819D01*
X65226190Y-103954819D02*
X65130952Y-103954819D01*
X65130952Y-103954819D02*
X64988095Y-104002438D01*
X64988095Y-104002438D02*
X64940476Y-104050057D01*
X64559523Y-104907200D02*
X64416666Y-104954819D01*
X64416666Y-104954819D02*
X64178571Y-104954819D01*
X64178571Y-104954819D02*
X64083333Y-104907200D01*
X64083333Y-104907200D02*
X64035714Y-104859580D01*
X64035714Y-104859580D02*
X63988095Y-104764342D01*
X63988095Y-104764342D02*
X63988095Y-104669104D01*
X63988095Y-104669104D02*
X64035714Y-104573866D01*
X64035714Y-104573866D02*
X64083333Y-104526247D01*
X64083333Y-104526247D02*
X64178571Y-104478628D01*
X64178571Y-104478628D02*
X64369047Y-104431009D01*
X64369047Y-104431009D02*
X64464285Y-104383390D01*
X64464285Y-104383390D02*
X64511904Y-104335771D01*
X64511904Y-104335771D02*
X64559523Y-104240533D01*
X64559523Y-104240533D02*
X64559523Y-104145295D01*
X64559523Y-104145295D02*
X64511904Y-104050057D01*
X64511904Y-104050057D02*
X64464285Y-104002438D01*
X64464285Y-104002438D02*
X64369047Y-103954819D01*
X64369047Y-103954819D02*
X64130952Y-103954819D01*
X64130952Y-103954819D02*
X63988095Y-104002438D01*
X63559523Y-104954819D02*
X63559523Y-103954819D01*
X63559523Y-103954819D02*
X62988095Y-104954819D01*
X62988095Y-104954819D02*
X62988095Y-103954819D01*
X65535713Y-112954819D02*
X65535713Y-111954819D01*
X65535713Y-111954819D02*
X65297618Y-111954819D01*
X65297618Y-111954819D02*
X65154761Y-112002438D01*
X65154761Y-112002438D02*
X65059523Y-112097676D01*
X65059523Y-112097676D02*
X65011904Y-112192914D01*
X65011904Y-112192914D02*
X64964285Y-112383390D01*
X64964285Y-112383390D02*
X64964285Y-112526247D01*
X64964285Y-112526247D02*
X65011904Y-112716723D01*
X65011904Y-112716723D02*
X65059523Y-112811961D01*
X65059523Y-112811961D02*
X65154761Y-112907200D01*
X65154761Y-112907200D02*
X65297618Y-112954819D01*
X65297618Y-112954819D02*
X65535713Y-112954819D01*
X64345237Y-111954819D02*
X64154761Y-111954819D01*
X64154761Y-111954819D02*
X64059523Y-112002438D01*
X64059523Y-112002438D02*
X63964285Y-112097676D01*
X63964285Y-112097676D02*
X63916666Y-112288152D01*
X63916666Y-112288152D02*
X63916666Y-112621485D01*
X63916666Y-112621485D02*
X63964285Y-112811961D01*
X63964285Y-112811961D02*
X64059523Y-112907200D01*
X64059523Y-112907200D02*
X64154761Y-112954819D01*
X64154761Y-112954819D02*
X64345237Y-112954819D01*
X64345237Y-112954819D02*
X64440475Y-112907200D01*
X64440475Y-112907200D02*
X64535713Y-112811961D01*
X64535713Y-112811961D02*
X64583332Y-112621485D01*
X64583332Y-112621485D02*
X64583332Y-112288152D01*
X64583332Y-112288152D02*
X64535713Y-112097676D01*
X64535713Y-112097676D02*
X64440475Y-112002438D01*
X64440475Y-112002438D02*
X64345237Y-111954819D01*
X84392857Y-136454819D02*
X84869047Y-136454819D01*
X84869047Y-136454819D02*
X84869047Y-135454819D01*
X84059523Y-135931009D02*
X83726190Y-135931009D01*
X83583333Y-136454819D02*
X84059523Y-136454819D01*
X84059523Y-136454819D02*
X84059523Y-135454819D01*
X84059523Y-135454819D02*
X83583333Y-135454819D01*
X83154761Y-136454819D02*
X83154761Y-135454819D01*
X83154761Y-135454819D02*
X82916666Y-135454819D01*
X82916666Y-135454819D02*
X82773809Y-135502438D01*
X82773809Y-135502438D02*
X82678571Y-135597676D01*
X82678571Y-135597676D02*
X82630952Y-135692914D01*
X82630952Y-135692914D02*
X82583333Y-135883390D01*
X82583333Y-135883390D02*
X82583333Y-136026247D01*
X82583333Y-136026247D02*
X82630952Y-136216723D01*
X82630952Y-136216723D02*
X82678571Y-136311961D01*
X82678571Y-136311961D02*
X82773809Y-136407200D01*
X82773809Y-136407200D02*
X82916666Y-136454819D01*
X82916666Y-136454819D02*
X83154761Y-136454819D01*
X64845238Y-108859580D02*
X64892857Y-108907200D01*
X64892857Y-108907200D02*
X65035714Y-108954819D01*
X65035714Y-108954819D02*
X65130952Y-108954819D01*
X65130952Y-108954819D02*
X65273809Y-108907200D01*
X65273809Y-108907200D02*
X65369047Y-108811961D01*
X65369047Y-108811961D02*
X65416666Y-108716723D01*
X65416666Y-108716723D02*
X65464285Y-108526247D01*
X65464285Y-108526247D02*
X65464285Y-108383390D01*
X65464285Y-108383390D02*
X65416666Y-108192914D01*
X65416666Y-108192914D02*
X65369047Y-108097676D01*
X65369047Y-108097676D02*
X65273809Y-108002438D01*
X65273809Y-108002438D02*
X65130952Y-107954819D01*
X65130952Y-107954819D02*
X65035714Y-107954819D01*
X65035714Y-107954819D02*
X64892857Y-108002438D01*
X64892857Y-108002438D02*
X64845238Y-108050057D01*
X63940476Y-108954819D02*
X64416666Y-108954819D01*
X64416666Y-108954819D02*
X64416666Y-107954819D01*
X63607142Y-108954819D02*
X63607142Y-107954819D01*
X63035714Y-108954819D02*
X63464285Y-108383390D01*
X63035714Y-107954819D02*
X63607142Y-108526247D01*
X68511904Y-135454819D02*
X67940476Y-135454819D01*
X68226190Y-136454819D02*
X68226190Y-135454819D01*
X67702380Y-135454819D02*
X67035714Y-136454819D01*
X67035714Y-135454819D02*
X67702380Y-136454819D01*
X71916666Y-136454819D02*
X72249999Y-135978628D01*
X72488094Y-136454819D02*
X72488094Y-135454819D01*
X72488094Y-135454819D02*
X72107142Y-135454819D01*
X72107142Y-135454819D02*
X72011904Y-135502438D01*
X72011904Y-135502438D02*
X71964285Y-135550057D01*
X71964285Y-135550057D02*
X71916666Y-135645295D01*
X71916666Y-135645295D02*
X71916666Y-135788152D01*
X71916666Y-135788152D02*
X71964285Y-135883390D01*
X71964285Y-135883390D02*
X72011904Y-135931009D01*
X72011904Y-135931009D02*
X72107142Y-135978628D01*
X72107142Y-135978628D02*
X72488094Y-135978628D01*
X71583332Y-135454819D02*
X70916666Y-136454819D01*
X70916666Y-135454819D02*
X71583332Y-136454819D01*
X115795180Y-136726189D02*
X116795180Y-136726189D01*
X116795180Y-136059523D02*
X116795180Y-135869047D01*
X116795180Y-135869047D02*
X116747561Y-135773809D01*
X116747561Y-135773809D02*
X116652323Y-135678571D01*
X116652323Y-135678571D02*
X116461847Y-135630952D01*
X116461847Y-135630952D02*
X116128514Y-135630952D01*
X116128514Y-135630952D02*
X115938038Y-135678571D01*
X115938038Y-135678571D02*
X115842800Y-135773809D01*
X115842800Y-135773809D02*
X115795180Y-135869047D01*
X115795180Y-135869047D02*
X115795180Y-136059523D01*
X115795180Y-136059523D02*
X115842800Y-136154761D01*
X115842800Y-136154761D02*
X115938038Y-136249999D01*
X115938038Y-136249999D02*
X116128514Y-136297618D01*
X116128514Y-136297618D02*
X116461847Y-136297618D01*
X116461847Y-136297618D02*
X116652323Y-136249999D01*
X116652323Y-136249999D02*
X116747561Y-136154761D01*
X116747561Y-136154761D02*
X116795180Y-136059523D01*
X116461847Y-134773809D02*
X115795180Y-134773809D01*
X116842800Y-135011904D02*
X116128514Y-135249999D01*
X116128514Y-135249999D02*
X116128514Y-134630952D01*
X116795180Y-134059523D02*
X116795180Y-133964285D01*
X116795180Y-133964285D02*
X116747561Y-133869047D01*
X116747561Y-133869047D02*
X116699942Y-133821428D01*
X116699942Y-133821428D02*
X116604704Y-133773809D01*
X116604704Y-133773809D02*
X116414228Y-133726190D01*
X116414228Y-133726190D02*
X116176133Y-133726190D01*
X116176133Y-133726190D02*
X115985657Y-133773809D01*
X115985657Y-133773809D02*
X115890419Y-133821428D01*
X115890419Y-133821428D02*
X115842800Y-133869047D01*
X115842800Y-133869047D02*
X115795180Y-133964285D01*
X115795180Y-133964285D02*
X115795180Y-134059523D01*
X115795180Y-134059523D02*
X115842800Y-134154761D01*
X115842800Y-134154761D02*
X115890419Y-134202380D01*
X115890419Y-134202380D02*
X115985657Y-134249999D01*
X115985657Y-134249999D02*
X116176133Y-134297618D01*
X116176133Y-134297618D02*
X116414228Y-134297618D01*
X116414228Y-134297618D02*
X116604704Y-134249999D01*
X116604704Y-134249999D02*
X116699942Y-134202380D01*
X116699942Y-134202380D02*
X116747561Y-134154761D01*
X116747561Y-134154761D02*
X116795180Y-134059523D01*
X80488094Y-135931009D02*
X80154761Y-135931009D01*
X80011904Y-136454819D02*
X80488094Y-136454819D01*
X80488094Y-136454819D02*
X80488094Y-135454819D01*
X80488094Y-135454819D02*
X80011904Y-135454819D01*
X79583332Y-136454819D02*
X79583332Y-135454819D01*
X79583332Y-135454819D02*
X79011904Y-136454819D01*
X79011904Y-136454819D02*
X79011904Y-135454819D01*
X109795180Y-136726189D02*
X110795180Y-136726189D01*
X110795180Y-136059523D02*
X110795180Y-135869047D01*
X110795180Y-135869047D02*
X110747561Y-135773809D01*
X110747561Y-135773809D02*
X110652323Y-135678571D01*
X110652323Y-135678571D02*
X110461847Y-135630952D01*
X110461847Y-135630952D02*
X110128514Y-135630952D01*
X110128514Y-135630952D02*
X109938038Y-135678571D01*
X109938038Y-135678571D02*
X109842800Y-135773809D01*
X109842800Y-135773809D02*
X109795180Y-135869047D01*
X109795180Y-135869047D02*
X109795180Y-136059523D01*
X109795180Y-136059523D02*
X109842800Y-136154761D01*
X109842800Y-136154761D02*
X109938038Y-136249999D01*
X109938038Y-136249999D02*
X110128514Y-136297618D01*
X110128514Y-136297618D02*
X110461847Y-136297618D01*
X110461847Y-136297618D02*
X110652323Y-136249999D01*
X110652323Y-136249999D02*
X110747561Y-136154761D01*
X110747561Y-136154761D02*
X110795180Y-136059523D01*
X110461847Y-134773809D02*
X109795180Y-134773809D01*
X110842800Y-135011904D02*
X110128514Y-135249999D01*
X110128514Y-135249999D02*
X110128514Y-134630952D01*
X110699942Y-134297618D02*
X110747561Y-134249999D01*
X110747561Y-134249999D02*
X110795180Y-134154761D01*
X110795180Y-134154761D02*
X110795180Y-133916666D01*
X110795180Y-133916666D02*
X110747561Y-133821428D01*
X110747561Y-133821428D02*
X110699942Y-133773809D01*
X110699942Y-133773809D02*
X110604704Y-133726190D01*
X110604704Y-133726190D02*
X110509466Y-133726190D01*
X110509466Y-133726190D02*
X110366609Y-133773809D01*
X110366609Y-133773809D02*
X109795180Y-134345237D01*
X109795180Y-134345237D02*
X109795180Y-133726190D01*
X124795180Y-136726189D02*
X125795180Y-136726189D01*
X125795180Y-136059523D02*
X125795180Y-135869047D01*
X125795180Y-135869047D02*
X125747561Y-135773809D01*
X125747561Y-135773809D02*
X125652323Y-135678571D01*
X125652323Y-135678571D02*
X125461847Y-135630952D01*
X125461847Y-135630952D02*
X125128514Y-135630952D01*
X125128514Y-135630952D02*
X124938038Y-135678571D01*
X124938038Y-135678571D02*
X124842800Y-135773809D01*
X124842800Y-135773809D02*
X124795180Y-135869047D01*
X124795180Y-135869047D02*
X124795180Y-136059523D01*
X124795180Y-136059523D02*
X124842800Y-136154761D01*
X124842800Y-136154761D02*
X124938038Y-136249999D01*
X124938038Y-136249999D02*
X125128514Y-136297618D01*
X125128514Y-136297618D02*
X125461847Y-136297618D01*
X125461847Y-136297618D02*
X125652323Y-136249999D01*
X125652323Y-136249999D02*
X125747561Y-136154761D01*
X125747561Y-136154761D02*
X125795180Y-136059523D01*
X125461847Y-134773809D02*
X124795180Y-134773809D01*
X125842800Y-135011904D02*
X125128514Y-135249999D01*
X125128514Y-135249999D02*
X125128514Y-134630952D01*
X125795180Y-134345237D02*
X125795180Y-133678571D01*
X125795180Y-133678571D02*
X124795180Y-134107142D01*
X121795180Y-136726189D02*
X122795180Y-136726189D01*
X122795180Y-136059523D02*
X122795180Y-135869047D01*
X122795180Y-135869047D02*
X122747561Y-135773809D01*
X122747561Y-135773809D02*
X122652323Y-135678571D01*
X122652323Y-135678571D02*
X122461847Y-135630952D01*
X122461847Y-135630952D02*
X122128514Y-135630952D01*
X122128514Y-135630952D02*
X121938038Y-135678571D01*
X121938038Y-135678571D02*
X121842800Y-135773809D01*
X121842800Y-135773809D02*
X121795180Y-135869047D01*
X121795180Y-135869047D02*
X121795180Y-136059523D01*
X121795180Y-136059523D02*
X121842800Y-136154761D01*
X121842800Y-136154761D02*
X121938038Y-136249999D01*
X121938038Y-136249999D02*
X122128514Y-136297618D01*
X122128514Y-136297618D02*
X122461847Y-136297618D01*
X122461847Y-136297618D02*
X122652323Y-136249999D01*
X122652323Y-136249999D02*
X122747561Y-136154761D01*
X122747561Y-136154761D02*
X122795180Y-136059523D01*
X122461847Y-134773809D02*
X121795180Y-134773809D01*
X122842800Y-135011904D02*
X122128514Y-135249999D01*
X122128514Y-135249999D02*
X122128514Y-134630952D01*
X122366609Y-134107142D02*
X122414228Y-134202380D01*
X122414228Y-134202380D02*
X122461847Y-134249999D01*
X122461847Y-134249999D02*
X122557085Y-134297618D01*
X122557085Y-134297618D02*
X122604704Y-134297618D01*
X122604704Y-134297618D02*
X122699942Y-134249999D01*
X122699942Y-134249999D02*
X122747561Y-134202380D01*
X122747561Y-134202380D02*
X122795180Y-134107142D01*
X122795180Y-134107142D02*
X122795180Y-133916666D01*
X122795180Y-133916666D02*
X122747561Y-133821428D01*
X122747561Y-133821428D02*
X122699942Y-133773809D01*
X122699942Y-133773809D02*
X122604704Y-133726190D01*
X122604704Y-133726190D02*
X122557085Y-133726190D01*
X122557085Y-133726190D02*
X122461847Y-133773809D01*
X122461847Y-133773809D02*
X122414228Y-133821428D01*
X122414228Y-133821428D02*
X122366609Y-133916666D01*
X122366609Y-133916666D02*
X122366609Y-134107142D01*
X122366609Y-134107142D02*
X122318990Y-134202380D01*
X122318990Y-134202380D02*
X122271371Y-134249999D01*
X122271371Y-134249999D02*
X122176133Y-134297618D01*
X122176133Y-134297618D02*
X121985657Y-134297618D01*
X121985657Y-134297618D02*
X121890419Y-134249999D01*
X121890419Y-134249999D02*
X121842800Y-134202380D01*
X121842800Y-134202380D02*
X121795180Y-134107142D01*
X121795180Y-134107142D02*
X121795180Y-133916666D01*
X121795180Y-133916666D02*
X121842800Y-133821428D01*
X121842800Y-133821428D02*
X121890419Y-133773809D01*
X121890419Y-133773809D02*
X121985657Y-133726190D01*
X121985657Y-133726190D02*
X122176133Y-133726190D01*
X122176133Y-133726190D02*
X122271371Y-133773809D01*
X122271371Y-133773809D02*
X122318990Y-133821428D01*
X122318990Y-133821428D02*
X122366609Y-133916666D01*
X77207142Y-135931009D02*
X77064285Y-135978628D01*
X77064285Y-135978628D02*
X77016666Y-136026247D01*
X77016666Y-136026247D02*
X76969047Y-136121485D01*
X76969047Y-136121485D02*
X76969047Y-136264342D01*
X76969047Y-136264342D02*
X77016666Y-136359580D01*
X77016666Y-136359580D02*
X77064285Y-136407200D01*
X77064285Y-136407200D02*
X77159523Y-136454819D01*
X77159523Y-136454819D02*
X77540475Y-136454819D01*
X77540475Y-136454819D02*
X77540475Y-135454819D01*
X77540475Y-135454819D02*
X77207142Y-135454819D01*
X77207142Y-135454819D02*
X77111904Y-135502438D01*
X77111904Y-135502438D02*
X77064285Y-135550057D01*
X77064285Y-135550057D02*
X77016666Y-135645295D01*
X77016666Y-135645295D02*
X77016666Y-135740533D01*
X77016666Y-135740533D02*
X77064285Y-135835771D01*
X77064285Y-135835771D02*
X77111904Y-135883390D01*
X77111904Y-135883390D02*
X77207142Y-135931009D01*
X77207142Y-135931009D02*
X77540475Y-135931009D01*
X76349999Y-135454819D02*
X76159523Y-135454819D01*
X76159523Y-135454819D02*
X76064285Y-135502438D01*
X76064285Y-135502438D02*
X75969047Y-135597676D01*
X75969047Y-135597676D02*
X75921428Y-135788152D01*
X75921428Y-135788152D02*
X75921428Y-136121485D01*
X75921428Y-136121485D02*
X75969047Y-136311961D01*
X75969047Y-136311961D02*
X76064285Y-136407200D01*
X76064285Y-136407200D02*
X76159523Y-136454819D01*
X76159523Y-136454819D02*
X76349999Y-136454819D01*
X76349999Y-136454819D02*
X76445237Y-136407200D01*
X76445237Y-136407200D02*
X76540475Y-136311961D01*
X76540475Y-136311961D02*
X76588094Y-136121485D01*
X76588094Y-136121485D02*
X76588094Y-135788152D01*
X76588094Y-135788152D02*
X76540475Y-135597676D01*
X76540475Y-135597676D02*
X76445237Y-135502438D01*
X76445237Y-135502438D02*
X76349999Y-135454819D01*
X75302380Y-135454819D02*
X75111904Y-135454819D01*
X75111904Y-135454819D02*
X75016666Y-135502438D01*
X75016666Y-135502438D02*
X74921428Y-135597676D01*
X74921428Y-135597676D02*
X74873809Y-135788152D01*
X74873809Y-135788152D02*
X74873809Y-136121485D01*
X74873809Y-136121485D02*
X74921428Y-136311961D01*
X74921428Y-136311961D02*
X75016666Y-136407200D01*
X75016666Y-136407200D02*
X75111904Y-136454819D01*
X75111904Y-136454819D02*
X75302380Y-136454819D01*
X75302380Y-136454819D02*
X75397618Y-136407200D01*
X75397618Y-136407200D02*
X75492856Y-136311961D01*
X75492856Y-136311961D02*
X75540475Y-136121485D01*
X75540475Y-136121485D02*
X75540475Y-135788152D01*
X75540475Y-135788152D02*
X75492856Y-135597676D01*
X75492856Y-135597676D02*
X75397618Y-135502438D01*
X75397618Y-135502438D02*
X75302380Y-135454819D01*
X74588094Y-135454819D02*
X74016666Y-135454819D01*
X74302380Y-136454819D02*
X74302380Y-135454819D01*
X112795180Y-136726189D02*
X113795180Y-136726189D01*
X113795180Y-136059523D02*
X113795180Y-135869047D01*
X113795180Y-135869047D02*
X113747561Y-135773809D01*
X113747561Y-135773809D02*
X113652323Y-135678571D01*
X113652323Y-135678571D02*
X113461847Y-135630952D01*
X113461847Y-135630952D02*
X113128514Y-135630952D01*
X113128514Y-135630952D02*
X112938038Y-135678571D01*
X112938038Y-135678571D02*
X112842800Y-135773809D01*
X112842800Y-135773809D02*
X112795180Y-135869047D01*
X112795180Y-135869047D02*
X112795180Y-136059523D01*
X112795180Y-136059523D02*
X112842800Y-136154761D01*
X112842800Y-136154761D02*
X112938038Y-136249999D01*
X112938038Y-136249999D02*
X113128514Y-136297618D01*
X113128514Y-136297618D02*
X113461847Y-136297618D01*
X113461847Y-136297618D02*
X113652323Y-136249999D01*
X113652323Y-136249999D02*
X113747561Y-136154761D01*
X113747561Y-136154761D02*
X113795180Y-136059523D01*
X113461847Y-134773809D02*
X112795180Y-134773809D01*
X113842800Y-135011904D02*
X113128514Y-135249999D01*
X113128514Y-135249999D02*
X113128514Y-134630952D01*
X112795180Y-133726190D02*
X112795180Y-134297618D01*
X112795180Y-134011904D02*
X113795180Y-134011904D01*
X113795180Y-134011904D02*
X113652323Y-134107142D01*
X113652323Y-134107142D02*
X113557085Y-134202380D01*
X113557085Y-134202380D02*
X113509466Y-134297618D01*
X118795180Y-136726189D02*
X119795180Y-136726189D01*
X119795180Y-136059523D02*
X119795180Y-135869047D01*
X119795180Y-135869047D02*
X119747561Y-135773809D01*
X119747561Y-135773809D02*
X119652323Y-135678571D01*
X119652323Y-135678571D02*
X119461847Y-135630952D01*
X119461847Y-135630952D02*
X119128514Y-135630952D01*
X119128514Y-135630952D02*
X118938038Y-135678571D01*
X118938038Y-135678571D02*
X118842800Y-135773809D01*
X118842800Y-135773809D02*
X118795180Y-135869047D01*
X118795180Y-135869047D02*
X118795180Y-136059523D01*
X118795180Y-136059523D02*
X118842800Y-136154761D01*
X118842800Y-136154761D02*
X118938038Y-136249999D01*
X118938038Y-136249999D02*
X119128514Y-136297618D01*
X119128514Y-136297618D02*
X119461847Y-136297618D01*
X119461847Y-136297618D02*
X119652323Y-136249999D01*
X119652323Y-136249999D02*
X119747561Y-136154761D01*
X119747561Y-136154761D02*
X119795180Y-136059523D01*
X119461847Y-134773809D02*
X118795180Y-134773809D01*
X119842800Y-135011904D02*
X119128514Y-135249999D01*
X119128514Y-135249999D02*
X119128514Y-134630952D01*
X119795180Y-133773809D02*
X119795180Y-134249999D01*
X119795180Y-134249999D02*
X119318990Y-134297618D01*
X119318990Y-134297618D02*
X119366609Y-134249999D01*
X119366609Y-134249999D02*
X119414228Y-134154761D01*
X119414228Y-134154761D02*
X119414228Y-133916666D01*
X119414228Y-133916666D02*
X119366609Y-133821428D01*
X119366609Y-133821428D02*
X119318990Y-133773809D01*
X119318990Y-133773809D02*
X119223752Y-133726190D01*
X119223752Y-133726190D02*
X118985657Y-133726190D01*
X118985657Y-133726190D02*
X118890419Y-133773809D01*
X118890419Y-133773809D02*
X118842800Y-133821428D01*
X118842800Y-133821428D02*
X118795180Y-133916666D01*
X118795180Y-133916666D02*
X118795180Y-134154761D01*
X118795180Y-134154761D02*
X118842800Y-134249999D01*
X118842800Y-134249999D02*
X118890419Y-134297618D01*
X127795180Y-136726189D02*
X128795180Y-136726189D01*
X128795180Y-136059523D02*
X128795180Y-135869047D01*
X128795180Y-135869047D02*
X128747561Y-135773809D01*
X128747561Y-135773809D02*
X128652323Y-135678571D01*
X128652323Y-135678571D02*
X128461847Y-135630952D01*
X128461847Y-135630952D02*
X128128514Y-135630952D01*
X128128514Y-135630952D02*
X127938038Y-135678571D01*
X127938038Y-135678571D02*
X127842800Y-135773809D01*
X127842800Y-135773809D02*
X127795180Y-135869047D01*
X127795180Y-135869047D02*
X127795180Y-136059523D01*
X127795180Y-136059523D02*
X127842800Y-136154761D01*
X127842800Y-136154761D02*
X127938038Y-136249999D01*
X127938038Y-136249999D02*
X128128514Y-136297618D01*
X128128514Y-136297618D02*
X128461847Y-136297618D01*
X128461847Y-136297618D02*
X128652323Y-136249999D01*
X128652323Y-136249999D02*
X128747561Y-136154761D01*
X128747561Y-136154761D02*
X128795180Y-136059523D01*
X128461847Y-134773809D02*
X127795180Y-134773809D01*
X128842800Y-135011904D02*
X128128514Y-135249999D01*
X128128514Y-135249999D02*
X128128514Y-134630952D01*
X128795180Y-133821428D02*
X128795180Y-134011904D01*
X128795180Y-134011904D02*
X128747561Y-134107142D01*
X128747561Y-134107142D02*
X128699942Y-134154761D01*
X128699942Y-134154761D02*
X128557085Y-134249999D01*
X128557085Y-134249999D02*
X128366609Y-134297618D01*
X128366609Y-134297618D02*
X127985657Y-134297618D01*
X127985657Y-134297618D02*
X127890419Y-134249999D01*
X127890419Y-134249999D02*
X127842800Y-134202380D01*
X127842800Y-134202380D02*
X127795180Y-134107142D01*
X127795180Y-134107142D02*
X127795180Y-133916666D01*
X127795180Y-133916666D02*
X127842800Y-133821428D01*
X127842800Y-133821428D02*
X127890419Y-133773809D01*
X127890419Y-133773809D02*
X127985657Y-133726190D01*
X127985657Y-133726190D02*
X128223752Y-133726190D01*
X128223752Y-133726190D02*
X128318990Y-133773809D01*
X128318990Y-133773809D02*
X128366609Y-133821428D01*
X128366609Y-133821428D02*
X128414228Y-133916666D01*
X128414228Y-133916666D02*
X128414228Y-134107142D01*
X128414228Y-134107142D02*
X128366609Y-134202380D01*
X128366609Y-134202380D02*
X128318990Y-134249999D01*
X128318990Y-134249999D02*
X128223752Y-134297618D01*
%TO.C,J4*%
X66000000Y-118000000D02*
X66500000Y-118000000D01*
X66000000Y-118500000D02*
X66000000Y-118000000D01*
%TO.C,J2*%
X82525126Y-81767767D02*
X82171573Y-81414214D01*
X82878680Y-81414214D02*
X82525126Y-81767767D01*
%TO.C,U3*%
X103400000Y-59950000D02*
X103400000Y-61000000D01*
X102400000Y-59950000D02*
X103400000Y-59950000D01*
X96600000Y-62950000D02*
X97600000Y-62950000D01*
X96600000Y-62950000D02*
X96600000Y-61950000D01*
%TO.C,J3*%
X77353553Y-86767767D02*
X77000000Y-86414214D01*
X77707107Y-86414214D02*
X77353553Y-86767767D01*
D10*
%TO.C,R3*%
X125677064Y-101710000D02*
X121322936Y-101710000D01*
X125677064Y-98290000D02*
X121322936Y-98290000D01*
%TO.C,R7*%
X74322936Y-98290000D02*
X78677064Y-98290000D01*
X74322936Y-101710000D02*
X78677064Y-101710000D01*
%TO.C,R4*%
X117777064Y-101710000D02*
X113422936Y-101710000D01*
X117777064Y-98290000D02*
X113422936Y-98290000D01*
%TO.C,R6*%
X82222936Y-98290000D02*
X86577064Y-98290000D01*
X82222936Y-101710000D02*
X86577064Y-101710000D01*
%TD*%
%LPC*%
D14*
%TO.C,H4*%
X105125427Y-91122500D03*
%TD*%
%TO.C,H1*%
X105125427Y-108877499D03*
%TD*%
%TO.C,H2*%
X89749146Y-100000000D03*
%TD*%
D15*
%TO.C,H3*%
X70200000Y-100000000D03*
%TD*%
%TO.C,H5*%
X100000000Y-70200000D03*
%TD*%
%TO.C,H6*%
X129800000Y-100000000D03*
%TD*%
D16*
%TO.C,J1*%
X94380000Y-135000000D03*
D17*
X94380000Y-139000000D03*
D16*
X105620000Y-135000000D03*
D17*
X105620000Y-139000000D03*
%TD*%
D15*
%TO.C,H7*%
X135000000Y-100000000D03*
%TD*%
%TO.C,H8*%
X65000000Y-100000000D03*
%TD*%
D18*
%TO.C,J4*%
X67500000Y-119000000D03*
X67500000Y-121000000D03*
X67500000Y-123000000D03*
X67500000Y-125000000D03*
X67500000Y-127000000D03*
X67500000Y-129000000D03*
X67500000Y-131000000D03*
X67500000Y-133000000D03*
%TD*%
D19*
%TO.C,J2*%
X82171573Y-80000000D03*
X83585787Y-78585786D03*
X85000000Y-77171573D03*
%TD*%
D20*
%TO.C,U3*%
X101905000Y-62350000D03*
X100635000Y-62350000D03*
X99365000Y-62350000D03*
X98095000Y-62350000D03*
%TD*%
D19*
%TO.C,J3*%
X77000000Y-85000000D03*
X78414214Y-83585786D03*
X79828427Y-82171573D03*
%TD*%
D21*
%TO.C,J6*%
X112962269Y-118336513D03*
X118336280Y-112962502D03*
D22*
X116816000Y-118584000D03*
X117699883Y-117700117D03*
X118583767Y-116816233D03*
%TD*%
D23*
%TO.C,TP1*%
X131250000Y-138250000D03*
%TD*%
%TO.C,TP3*%
X137250000Y-138250000D03*
%TD*%
%TO.C,TP2*%
X134250000Y-138250000D03*
%TD*%
%TO.C,TP8*%
X92000000Y-62000000D03*
%TD*%
%TO.C,TP9*%
X88000000Y-62000000D03*
%TD*%
%TO.C,TP14*%
X123000000Y-116500000D03*
%TD*%
%TO.C,TP15*%
X120500000Y-119000000D03*
%TD*%
%TO.C,TP16*%
X118000000Y-121500000D03*
%TD*%
%TO.C,TP5*%
X67500000Y-104500000D03*
%TD*%
%TO.C,TP7*%
X67500000Y-112500000D03*
%TD*%
%TO.C,TP4*%
X83750000Y-138250000D03*
%TD*%
%TO.C,TP6*%
X67500000Y-108500000D03*
%TD*%
%TO.C,TP13*%
X67750000Y-138250000D03*
%TD*%
%TO.C,TP12*%
X71750000Y-138250000D03*
%TD*%
D24*
%TO.C,R3*%
X126462500Y-100000000D03*
X120537500Y-100000000D03*
%TD*%
D25*
%TO.C,SW1*%
X80825000Y-134325000D03*
X80825000Y-130175000D03*
X78675000Y-134325000D03*
X78675000Y-130175000D03*
%TD*%
D23*
%TO.C,TP17*%
X116250000Y-138250000D03*
%TD*%
D26*
%TO.C,J7*%
X116100000Y-64875000D03*
X117100000Y-64875000D03*
X118100000Y-64875000D03*
X119100000Y-64875000D03*
D27*
X114800000Y-61000000D03*
X120400000Y-61000000D03*
%TD*%
D28*
%TO.C,R7*%
X73537500Y-100000000D03*
X79462500Y-100000000D03*
%TD*%
D23*
%TO.C,TP10*%
X79750000Y-138250000D03*
%TD*%
%TO.C,TP19*%
X110250000Y-138250000D03*
%TD*%
%TO.C,TP22*%
X125250000Y-138250000D03*
%TD*%
%TO.C,TP23*%
X122250000Y-138250000D03*
%TD*%
D26*
%TO.C,J9*%
X123900000Y-64875000D03*
X124900000Y-64875000D03*
X125900000Y-64875000D03*
X126900000Y-64875000D03*
D27*
X122600000Y-61000000D03*
X128200000Y-61000000D03*
%TD*%
D26*
%TO.C,J8*%
X131700000Y-64875000D03*
X132700000Y-64875000D03*
X133700000Y-64875000D03*
X134700000Y-64875000D03*
D27*
X130400000Y-61000000D03*
X136000000Y-61000000D03*
%TD*%
D24*
%TO.C,R4*%
X118562500Y-100000000D03*
X112637500Y-100000000D03*
%TD*%
D25*
%TO.C,SW2*%
X74675000Y-130175000D03*
X74675000Y-134325000D03*
X76825000Y-130175000D03*
X76825000Y-134325000D03*
%TD*%
D23*
%TO.C,TP11*%
X75750000Y-138250000D03*
%TD*%
D29*
%TO.C,J5*%
X81248750Y-116408960D03*
X81602303Y-116762514D03*
X81955857Y-117116067D03*
X82309410Y-117469620D03*
X82662964Y-117823174D03*
X83016517Y-118176727D03*
X83370070Y-118530281D03*
X83723624Y-118883834D03*
D30*
X81496237Y-114429061D03*
X85703523Y-118636347D03*
%TD*%
D23*
%TO.C,TP18*%
X113250000Y-138250000D03*
%TD*%
D28*
%TO.C,R6*%
X81437500Y-100000000D03*
X87362500Y-100000000D03*
%TD*%
D23*
%TO.C,TP20*%
X119250000Y-138250000D03*
%TD*%
%TO.C,TP21*%
X128250000Y-138250000D03*
%TD*%
%LPD*%
M02*
