%TF.GenerationSoftware,KiCad,Pcbnew,7.0.10*%
%TF.CreationDate,2024-01-23T14:11:02+00:00*%
%TF.ProjectId,view_base,76696577-5f62-4617-9365-2e6b69636164,rev?*%
%TF.SameCoordinates,Original*%
%TF.FileFunction,Paste,Top*%
%TF.FilePolarity,Positive*%
%FSLAX46Y46*%
G04 Gerber Fmt 4.6, Leading zero omitted, Abs format (unit mm)*
G04 Created by KiCad (PCBNEW 7.0.10) date 2024-01-23 14:11:02*
%MOMM*%
%LPD*%
G01*
G04 APERTURE LIST*
G04 Aperture macros list*
%AMRoundRect*
0 Rectangle with rounded corners*
0 $1 Rounding radius*
0 $2 $3 $4 $5 $6 $7 $8 $9 X,Y pos of 4 corners*
0 Add a 4 corners polygon primitive as box body*
4,1,4,$2,$3,$4,$5,$6,$7,$8,$9,$2,$3,0*
0 Add four circle primitives for the rounded corners*
1,1,$1+$1,$2,$3*
1,1,$1+$1,$4,$5*
1,1,$1+$1,$6,$7*
1,1,$1+$1,$8,$9*
0 Add four rect primitives between the rounded corners*
20,1,$1+$1,$2,$3,$4,$5,0*
20,1,$1+$1,$4,$5,$6,$7,0*
20,1,$1+$1,$6,$7,$8,$9,0*
20,1,$1+$1,$8,$9,$2,$3,0*%
%AMRotRect*
0 Rectangle, with rotation*
0 The origin of the aperture is its center*
0 $1 length*
0 $2 width*
0 $3 Rotation angle, in degrees counterclockwise*
0 Add horizontal line*
21,1,$1,$2,0,0,$3*%
G04 Aperture macros list end*
%ADD10R,1.500000X0.900000*%
%ADD11R,0.900000X1.500000*%
%ADD12R,0.900000X0.900000*%
%ADD13RoundRect,0.200000X0.200000X0.275000X-0.200000X0.275000X-0.200000X-0.275000X0.200000X-0.275000X0*%
%ADD14RoundRect,0.200000X-0.200000X-0.275000X0.200000X-0.275000X0.200000X0.275000X-0.200000X0.275000X0*%
%ADD15RoundRect,0.250000X-0.475000X0.250000X-0.475000X-0.250000X0.475000X-0.250000X0.475000X0.250000X0*%
%ADD16RoundRect,0.225000X-0.250000X0.225000X-0.250000X-0.225000X0.250000X-0.225000X0.250000X0.225000X0*%
%ADD17RoundRect,0.225000X-0.225000X-0.250000X0.225000X-0.250000X0.225000X0.250000X-0.225000X0.250000X0*%
%ADD18RoundRect,0.250000X0.475000X-0.250000X0.475000X0.250000X-0.475000X0.250000X-0.475000X-0.250000X0*%
%ADD19RoundRect,0.225000X0.225000X0.250000X-0.225000X0.250000X-0.225000X-0.250000X0.225000X-0.250000X0*%
%ADD20RoundRect,0.150000X-0.587500X-0.150000X0.587500X-0.150000X0.587500X0.150000X-0.587500X0.150000X0*%
%ADD21RoundRect,0.250000X0.250000X0.475000X-0.250000X0.475000X-0.250000X-0.475000X0.250000X-0.475000X0*%
%ADD22RoundRect,0.150000X-0.512500X-0.150000X0.512500X-0.150000X0.512500X0.150000X-0.512500X0.150000X0*%
%ADD23RoundRect,0.218750X-0.381250X0.218750X-0.381250X-0.218750X0.381250X-0.218750X0.381250X0.218750X0*%
%ADD24RoundRect,0.150000X0.150000X-0.150000X0.150000X0.150000X-0.150000X0.150000X-0.150000X-0.150000X0*%
%ADD25RoundRect,0.050000X0.050000X-0.300000X0.050000X0.300000X-0.050000X0.300000X-0.050000X-0.300000X0*%
%ADD26RoundRect,0.050000X0.300000X-0.050000X0.300000X0.050000X-0.300000X0.050000X-0.300000X-0.050000X0*%
%ADD27RoundRect,0.200000X0.275000X-0.200000X0.275000X0.200000X-0.275000X0.200000X-0.275000X-0.200000X0*%
%ADD28RoundRect,0.150000X0.689429X-0.477297X-0.477297X0.689429X-0.689429X0.477297X0.477297X-0.689429X0*%
%ADD29RoundRect,0.225000X-0.335876X-0.017678X-0.017678X-0.335876X0.335876X0.017678X0.017678X0.335876X0*%
%ADD30RoundRect,0.200000X-0.275000X0.200000X-0.275000X-0.200000X0.275000X-0.200000X0.275000X0.200000X0*%
%ADD31RoundRect,0.150000X0.825000X0.150000X-0.825000X0.150000X-0.825000X-0.150000X0.825000X-0.150000X0*%
%ADD32RoundRect,0.225000X0.250000X-0.225000X0.250000X0.225000X-0.250000X0.225000X-0.250000X-0.225000X0*%
%ADD33RoundRect,0.140000X-0.219557X0.017173X-0.058955X-0.212189X0.219557X-0.017173X0.058955X0.212189X0*%
%ADD34RoundRect,0.150000X0.512500X0.150000X-0.512500X0.150000X-0.512500X-0.150000X0.512500X-0.150000X0*%
%ADD35RotRect,0.500000X0.500000X10.000000*%
%ADD36RoundRect,0.140000X-0.219203X-0.021213X-0.021213X-0.219203X0.219203X0.021213X0.021213X0.219203X0*%
%ADD37RotRect,0.500000X0.500000X320.000000*%
%ADD38R,0.500000X0.500000*%
%ADD39RotRect,0.500000X0.500000X175.000000*%
%ADD40RotRect,0.500000X0.500000X310.000000*%
%ADD41RotRect,0.500000X0.500000X120.000000*%
%ADD42RotRect,0.500000X0.500000X20.000000*%
%ADD43RoundRect,0.140000X0.073414X0.207631X-0.189700X0.111865X-0.073414X-0.207631X0.189700X-0.111865X0*%
%ADD44RotRect,0.500000X0.500000X235.000000*%
%ADD45RoundRect,0.140000X-0.200442X0.091230X-0.127973X-0.179229X0.200442X-0.091230X0.127973X0.179229X0*%
%ADD46RoundRect,0.140000X-0.207631X0.073414X-0.111865X-0.189700X0.207631X-0.073414X0.111865X0.189700X0*%
%ADD47RotRect,0.500000X0.500000X190.000000*%
%ADD48RotRect,0.500000X0.500000X255.000000*%
%ADD49RotRect,0.500000X0.500000X285.000000*%
%ADD50RoundRect,0.140000X-0.198728X-0.094906X0.055038X-0.213239X0.198728X0.094906X-0.055038X0.213239X0*%
%ADD51RoundRect,0.140000X0.220218X0.002028X0.040237X0.216520X-0.220218X-0.002028X-0.040237X-0.216520X0*%
%ADD52RoundRect,0.140000X-0.021213X0.219203X-0.219203X0.021213X0.021213X-0.219203X0.219203X-0.021213X0*%
%ADD53RoundRect,0.140000X0.198728X0.094906X-0.055038X0.213239X-0.198728X-0.094906X0.055038X-0.213239X0*%
%ADD54RotRect,0.500000X0.500000X295.000000*%
%ADD55RotRect,0.500000X0.500000X80.000000*%
%ADD56RoundRect,0.140000X0.206244X0.077224X-0.036244X0.217224X-0.206244X-0.077224X0.036244X-0.217224X0*%
%ADD57RotRect,0.500000X0.500000X115.000000*%
%ADD58RoundRect,0.140000X-0.017173X-0.219557X0.212189X-0.058955X0.017173X0.219557X-0.212189X0.058955X0*%
%ADD59RoundRect,0.140000X-0.127973X0.179229X-0.200442X-0.091230X0.127973X-0.179229X0.200442X0.091230X0*%
%ADD60RotRect,0.500000X0.500000X345.000000*%
%ADD61RoundRect,0.140000X0.167393X0.143107X-0.108353X0.191728X-0.167393X-0.143107X0.108353X-0.191728X0*%
%ADD62RoundRect,0.140000X-0.216520X-0.040237X-0.002028X-0.220218X0.216520X0.040237X0.002028X0.220218X0*%
%ADD63RotRect,0.500000X0.500000X305.000000*%
%ADD64RoundRect,0.140000X-0.124651X-0.181555X0.154284X-0.157151X0.124651X0.181555X-0.154284X0.157151X0*%
%ADD65RoundRect,0.140000X0.157151X-0.154284X0.181555X0.124651X-0.157151X0.154284X-0.181555X-0.124651X0*%
%ADD66RotRect,0.500000X0.500000X145.000000*%
%ADD67RotRect,0.500000X0.500000X140.000000*%
%ADD68RotRect,0.500000X0.500000X260.000000*%
%ADD69RoundRect,0.140000X0.216520X0.040237X0.002028X0.220218X-0.216520X-0.040237X-0.002028X-0.220218X0*%
%ADD70RoundRect,0.140000X0.189700X0.111865X-0.073414X0.207631X-0.189700X-0.111865X0.073414X-0.207631X0*%
%ADD71RotRect,0.500000X0.500000X165.000000*%
%ADD72RoundRect,0.140000X-0.181555X0.124651X-0.157151X-0.154284X0.181555X-0.124651X0.157151X0.154284X0*%
%ADD73RotRect,0.500000X0.500000X230.000000*%
%ADD74RotRect,0.500000X0.500000X85.000000*%
%ADD75RotRect,0.500000X0.500000X150.000000*%
%ADD76RoundRect,0.140000X0.002028X-0.220218X0.216520X-0.040237X-0.002028X0.220218X-0.216520X0.040237X0*%
%ADD77RoundRect,0.140000X-0.167393X-0.143107X0.108353X-0.191728X0.167393X0.143107X-0.108353X0.191728X0*%
%ADD78RotRect,0.500000X0.500000X335.000000*%
%ADD79RoundRect,0.140000X0.217224X-0.036244X0.077224X0.206244X-0.217224X0.036244X-0.077224X-0.206244X0*%
%ADD80RotRect,0.500000X0.500000X125.000000*%
%ADD81RotRect,0.500000X0.500000X105.000000*%
%ADD82RotRect,0.500000X0.500000X325.000000*%
%ADD83RoundRect,0.140000X-0.157151X0.154284X-0.181555X-0.124651X0.157151X-0.154284X0.181555X0.124651X0*%
%ADD84RotRect,0.500000X0.500000X315.000000*%
%ADD85RotRect,0.500000X0.500000X220.000000*%
%ADD86R,0.500000X1.150000*%
%ADD87R,1.150000X0.500000*%
%ADD88RotRect,0.500000X0.500000X300.000000*%
%ADD89RoundRect,0.140000X-0.073414X-0.207631X0.189700X-0.111865X0.073414X0.207631X-0.189700X0.111865X0*%
%ADD90RoundRect,0.140000X-0.077224X0.206244X-0.217224X-0.036244X0.077224X-0.206244X0.217224X0.036244X0*%
%ADD91RoundRect,0.140000X-0.143107X0.167393X-0.191728X-0.108353X0.143107X-0.167393X0.191728X0.108353X0*%
%ADD92RotRect,0.500000X0.500000X210.000000*%
%ADD93RotRect,0.500000X0.500000X110.000000*%
%ADD94RotRect,0.500000X0.500000X185.000000*%
%ADD95RotRect,0.500000X0.500000X155.000000*%
%ADD96RotRect,0.500000X0.500000X55.000000*%
%ADD97RoundRect,0.140000X-0.094906X0.198728X-0.213239X-0.055038X0.094906X-0.198728X0.213239X0.055038X0*%
%ADD98RoundRect,0.140000X0.213239X-0.055038X0.094906X0.198728X-0.213239X0.055038X-0.094906X-0.198728X0*%
%ADD99R,1.500000X2.000000*%
%ADD100R,3.800000X2.000000*%
%ADD101RoundRect,0.140000X-0.191728X0.108353X-0.143107X-0.167393X0.191728X-0.108353X0.143107X0.167393X0*%
%ADD102RoundRect,0.140000X0.219557X-0.017173X0.058955X0.212189X-0.219557X0.017173X-0.058955X-0.212189X0*%
%ADD103RoundRect,0.140000X0.181555X-0.124651X0.157151X0.154284X-0.181555X0.124651X-0.157151X-0.154284X0*%
%ADD104RotRect,0.500000X0.500000X50.000000*%
%ADD105RotRect,0.500000X0.500000X60.000000*%
%ADD106RoundRect,0.140000X-0.212189X-0.058955X0.017173X-0.219557X0.212189X0.058955X-0.017173X0.219557X0*%
%ADD107RoundRect,0.140000X0.108353X0.191728X-0.167393X0.143107X-0.108353X-0.191728X0.167393X-0.143107X0*%
%ADD108RoundRect,0.140000X-0.002028X0.220218X-0.216520X0.040237X0.002028X-0.220218X0.216520X-0.040237X0*%
%ADD109RotRect,0.500000X0.500000X240.000000*%
%ADD110RoundRect,0.140000X-0.170000X0.140000X-0.170000X-0.140000X0.170000X-0.140000X0.170000X0.140000X0*%
%ADD111RotRect,0.500000X0.500000X25.000000*%
%ADD112RotRect,0.500000X0.500000X250.000000*%
%ADD113RoundRect,0.140000X-0.055038X-0.213239X0.198728X-0.094906X0.055038X0.213239X-0.198728X0.094906X0*%
%ADD114RoundRect,0.140000X-0.213239X0.055038X-0.094906X-0.198728X0.213239X-0.055038X0.094906X0.198728X0*%
%ADD115RotRect,0.500000X0.500000X225.000000*%
%ADD116RoundRect,0.140000X0.143107X-0.167393X0.191728X0.108353X-0.143107X0.167393X-0.191728X-0.108353X0*%
%ADD117RoundRect,0.140000X0.094906X-0.198728X0.213239X0.055038X-0.094906X0.198728X-0.213239X-0.055038X0*%
%ADD118RotRect,0.500000X0.500000X340.000000*%
%ADD119RotRect,0.500000X0.500000X45.000000*%
%ADD120RoundRect,0.140000X-0.206244X-0.077224X0.036244X-0.217224X0.206244X0.077224X-0.036244X0.217224X0*%
%ADD121RoundRect,0.225000X-0.225000X-0.250000X0.225000X-0.250000X0.225000X0.250000X-0.225000X0.250000X0*%
%ADD122RoundRect,0.140000X0.040237X-0.216520X0.220218X-0.002028X-0.040237X0.216520X-0.220218X0.002028X0*%
%ADD123RotRect,0.500000X0.500000X170.000000*%
%ADD124RotRect,0.500000X0.500000X330.000000*%
%ADD125RotRect,0.500000X0.500000X100.000000*%
%ADD126RotRect,0.500000X0.500000X205.000000*%
%ADD127RotRect,0.500000X0.500000X65.000000*%
%ADD128RoundRect,0.140000X0.191728X-0.108353X0.143107X0.167393X-0.191728X0.108353X-0.143107X-0.167393X0*%
%ADD129RoundRect,0.140000X0.140000X0.170000X-0.140000X0.170000X-0.140000X-0.170000X0.140000X-0.170000X0*%
%ADD130RoundRect,0.140000X0.207631X-0.073414X0.111865X0.189700X-0.207631X0.073414X-0.111865X-0.189700X0*%
%ADD131RoundRect,0.140000X0.179229X0.127973X-0.091230X0.200442X-0.179229X-0.127973X0.091230X-0.200442X0*%
%ADD132RoundRect,0.140000X0.058955X-0.212189X0.219557X0.017173X-0.058955X0.212189X-0.219557X-0.017173X0*%
%ADD133RoundRect,0.140000X0.212189X0.058955X-0.017173X0.219557X-0.212189X-0.058955X0.017173X-0.219557X0*%
%ADD134RoundRect,0.140000X-0.154284X-0.157151X0.124651X-0.181555X0.154284X0.157151X-0.124651X0.181555X0*%
%ADD135RotRect,0.500000X0.500000X265.000000*%
%ADD136RotRect,0.500000X0.500000X30.000000*%
%ADD137RotRect,0.500000X0.500000X350.000000*%
%ADD138RoundRect,0.140000X-0.220218X-0.002028X-0.040237X-0.216520X0.220218X0.002028X0.040237X0.216520X0*%
%ADD139RoundRect,0.140000X0.021213X-0.219203X0.219203X-0.021213X-0.021213X0.219203X-0.219203X0.021213X0*%
%ADD140RotRect,0.500000X0.500000X40.000000*%
%ADD141RoundRect,0.140000X0.111865X-0.189700X0.207631X0.073414X-0.111865X0.189700X-0.207631X-0.073414X0*%
%ADD142RotRect,0.500000X0.500000X70.000000*%
%ADD143RotRect,0.500000X0.500000X200.000000*%
%ADD144RoundRect,0.140000X0.154284X0.157151X-0.124651X0.181555X-0.154284X-0.157151X0.124651X-0.181555X0*%
%ADD145RotRect,0.500000X0.500000X355.000000*%
%ADD146RoundRect,0.140000X0.077224X-0.206244X0.217224X0.036244X-0.077224X0.206244X-0.217224X-0.036244X0*%
%ADD147RotRect,0.500000X0.500000X290.000000*%
%ADD148RoundRect,0.140000X0.127973X-0.179229X0.200442X0.091230X-0.127973X0.179229X-0.200442X-0.091230X0*%
%ADD149RotRect,0.500000X0.500000X135.000000*%
%ADD150RoundRect,0.140000X0.200442X-0.091230X0.127973X0.179229X-0.200442X0.091230X-0.127973X-0.179229X0*%
%ADD151RoundRect,0.140000X0.170000X-0.140000X0.170000X0.140000X-0.170000X0.140000X-0.170000X-0.140000X0*%
%ADD152RotRect,0.500000X0.500000X160.000000*%
%ADD153RoundRect,0.140000X-0.111865X0.189700X-0.207631X-0.073414X0.111865X-0.189700X0.207631X0.073414X0*%
%ADD154RotRect,0.500000X0.500000X195.000000*%
%ADD155RoundRect,0.140000X-0.040237X0.216520X-0.220218X0.002028X0.040237X-0.216520X0.220218X-0.002028X0*%
%ADD156RotRect,0.500000X0.500000X95.000000*%
%ADD157RoundRect,0.140000X-0.189700X-0.111865X0.073414X-0.207631X0.189700X0.111865X-0.073414X0.207631X0*%
%ADD158RotRect,0.500000X0.500000X35.000000*%
%ADD159RoundRect,0.140000X0.124651X0.181555X-0.154284X0.157151X-0.124651X-0.181555X0.154284X-0.157151X0*%
%ADD160RoundRect,0.140000X-0.108353X-0.191728X0.167393X-0.143107X0.108353X0.191728X-0.167393X0.143107X0*%
%ADD161RoundRect,0.140000X-0.217224X0.036244X-0.077224X-0.206244X0.217224X-0.036244X0.077224X0.206244X0*%
%ADD162RoundRect,0.140000X0.219203X0.021213X0.021213X0.219203X-0.219203X-0.021213X-0.021213X-0.219203X0*%
%ADD163RotRect,0.500000X0.500000X215.000000*%
%ADD164RotRect,0.500000X0.500000X245.000000*%
%ADD165RoundRect,0.140000X-0.091230X-0.200442X0.179229X-0.127973X0.091230X0.200442X-0.179229X0.127973X0*%
%ADD166RotRect,0.500000X0.500000X75.000000*%
%ADD167RotRect,0.500000X0.500000X15.000000*%
%ADD168RoundRect,0.140000X-0.179229X-0.127973X0.091230X-0.200442X0.179229X0.127973X-0.091230X0.200442X0*%
%ADD169RoundRect,0.140000X-0.036244X-0.217224X0.206244X-0.077224X0.036244X0.217224X-0.206244X0.077224X0*%
%ADD170RoundRect,0.140000X0.017173X0.219557X-0.212189X0.058955X-0.017173X-0.219557X0.212189X-0.058955X0*%
%ADD171RotRect,0.500000X0.500000X275.000000*%
%ADD172RoundRect,0.140000X0.055038X0.213239X-0.198728X0.094906X-0.055038X-0.213239X0.198728X-0.094906X0*%
%ADD173RoundRect,0.140000X-0.140000X-0.170000X0.140000X-0.170000X0.140000X0.170000X-0.140000X0.170000X0*%
%ADD174RoundRect,0.140000X0.036244X0.217224X-0.206244X0.077224X-0.036244X-0.217224X0.206244X-0.077224X0*%
%ADD175RotRect,0.500000X0.500000X130.000000*%
%ADD176RotRect,0.500000X0.500000X5.000000*%
%ADD177RotRect,0.500000X0.500000X280.000000*%
%ADD178RoundRect,0.140000X-0.058955X0.212189X-0.219557X-0.017173X0.058955X-0.212189X0.219557X0.017173X0*%
%ADD179RoundRect,0.140000X0.091230X0.200442X-0.179229X0.127973X-0.091230X-0.200442X0.179229X-0.127973X0*%
G04 APERTURE END LIST*
D10*
%TO.C,U7*%
X77985000Y-137230000D03*
X77985000Y-135960000D03*
X77985000Y-134690000D03*
X77985000Y-133420000D03*
X77985000Y-132150000D03*
X77985000Y-130880000D03*
X77985000Y-129610000D03*
X77985000Y-128340000D03*
X77985000Y-127070000D03*
X77985000Y-125800000D03*
X77985000Y-124530000D03*
X77985000Y-123260000D03*
X77985000Y-121990000D03*
X77985000Y-120720000D03*
D11*
X76220000Y-119470000D03*
X74950000Y-119470000D03*
X73680000Y-119470000D03*
X72410000Y-119470000D03*
X71140000Y-119470000D03*
X69870000Y-119470000D03*
X68600000Y-119470000D03*
X67330000Y-119470000D03*
X66060000Y-119470000D03*
X64790000Y-119470000D03*
X63520000Y-119470000D03*
X62250000Y-119470000D03*
D10*
X60485000Y-120720000D03*
X60485000Y-121990000D03*
X60485000Y-123260000D03*
X60485000Y-124530000D03*
X60485000Y-125800000D03*
X60485000Y-127070000D03*
X60485000Y-128340000D03*
X60485000Y-129610000D03*
X60485000Y-130880000D03*
X60485000Y-132150000D03*
X60485000Y-133420000D03*
X60485000Y-134690000D03*
X60485000Y-135960000D03*
X60485000Y-137230000D03*
D12*
X72135000Y-129510000D03*
X70735000Y-128110000D03*
X70735000Y-130910000D03*
X72135000Y-130910000D03*
X69335000Y-128110000D03*
X69335000Y-129510000D03*
X69335000Y-130910000D03*
X72135000Y-128110000D03*
X70735000Y-129510000D03*
%TD*%
D13*
%TO.C,R2*%
X97025000Y-130900000D03*
X95375000Y-130900000D03*
%TD*%
D14*
%TO.C,R1*%
X102975000Y-130900000D03*
X104625000Y-130900000D03*
%TD*%
D15*
%TO.C,C86*%
X124150000Y-121350000D03*
X124150000Y-123250000D03*
%TD*%
D16*
%TO.C,C87*%
X126150000Y-121525000D03*
X126150000Y-123075000D03*
%TD*%
D17*
%TO.C,C89*%
X126825000Y-125800000D03*
X128375000Y-125800000D03*
%TD*%
D15*
%TO.C,C44*%
X67175000Y-76300000D03*
X67175000Y-78200000D03*
%TD*%
D17*
%TO.C,C88*%
X132075000Y-117300000D03*
X133625000Y-117300000D03*
%TD*%
D18*
%TO.C,C33*%
X78175000Y-73700000D03*
X78175000Y-71800000D03*
%TD*%
D19*
%TO.C,C56*%
X72450000Y-68750000D03*
X70900000Y-68750000D03*
%TD*%
D20*
%TO.C,Q1*%
X71237500Y-75300000D03*
X71237500Y-77200000D03*
X73112500Y-76250000D03*
%TD*%
D14*
%TO.C,R14*%
X70850000Y-70250000D03*
X72500000Y-70250000D03*
%TD*%
%TO.C,R11*%
X72850000Y-66750000D03*
X74500000Y-66750000D03*
%TD*%
D21*
%TO.C,C75*%
X64450000Y-116750000D03*
X62550000Y-116750000D03*
%TD*%
D16*
%TO.C,C45*%
X69175000Y-76475000D03*
X69175000Y-78025000D03*
%TD*%
D22*
%TO.C,U1*%
X88475000Y-135860000D03*
X88475000Y-136810000D03*
X88475000Y-137760000D03*
X90750000Y-137760000D03*
X90750000Y-135860000D03*
%TD*%
D23*
%TO.C,L1*%
X74425000Y-71687500D03*
X74425000Y-73812500D03*
%TD*%
D24*
%TO.C,U8*%
X130740000Y-122210000D03*
X131560000Y-122210000D03*
X130740000Y-121390000D03*
X131560000Y-121390000D03*
D25*
X130350000Y-123250000D03*
X130750000Y-123250000D03*
X131150000Y-123250000D03*
X131550000Y-123250000D03*
X131950000Y-123250000D03*
D26*
X132600000Y-122600000D03*
X132600000Y-122200000D03*
X132600000Y-121800000D03*
X132600000Y-121400000D03*
X132600000Y-121000000D03*
D25*
X131950000Y-120350000D03*
X131550000Y-120350000D03*
X131150000Y-120350000D03*
X130750000Y-120350000D03*
X130350000Y-120350000D03*
D26*
X129700000Y-121000000D03*
X129700000Y-121400000D03*
X129700000Y-121800000D03*
X129700000Y-122200000D03*
X129700000Y-122600000D03*
%TD*%
D19*
%TO.C,C5*%
X100775000Y-60700000D03*
X99225000Y-60700000D03*
%TD*%
%TO.C,C91*%
X129775000Y-117300000D03*
X128225000Y-117300000D03*
%TD*%
D27*
%TO.C,R8*%
X68750000Y-117075000D03*
X68750000Y-115425000D03*
%TD*%
D28*
%TO.C,U2*%
X100403051Y-103097128D03*
X101301076Y-102199102D03*
X102199102Y-101301076D03*
X103097128Y-100403051D03*
X99596949Y-96902872D03*
X98698924Y-97800898D03*
X97800898Y-98698924D03*
X96902872Y-99596949D03*
%TD*%
D29*
%TO.C,C2*%
X102201992Y-96701992D03*
X103298008Y-97798008D03*
%TD*%
D19*
%TO.C,C3*%
X90387500Y-134300000D03*
X88837500Y-134300000D03*
%TD*%
D30*
%TO.C,R5*%
X67250000Y-115425000D03*
X67250000Y-117075000D03*
%TD*%
D27*
%TO.C,R10*%
X64249997Y-114899999D03*
X64249997Y-113249999D03*
%TD*%
%TO.C,R9*%
X65750000Y-114899998D03*
X65750000Y-113249998D03*
%TD*%
D31*
%TO.C,U6*%
X68650000Y-74695000D03*
X68650000Y-73425000D03*
X68650000Y-72155000D03*
X68650000Y-70885000D03*
X68650000Y-69615000D03*
X68650000Y-68345000D03*
X68650000Y-67075000D03*
X68650000Y-65805000D03*
X63700000Y-65805000D03*
X63700000Y-67075000D03*
X63700000Y-68345000D03*
X63700000Y-69615000D03*
X63700000Y-70885000D03*
X63700000Y-72155000D03*
X63700000Y-73425000D03*
X63700000Y-74695000D03*
%TD*%
D13*
%TO.C,R12*%
X74500000Y-65250000D03*
X72850000Y-65250000D03*
%TD*%
D32*
%TO.C,C43*%
X76175000Y-73525000D03*
X76175000Y-71975000D03*
%TD*%
D13*
%TO.C,R13*%
X72500000Y-71750000D03*
X70850000Y-71750000D03*
%TD*%
D16*
%TO.C,C55*%
X71175000Y-64975000D03*
X71175000Y-66525000D03*
%TD*%
D30*
%TO.C,R15*%
X127600000Y-133975000D03*
X127600000Y-135625000D03*
%TD*%
%TO.C,R16*%
X129200000Y-133975000D03*
X129200000Y-135625000D03*
%TD*%
%TO.C,R20*%
X135600000Y-133975000D03*
X135600000Y-135625000D03*
%TD*%
%TO.C,R17*%
X130800000Y-133975000D03*
X130800000Y-135625000D03*
%TD*%
%TO.C,R18*%
X132400000Y-133975000D03*
X132400000Y-135625000D03*
%TD*%
%TO.C,R19*%
X134000000Y-133975000D03*
X134000000Y-135625000D03*
%TD*%
D27*
%TO.C,R21*%
X82000000Y-134075000D03*
X82000000Y-132425000D03*
%TD*%
D32*
%TO.C,C76*%
X80250000Y-134025000D03*
X80250000Y-132475000D03*
%TD*%
D16*
%TO.C,C92*%
X80250000Y-135975000D03*
X80250000Y-137525000D03*
%TD*%
D18*
%TO.C,C4*%
X117899999Y-135649999D03*
X117899999Y-133749999D03*
%TD*%
D15*
%TO.C,C1*%
X108499999Y-133750001D03*
X108499999Y-135650001D03*
%TD*%
%TO.C,C90*%
X82250000Y-135800000D03*
X82250000Y-137700000D03*
%TD*%
D33*
%TO.C,C10*%
X79074683Y-114066807D03*
X79625317Y-114853193D03*
%TD*%
D34*
%TO.C,U10*%
X115325000Y-65750000D03*
X115325000Y-64800000D03*
X115325000Y-63850000D03*
X113050000Y-63850000D03*
X113050000Y-65750000D03*
%TD*%
D35*
%TO.C,D23*%
X94833713Y-73293671D03*
X94989996Y-74179998D03*
X95876323Y-74023715D03*
X95720040Y-73137388D03*
%TD*%
D36*
%TO.C,C11*%
X81840589Y-117480589D03*
X82519411Y-118159411D03*
%TD*%
D37*
%TO.C,D42*%
X117144534Y-78876026D03*
X116566026Y-79565466D03*
X117255466Y-80143974D03*
X117833974Y-79454534D03*
%TD*%
D38*
%TO.C,D41*%
X99549997Y-72799997D03*
X99549997Y-73699997D03*
X100449997Y-73699997D03*
X100449997Y-72799997D03*
%TD*%
D39*
%TO.C,D10*%
X98059069Y-127138390D03*
X98137509Y-126241814D03*
X97240933Y-126163374D03*
X97162493Y-127059950D03*
%TD*%
D40*
%TO.C,D60*%
X120545466Y-82166026D03*
X119856026Y-82744534D03*
X120434534Y-83433974D03*
X121123974Y-82855466D03*
%TD*%
D41*
%TO.C,D38*%
X76674439Y-113988860D03*
X77453861Y-113538860D03*
X77003861Y-112759438D03*
X76224439Y-113209438D03*
%TD*%
D42*
%TO.C,D5*%
X90272177Y-74594275D03*
X90579995Y-75439999D03*
X91425719Y-75132181D03*
X91117901Y-74286457D03*
%TD*%
D43*
%TO.C,C61*%
X91821052Y-76145830D03*
X90918948Y-76474170D03*
%TD*%
D44*
%TO.C,D53*%
X122536728Y-115229491D03*
X121799491Y-114713272D03*
X121283272Y-115450509D03*
X122020509Y-115966728D03*
%TD*%
D45*
%TO.C,C8*%
X75515767Y-106066356D03*
X75764233Y-106993644D03*
%TD*%
D46*
%TO.C,C83*%
X76145830Y-108168948D03*
X76474170Y-109071052D03*
%TD*%
D13*
%TO.C,R26*%
X95575000Y-64250000D03*
X93925000Y-64250000D03*
%TD*%
D47*
%TO.C,D63*%
X105171305Y-126705022D03*
X105015022Y-125818695D03*
X104128695Y-125974978D03*
X104284978Y-126861305D03*
%TD*%
D20*
%TO.C,Q3*%
X107250000Y-62850000D03*
X107250000Y-64750000D03*
X109125000Y-63800000D03*
%TD*%
D48*
%TO.C,D17*%
X126391135Y-106601802D03*
X125521802Y-106368865D03*
X125288865Y-107238198D03*
X126158198Y-107471135D03*
%TD*%
D49*
%TO.C,D34*%
X126150584Y-92523676D03*
X125281251Y-92756613D03*
X125514188Y-93625946D03*
X126383521Y-93393009D03*
%TD*%
D50*
%TO.C,C13*%
X88914972Y-122637143D03*
X89785028Y-123042857D03*
%TD*%
D51*
%TO.C,C18*%
X119618538Y-84167701D03*
X119001462Y-83432299D03*
%TD*%
D52*
%TO.C,C72*%
X82519411Y-81850589D03*
X81840589Y-82529411D03*
%TD*%
D53*
%TO.C,C31*%
X111085028Y-77362857D03*
X110214972Y-76957143D03*
%TD*%
D54*
%TO.C,D16*%
X124460924Y-88093847D03*
X123645247Y-88474204D03*
X124025604Y-89289881D03*
X124841281Y-88909524D03*
%TD*%
D55*
%TO.C,D39*%
X73132379Y-95717281D03*
X74018706Y-95873564D03*
X74174989Y-94987237D03*
X73288662Y-94830954D03*
%TD*%
D56*
%TO.C,C60*%
X113015692Y-78410000D03*
X112184308Y-77930000D03*
%TD*%
D57*
%TO.C,D47*%
X75544679Y-111906035D03*
X76360356Y-111525678D03*
X75979999Y-110710001D03*
X75164322Y-111090358D03*
%TD*%
D58*
%TO.C,C25*%
X114076807Y-120935317D03*
X114863193Y-120384683D03*
%TD*%
D59*
%TO.C,C54*%
X75774233Y-93016356D03*
X75525767Y-93943644D03*
%TD*%
D60*
%TO.C,D68*%
X106601802Y-73608865D03*
X106368865Y-74478198D03*
X107238198Y-74711135D03*
X107471135Y-73841802D03*
%TD*%
D61*
%TO.C,C51*%
X104852708Y-75253351D03*
X103907292Y-75086649D03*
%TD*%
D62*
%TO.C,C64*%
X83432299Y-119001462D03*
X84167701Y-119618538D03*
%TD*%
D63*
%TO.C,D69*%
X122020509Y-84033272D03*
X121283272Y-84549491D03*
X121799491Y-85286728D03*
X122536728Y-84770509D03*
%TD*%
D64*
%TO.C,C22*%
X101721827Y-125161835D03*
X102678173Y-125078165D03*
%TD*%
D65*
%TO.C,C16*%
X125068165Y-102678173D03*
X125151835Y-101721827D03*
%TD*%
D66*
%TO.C,D64*%
X84770509Y-122536728D03*
X85286728Y-121799491D03*
X84549491Y-121283272D03*
X84033272Y-122020509D03*
%TD*%
D38*
%TO.C,D21*%
X72800000Y-100450000D03*
X73700000Y-100450000D03*
X73700000Y-99550000D03*
X72800000Y-99550000D03*
%TD*%
D67*
%TO.C,D2*%
X82865466Y-121123974D03*
X83443974Y-120434534D03*
X82754534Y-119856026D03*
X82176026Y-120545466D03*
%TD*%
D68*
%TO.C,D8*%
X126857621Y-104282719D03*
X125971294Y-104126436D03*
X125815011Y-105012763D03*
X126701338Y-105169046D03*
%TD*%
D69*
%TO.C,C37*%
X116567701Y-80998538D03*
X115832299Y-80381462D03*
%TD*%
D19*
%TO.C,C95*%
X115012500Y-68899995D03*
X113462500Y-68899995D03*
%TD*%
D70*
%TO.C,C80*%
X109071052Y-76474170D03*
X108168948Y-76145830D03*
%TD*%
D71*
%TO.C,D28*%
X93398198Y-126391135D03*
X93631135Y-125521802D03*
X92761802Y-125288865D03*
X92528865Y-126158198D03*
%TD*%
D72*
%TO.C,C40*%
X74848165Y-101721827D03*
X74931835Y-102678173D03*
%TD*%
D73*
%TO.C,D62*%
X121123974Y-117144534D03*
X120434534Y-116566026D03*
X119856026Y-117255466D03*
X120545466Y-117833974D03*
%TD*%
D74*
%TO.C,D30*%
X72864984Y-98078136D03*
X73761560Y-98156576D03*
X73840000Y-97260000D03*
X72943424Y-97181560D03*
%TD*%
D75*
%TO.C,D55*%
X86784711Y-123784711D03*
X87234711Y-123005289D03*
X86455289Y-122555289D03*
X86005289Y-123334711D03*
%TD*%
D76*
%TO.C,C57*%
X115834598Y-119617076D03*
X116570000Y-119000000D03*
%TD*%
D77*
%TO.C,C42*%
X95147292Y-124736649D03*
X96092708Y-124903351D03*
%TD*%
D78*
%TO.C,D15*%
X111092340Y-75161983D03*
X110711983Y-75977660D03*
X111527660Y-76358017D03*
X111908017Y-75542340D03*
%TD*%
D27*
%TO.C,R24*%
X105450000Y-68075000D03*
X105450000Y-66425000D03*
%TD*%
D79*
%TO.C,C19*%
X122060000Y-87815692D03*
X121580000Y-86984308D03*
%TD*%
D80*
%TO.C,D29*%
X77979491Y-115966728D03*
X78716728Y-115450509D03*
X78200509Y-114713272D03*
X77463272Y-115229491D03*
%TD*%
D81*
%TO.C,D65*%
X73843604Y-107472271D03*
X74712937Y-107239334D03*
X74480000Y-106370001D03*
X73610667Y-106602938D03*
%TD*%
D82*
%TO.C,D33*%
X115229491Y-77463272D03*
X114713272Y-78200509D03*
X115450509Y-78716728D03*
X115966728Y-77979491D03*
%TD*%
D83*
%TO.C,C21*%
X74941835Y-97331827D03*
X74858165Y-98288173D03*
%TD*%
D84*
%TO.C,D51*%
X118910000Y-80443604D03*
X118273604Y-81080000D03*
X118910000Y-81716396D03*
X119546396Y-81080000D03*
%TD*%
D85*
%TO.C,D9*%
X117823974Y-120545466D03*
X117245466Y-119856026D03*
X116556026Y-120434534D03*
X117134534Y-121123974D03*
%TD*%
D86*
%TO.C,U9*%
X101600000Y-66625000D03*
X100800000Y-66625000D03*
X100000000Y-66625000D03*
X99200000Y-66625000D03*
X98400000Y-66625000D03*
D87*
X98075000Y-65500000D03*
D86*
X98400000Y-64375000D03*
X99200000Y-64375000D03*
X100000000Y-64375000D03*
X100800000Y-64375000D03*
X101600000Y-64375000D03*
D87*
X101925000Y-65500000D03*
%TD*%
D88*
%TO.C,D7*%
X123330000Y-86010578D03*
X122550578Y-86460578D03*
X123000578Y-87240000D03*
X123780000Y-86790000D03*
%TD*%
D38*
%TO.C,D61*%
X127190000Y-99550000D03*
X126290000Y-99550000D03*
X126290000Y-100450000D03*
X127190000Y-100450000D03*
%TD*%
D30*
%TO.C,R28*%
X111150000Y-63175000D03*
X111150000Y-64825000D03*
%TD*%
D89*
%TO.C,C15*%
X108168948Y-123854170D03*
X109071052Y-123525830D03*
%TD*%
D90*
%TO.C,C39*%
X78420000Y-86984308D03*
X77940000Y-87815692D03*
%TD*%
D91*
%TO.C,C74*%
X75253351Y-95147292D03*
X75086649Y-96092708D03*
%TD*%
D92*
%TO.C,D27*%
X113988861Y-123325559D03*
X113538861Y-122546137D03*
X112759439Y-122996137D03*
X113209439Y-123775559D03*
%TD*%
D93*
%TO.C,D56*%
X74601047Y-109726771D03*
X75446771Y-109418953D03*
X75138953Y-108573229D03*
X74293229Y-108881047D03*
%TD*%
D94*
%TO.C,D72*%
X102817508Y-127059068D03*
X102739068Y-126162492D03*
X101842492Y-126240932D03*
X101920932Y-127137508D03*
%TD*%
D34*
%TO.C,U5*%
X90887500Y-132450000D03*
X90887500Y-131500000D03*
X90887500Y-130550000D03*
X88612500Y-130550000D03*
X88612500Y-131500000D03*
X88612500Y-132450000D03*
%TD*%
D95*
%TO.C,D46*%
X88917660Y-124838017D03*
X89298017Y-124022340D03*
X88482340Y-123641983D03*
X88101983Y-124457660D03*
%TD*%
D96*
%TO.C,D13*%
X77466543Y-84771018D03*
X78203780Y-85287237D03*
X78719999Y-84550000D03*
X77982762Y-84033781D03*
%TD*%
D97*
%TO.C,C32*%
X77362857Y-88914972D03*
X76957143Y-89785028D03*
%TD*%
D98*
%TO.C,C69*%
X123052857Y-89785028D03*
X122647143Y-88914972D03*
%TD*%
D99*
%TO.C,U4*%
X115500002Y-131450000D03*
X113200002Y-131450000D03*
D100*
X113200002Y-137750000D03*
D99*
X110900002Y-131450000D03*
%TD*%
D101*
%TO.C,C7*%
X75090000Y-103900000D03*
X75256702Y-104845416D03*
%TD*%
D102*
%TO.C,C28*%
X120925317Y-85933193D03*
X120374683Y-85146807D03*
%TD*%
D103*
%TO.C,C17*%
X125151835Y-98278173D03*
X125068165Y-97321827D03*
%TD*%
D104*
%TO.C,D22*%
X78876026Y-82855466D03*
X79565466Y-83433974D03*
X80143974Y-82744534D03*
X79454534Y-82166026D03*
%TD*%
D105*
%TO.C,D4*%
X76225289Y-86804711D03*
X77004711Y-87254711D03*
X77454711Y-86475289D03*
X76675289Y-86025289D03*
%TD*%
D106*
%TO.C,C12*%
X85156807Y-120364683D03*
X85943193Y-120915317D03*
%TD*%
D107*
%TO.C,C53*%
X96092708Y-75096649D03*
X95147292Y-75263351D03*
%TD*%
D108*
%TO.C,C82*%
X84177701Y-80401462D03*
X83442299Y-81018538D03*
%TD*%
D109*
%TO.C,D44*%
X123774711Y-113215289D03*
X122995289Y-112765289D03*
X122545289Y-113544711D03*
X123324711Y-113994711D03*
%TD*%
D110*
%TO.C,C63*%
X74800000Y-99520000D03*
X74800000Y-100480000D03*
%TD*%
D111*
%TO.C,D67*%
X88099639Y-75544322D03*
X88479996Y-76359999D03*
X89295673Y-75979642D03*
X88915316Y-75163965D03*
%TD*%
D112*
%TO.C,D26*%
X125706771Y-108881047D03*
X124861047Y-108573229D03*
X124553229Y-109418953D03*
X125398953Y-109726771D03*
%TD*%
D113*
%TO.C,C66*%
X110224972Y-123062857D03*
X111095028Y-122657143D03*
%TD*%
D114*
%TO.C,C9*%
X76957143Y-110214972D03*
X77362857Y-111085028D03*
%TD*%
D19*
%TO.C,C94*%
X115012500Y-67350000D03*
X113462500Y-67350000D03*
%TD*%
D27*
%TO.C,R25*%
X105437500Y-64699998D03*
X105437500Y-63049998D03*
%TD*%
D115*
%TO.C,D71*%
X119546396Y-118910000D03*
X118910000Y-118273604D03*
X118273604Y-118910000D03*
X118910000Y-119546396D03*
%TD*%
D116*
%TO.C,C68*%
X124736649Y-104852708D03*
X124903351Y-103907292D03*
%TD*%
D117*
%TO.C,C26*%
X122637143Y-111085028D03*
X123042857Y-110214972D03*
%TD*%
D118*
%TO.C,D6*%
X108881047Y-74293229D03*
X108573229Y-75138953D03*
X109418953Y-75446771D03*
X109726771Y-74601047D03*
%TD*%
D119*
%TO.C,D31*%
X80453604Y-81080000D03*
X81090000Y-81716396D03*
X81726396Y-81080000D03*
X81090000Y-80443604D03*
%TD*%
D38*
%TO.C,D1*%
X100450000Y-127200000D03*
X100450000Y-126300000D03*
X99550000Y-126300000D03*
X99550000Y-127200000D03*
%TD*%
D120*
%TO.C,C65*%
X86984308Y-121580000D03*
X87815692Y-122060000D03*
%TD*%
D121*
%TO.C,C93*%
X113462501Y-62250000D03*
X115012501Y-62250000D03*
%TD*%
D122*
%TO.C,C77*%
X118991462Y-116567701D03*
X119608538Y-115832299D03*
%TD*%
D123*
%TO.C,D19*%
X95715022Y-126861305D03*
X95871305Y-125974978D03*
X94984978Y-125818695D03*
X94828695Y-126705022D03*
%TD*%
D124*
%TO.C,D24*%
X113205289Y-76225289D03*
X112755289Y-77004711D03*
X113534711Y-77454711D03*
X113984711Y-76675289D03*
%TD*%
D125*
%TO.C,D3*%
X73292091Y-105162319D03*
X74178418Y-105006036D03*
X74022135Y-104119709D03*
X73135808Y-104275992D03*
%TD*%
D126*
%TO.C,D36*%
X111898017Y-124457660D03*
X111517660Y-123641983D03*
X110701983Y-124022340D03*
X111082340Y-124838017D03*
%TD*%
D127*
%TO.C,D66*%
X75161983Y-88907660D03*
X75977660Y-89288017D03*
X76358017Y-88472340D03*
X75542340Y-88091983D03*
%TD*%
D128*
%TO.C,C49*%
X124913351Y-96092708D03*
X124746649Y-95147292D03*
%TD*%
D129*
%TO.C,C79*%
X100480000Y-74790000D03*
X99520000Y-74790000D03*
%TD*%
D130*
%TO.C,C38*%
X123844170Y-91831052D03*
X123515830Y-90928948D03*
%TD*%
D131*
%TO.C,C50*%
X106989999Y-75770001D03*
X106062711Y-75521535D03*
%TD*%
D132*
%TO.C,C67*%
X120374683Y-114853193D03*
X120925317Y-114066807D03*
%TD*%
D133*
%TO.C,C30*%
X114843193Y-79625317D03*
X114056807Y-79074683D03*
%TD*%
D134*
%TO.C,C24*%
X97321827Y-125078165D03*
X98278173Y-125161835D03*
%TD*%
D135*
%TO.C,D70*%
X127137508Y-101920932D03*
X126240932Y-101842492D03*
X126162492Y-102739068D03*
X127059068Y-102817508D03*
%TD*%
D136*
%TO.C,D58*%
X86009993Y-76670577D03*
X86459993Y-77449999D03*
X87239415Y-76999999D03*
X86789415Y-76220577D03*
%TD*%
D137*
%TO.C,D59*%
X104284978Y-73138695D03*
X104128695Y-74025022D03*
X105015022Y-74181305D03*
X105171305Y-73294978D03*
%TD*%
D138*
%TO.C,C85*%
X80391462Y-115832299D03*
X81008538Y-116567701D03*
%TD*%
D139*
%TO.C,C47*%
X117480589Y-118159411D03*
X118159411Y-117480589D03*
%TD*%
D140*
%TO.C,D40*%
X82166026Y-79454534D03*
X82744534Y-80143974D03*
X83433974Y-79565466D03*
X82855466Y-78876026D03*
%TD*%
D141*
%TO.C,C58*%
X123515830Y-109071052D03*
X123844170Y-108168948D03*
%TD*%
D142*
%TO.C,D57*%
X74286457Y-91127905D03*
X75132181Y-91435723D03*
X75439999Y-90589999D03*
X74594275Y-90282181D03*
%TD*%
D143*
%TO.C,D45*%
X109716771Y-125398953D03*
X109408953Y-124553229D03*
X108563229Y-124861047D03*
X108871047Y-125706771D03*
%TD*%
D144*
%TO.C,C59*%
X102678173Y-74921835D03*
X101721827Y-74838165D03*
%TD*%
D145*
%TO.C,D50*%
X101918437Y-72863421D03*
X101839997Y-73759997D03*
X102736573Y-73838437D03*
X102815013Y-72941861D03*
%TD*%
D146*
%TO.C,C78*%
X121590000Y-113015692D03*
X122070000Y-112184308D03*
%TD*%
D147*
%TO.C,D25*%
X125398831Y-90275287D03*
X124553107Y-90583105D03*
X124860925Y-91428829D03*
X125706649Y-91121011D03*
%TD*%
D148*
%TO.C,C48*%
X124215767Y-106983644D03*
X124464233Y-106056356D03*
%TD*%
D149*
%TO.C,D11*%
X81090000Y-119546396D03*
X81726396Y-118910000D03*
X81090000Y-118273604D03*
X80453604Y-118910000D03*
%TD*%
D150*
%TO.C,C27*%
X124474233Y-93943644D03*
X124225767Y-93016356D03*
%TD*%
D151*
%TO.C,C35*%
X125210000Y-100480000D03*
X125210000Y-99520000D03*
%TD*%
D152*
%TO.C,D37*%
X91118953Y-125706771D03*
X91426771Y-124861047D03*
X90581047Y-124553229D03*
X90273229Y-125398953D03*
%TD*%
D153*
%TO.C,C20*%
X76484170Y-90928948D03*
X76155830Y-91831052D03*
%TD*%
D154*
%TO.C,D54*%
X107471135Y-126148198D03*
X107238198Y-125278865D03*
X106368865Y-125511802D03*
X106601802Y-126381135D03*
%TD*%
D155*
%TO.C,C62*%
X81008538Y-83432299D03*
X80391462Y-84167701D03*
%TD*%
D27*
%TO.C,R27*%
X111150000Y-67900000D03*
X111150000Y-66250000D03*
%TD*%
D156*
%TO.C,D12*%
X72950932Y-102817508D03*
X73847508Y-102739068D03*
X73769068Y-101842492D03*
X72872492Y-101920932D03*
%TD*%
D157*
%TO.C,C41*%
X90928948Y-123515830D03*
X91831052Y-123844170D03*
%TD*%
D158*
%TO.C,D49*%
X84033776Y-77982763D03*
X84549995Y-78720000D03*
X85287232Y-78203781D03*
X84771013Y-77466544D03*
%TD*%
D159*
%TO.C,C36*%
X98278173Y-74848165D03*
X97321827Y-74931835D03*
%TD*%
D13*
%TO.C,R23*%
X95575000Y-66750000D03*
X93925000Y-66750000D03*
%TD*%
D160*
%TO.C,C23*%
X103907292Y-124913351D03*
X104852708Y-124746649D03*
%TD*%
D161*
%TO.C,C84*%
X77930000Y-112194308D03*
X78410000Y-113025692D03*
%TD*%
D162*
%TO.C,C29*%
X118159411Y-82519411D03*
X117480589Y-81840589D03*
%TD*%
D163*
%TO.C,D18*%
X115966728Y-122020509D03*
X115450509Y-121283272D03*
X114713272Y-121799491D03*
X115229491Y-122536728D03*
%TD*%
D164*
%TO.C,D35*%
X124838017Y-111082340D03*
X124022340Y-110701983D03*
X123641983Y-111517660D03*
X124457660Y-111898017D03*
%TD*%
D165*
%TO.C,C46*%
X106066356Y-124474233D03*
X106993644Y-124225767D03*
%TD*%
D166*
%TO.C,D48*%
X73608865Y-93398198D03*
X74478198Y-93631135D03*
X74711135Y-92761802D03*
X73841802Y-92528865D03*
%TD*%
D167*
%TO.C,D14*%
X92527059Y-73840665D03*
X92759996Y-74709998D03*
X93629329Y-74477061D03*
X93396392Y-73607728D03*
%TD*%
D168*
%TO.C,C14*%
X93016356Y-124225767D03*
X93943644Y-124474233D03*
%TD*%
D169*
%TO.C,C34*%
X112194308Y-122080000D03*
X113025692Y-121600000D03*
%TD*%
D170*
%TO.C,C71*%
X85933193Y-79084683D03*
X85146807Y-79635317D03*
%TD*%
D171*
%TO.C,D52*%
X127049068Y-97182492D03*
X126152492Y-97260932D03*
X126230932Y-98157508D03*
X127127508Y-98079068D03*
%TD*%
D172*
%TO.C,C70*%
X89785028Y-76957143D03*
X88914972Y-77362857D03*
%TD*%
D173*
%TO.C,C6*%
X99520000Y-125210000D03*
X100480000Y-125210000D03*
%TD*%
D30*
%TO.C,R22*%
X84250000Y-135850002D03*
X84250000Y-137500002D03*
%TD*%
D174*
%TO.C,C81*%
X87810000Y-77940000D03*
X86978616Y-78420000D03*
%TD*%
D175*
%TO.C,D20*%
X79450001Y-117829999D03*
X80139441Y-117251491D03*
X79560933Y-116562051D03*
X78871493Y-117140559D03*
%TD*%
D176*
%TO.C,D32*%
X97181556Y-72943422D03*
X97259996Y-73839998D03*
X98156572Y-73761558D03*
X98078132Y-72864982D03*
%TD*%
D177*
%TO.C,D43*%
X126705022Y-94838695D03*
X125818695Y-94994978D03*
X125974978Y-95881305D03*
X126861305Y-95725022D03*
%TD*%
D178*
%TO.C,C73*%
X79635317Y-85156807D03*
X79084683Y-85943193D03*
%TD*%
D20*
%TO.C,Q2*%
X107250000Y-66350000D03*
X107250000Y-68250000D03*
X109125000Y-67300000D03*
%TD*%
D179*
%TO.C,C52*%
X93940000Y-75520001D03*
X93012712Y-75768467D03*
%TD*%
M02*
