%TF.GenerationSoftware,KiCad,Pcbnew,7.0.10*%
%TF.CreationDate,2024-01-23T14:11:02+00:00*%
%TF.ProjectId,view_base,76696577-5f62-4617-9365-2e6b69636164,rev?*%
%TF.SameCoordinates,Original*%
%TF.FileFunction,Other,Comment*%
%FSLAX46Y46*%
G04 Gerber Fmt 4.6, Leading zero omitted, Abs format (unit mm)*
G04 Created by KiCad (PCBNEW 7.0.10) date 2024-01-23 14:11:02*
%MOMM*%
%LPD*%
G01*
G04 APERTURE LIST*
%ADD10C,0.150000*%
%ADD11C,0.002000*%
G04 APERTURE END LIST*
D10*
X96725795Y-121639744D02*
X96018689Y-120932637D01*
X96018689Y-120932637D02*
X96759467Y-121202011D01*
X96759467Y-121202011D02*
X96490093Y-120461232D01*
X96490093Y-120461232D02*
X97197200Y-121168339D01*
X97298215Y-120663263D02*
X97634933Y-120326546D01*
X97432902Y-120932637D02*
X96961498Y-119989828D01*
X96961498Y-119989828D02*
X97904307Y-120461233D01*
X97365559Y-119585767D02*
X98544070Y-119821469D01*
X97836963Y-119114362D02*
X98072666Y-120292874D01*
X98813444Y-119552095D02*
X98106337Y-118844988D01*
X99150161Y-119215378D02*
X98443055Y-118508271D01*
X98443055Y-118508271D02*
X99183833Y-118777645D01*
X99183833Y-118777645D02*
X98914459Y-118036867D01*
X98914459Y-118036867D02*
X99621566Y-118743973D01*
X99251176Y-117700149D02*
X99823596Y-118272569D01*
X99823596Y-118272569D02*
X99924611Y-118306241D01*
X99924611Y-118306241D02*
X99991955Y-118306241D01*
X99991955Y-118306241D02*
X100092970Y-118272569D01*
X100092970Y-118272569D02*
X100227657Y-118137882D01*
X100227657Y-118137882D02*
X100261329Y-118036867D01*
X100261329Y-118036867D02*
X100261329Y-117969523D01*
X100261329Y-117969523D02*
X100227657Y-117868508D01*
X100227657Y-117868508D02*
X99655237Y-117296088D01*
X100699062Y-117666478D02*
X99991955Y-116959371D01*
X99991955Y-116959371D02*
X100732733Y-117228745D01*
X100732733Y-117228745D02*
X100463359Y-116487966D01*
X100463359Y-116487966D02*
X101170466Y-117195073D01*
X101406168Y-117094058D02*
X101944916Y-116555310D01*
X102045932Y-116319607D02*
X101338825Y-115612501D01*
X101338825Y-115612501D02*
X101608199Y-115343127D01*
X101608199Y-115343127D02*
X101709214Y-115309455D01*
X101709214Y-115309455D02*
X101776558Y-115309455D01*
X101776558Y-115309455D02*
X101877573Y-115343127D01*
X101877573Y-115343127D02*
X101978588Y-115444142D01*
X101978588Y-115444142D02*
X102012260Y-115545157D01*
X102012260Y-115545157D02*
X102012260Y-115612501D01*
X102012260Y-115612501D02*
X101978588Y-115713516D01*
X101978588Y-115713516D02*
X101709214Y-115982890D01*
X102517336Y-115444142D02*
X102854054Y-115107424D01*
X102652023Y-115713516D02*
X102180619Y-114770707D01*
X102180619Y-114770707D02*
X103123428Y-115242111D01*
X103695848Y-114535004D02*
X103695848Y-114602348D01*
X103695848Y-114602348D02*
X103628504Y-114737035D01*
X103628504Y-114737035D02*
X103561161Y-114804378D01*
X103561161Y-114804378D02*
X103426474Y-114871722D01*
X103426474Y-114871722D02*
X103291787Y-114871722D01*
X103291787Y-114871722D02*
X103190772Y-114838050D01*
X103190772Y-114838050D02*
X103022413Y-114737035D01*
X103022413Y-114737035D02*
X102921397Y-114636020D01*
X102921397Y-114636020D02*
X102820382Y-114467661D01*
X102820382Y-114467661D02*
X102786710Y-114366646D01*
X102786710Y-114366646D02*
X102786710Y-114231959D01*
X102786710Y-114231959D02*
X102854054Y-114097272D01*
X102854054Y-114097272D02*
X102921397Y-114029928D01*
X102921397Y-114029928D02*
X103056084Y-113962585D01*
X103056084Y-113962585D02*
X103123428Y-113962585D01*
X104066237Y-114299302D02*
X103359130Y-113592195D01*
X104470298Y-113895241D02*
X103763191Y-113794226D01*
X103763191Y-113188134D02*
X103763191Y-113996256D01*
X104537642Y-113423837D02*
X104874359Y-113087119D01*
X104672329Y-113693211D02*
X104200924Y-112750402D01*
X104200924Y-112750402D02*
X105143733Y-113221806D01*
X105076390Y-111942280D02*
X104975374Y-111975951D01*
X104975374Y-111975951D02*
X104874359Y-112076967D01*
X104874359Y-112076967D02*
X104807016Y-112211654D01*
X104807016Y-112211654D02*
X104807016Y-112346341D01*
X104807016Y-112346341D02*
X104840687Y-112447356D01*
X104840687Y-112447356D02*
X104941703Y-112615715D01*
X104941703Y-112615715D02*
X105042718Y-112716730D01*
X105042718Y-112716730D02*
X105211077Y-112817745D01*
X105211077Y-112817745D02*
X105312092Y-112851417D01*
X105312092Y-112851417D02*
X105446779Y-112851417D01*
X105446779Y-112851417D02*
X105581466Y-112784073D01*
X105581466Y-112784073D02*
X105648809Y-112716730D01*
X105648809Y-112716730D02*
X105716153Y-112582043D01*
X105716153Y-112582043D02*
X105716153Y-112514699D01*
X105716153Y-112514699D02*
X105480451Y-112278997D01*
X105480451Y-112278997D02*
X105345764Y-112413684D01*
X105716153Y-111908608D02*
X105951855Y-111672906D01*
X106423260Y-111942280D02*
X106086542Y-112278997D01*
X106086542Y-112278997D02*
X105379435Y-111571890D01*
X105379435Y-111571890D02*
X105716153Y-111235173D01*
X106625290Y-111874936D02*
X107164038Y-111336188D01*
X107265054Y-111100485D02*
X106557947Y-110393379D01*
X106894665Y-110730096D02*
X107298726Y-110326035D01*
X107669115Y-110696424D02*
X106962008Y-109989318D01*
X107635443Y-109989318D02*
X107871145Y-109753615D01*
X108342550Y-110022989D02*
X108005832Y-110359707D01*
X108005832Y-110359707D02*
X107298725Y-109652600D01*
X107298725Y-109652600D02*
X107635443Y-109315883D01*
X108645596Y-109719944D02*
X107938489Y-109012837D01*
X108679267Y-108339402D02*
X108578252Y-108373074D01*
X108578252Y-108373074D02*
X108477237Y-108474089D01*
X108477237Y-108474089D02*
X108409893Y-108608776D01*
X108409893Y-108608776D02*
X108409893Y-108743463D01*
X108409893Y-108743463D02*
X108443565Y-108844478D01*
X108443565Y-108844478D02*
X108544580Y-109012837D01*
X108544580Y-109012837D02*
X108645595Y-109113852D01*
X108645595Y-109113852D02*
X108813954Y-109214868D01*
X108813954Y-109214868D02*
X108914969Y-109248539D01*
X108914969Y-109248539D02*
X109049656Y-109248539D01*
X109049656Y-109248539D02*
X109184343Y-109181196D01*
X109184343Y-109181196D02*
X109251687Y-109113852D01*
X109251687Y-109113852D02*
X109319030Y-108979165D01*
X109319030Y-108979165D02*
X109319030Y-108911822D01*
X109319030Y-108911822D02*
X109083328Y-108676120D01*
X109083328Y-108676120D02*
X108948641Y-108810807D01*
X109689420Y-108676120D02*
X108982313Y-107969013D01*
X109319030Y-108305730D02*
X109723091Y-107901669D01*
X110093481Y-108272059D02*
X109386374Y-107564952D01*
X109622076Y-107329250D02*
X110026137Y-106925189D01*
X110531213Y-107834326D02*
X109824107Y-107127219D01*
X110901603Y-107329249D02*
X110968946Y-107329249D01*
X110968946Y-107329249D02*
X110968946Y-107396593D01*
X110968946Y-107396593D02*
X110901603Y-107396593D01*
X110901603Y-107396593D02*
X110901603Y-107329249D01*
X110901603Y-107329249D02*
X110968946Y-107396593D01*
X110531213Y-106958860D02*
X110598557Y-106958860D01*
X110598557Y-106958860D02*
X110598557Y-107026204D01*
X110598557Y-107026204D02*
X110531213Y-107026204D01*
X110531213Y-107026204D02*
X110531213Y-106958860D01*
X110531213Y-106958860D02*
X110598557Y-107026204D01*
X111204648Y-107295578D02*
X111743396Y-106756830D01*
X111069961Y-105881364D02*
X111507694Y-105443632D01*
X111507694Y-105443632D02*
X111541366Y-105948708D01*
X111541366Y-105948708D02*
X111642381Y-105847693D01*
X111642381Y-105847693D02*
X111743396Y-105814021D01*
X111743396Y-105814021D02*
X111810740Y-105814021D01*
X111810740Y-105814021D02*
X111911755Y-105847693D01*
X111911755Y-105847693D02*
X112080114Y-106016051D01*
X112080114Y-106016051D02*
X112113786Y-106117067D01*
X112113786Y-106117067D02*
X112113786Y-106184410D01*
X112113786Y-106184410D02*
X112080114Y-106285425D01*
X112080114Y-106285425D02*
X111878083Y-106487456D01*
X111878083Y-106487456D02*
X111777068Y-106521128D01*
X111777068Y-106521128D02*
X111709725Y-106521128D01*
X112450503Y-105780349D02*
X112517847Y-105780349D01*
X112517847Y-105780349D02*
X112517847Y-105847693D01*
X112517847Y-105847693D02*
X112450503Y-105847693D01*
X112450503Y-105847693D02*
X112450503Y-105780349D01*
X112450503Y-105780349D02*
X112517847Y-105847693D01*
X112686205Y-104736525D02*
X113157610Y-105207930D01*
X112248472Y-104635510D02*
X112585190Y-105308945D01*
X112585190Y-105308945D02*
X113022923Y-104871212D01*
X113426984Y-105073243D02*
X113965732Y-104534495D01*
X114066747Y-104298792D02*
X113359640Y-103591685D01*
X113359640Y-103591685D02*
X114100419Y-103861059D01*
X114100419Y-103861059D02*
X113831045Y-103120281D01*
X113831045Y-103120281D02*
X114538152Y-103827388D01*
X114874869Y-103490670D02*
X114167762Y-102783563D01*
X114167762Y-102783563D02*
X114908541Y-103052937D01*
X114908541Y-103052937D02*
X114639167Y-102312159D01*
X114639167Y-102312159D02*
X115346274Y-103019266D01*
X106670410Y-115287231D02*
X105963303Y-114580125D01*
X105963303Y-114580125D02*
X107074471Y-114883170D01*
X107074471Y-114883170D02*
X106367364Y-114176063D01*
X106838769Y-113704659D02*
X106973456Y-113569972D01*
X106973456Y-113569972D02*
X107074471Y-113536300D01*
X107074471Y-113536300D02*
X107209158Y-113536300D01*
X107209158Y-113536300D02*
X107377517Y-113637316D01*
X107377517Y-113637316D02*
X107613219Y-113873018D01*
X107613219Y-113873018D02*
X107714234Y-114041377D01*
X107714234Y-114041377D02*
X107714234Y-114176064D01*
X107714234Y-114176064D02*
X107680562Y-114277079D01*
X107680562Y-114277079D02*
X107545875Y-114411766D01*
X107545875Y-114411766D02*
X107444860Y-114445438D01*
X107444860Y-114445438D02*
X107310173Y-114445438D01*
X107310173Y-114445438D02*
X107141814Y-114344422D01*
X107141814Y-114344422D02*
X106906112Y-114108720D01*
X106906112Y-114108720D02*
X106805097Y-113940361D01*
X106805097Y-113940361D02*
X106805097Y-113805674D01*
X106805097Y-113805674D02*
X106838769Y-113704659D01*
X107343845Y-113199583D02*
X107747906Y-112795522D01*
X108252982Y-113704659D02*
X107545875Y-112997552D01*
X108320326Y-112896537D02*
X108556028Y-112660835D01*
X109027433Y-112930209D02*
X108690715Y-113266926D01*
X108690715Y-113266926D02*
X107983608Y-112559819D01*
X107983608Y-112559819D02*
X108320326Y-112223102D01*
D11*
X114978031Y-120487805D02*
X114978031Y-120496357D01*
X114978031Y-120496357D02*
X114969478Y-120513462D01*
X114969478Y-120513462D02*
X114960926Y-120522015D01*
X114960926Y-120522015D02*
X114943820Y-120530568D01*
X114943820Y-120530568D02*
X114926715Y-120530568D01*
X114926715Y-120530568D02*
X114913886Y-120526291D01*
X114913886Y-120526291D02*
X114892505Y-120513462D01*
X114892505Y-120513462D02*
X114879676Y-120500633D01*
X114879676Y-120500633D02*
X114866847Y-120479252D01*
X114866847Y-120479252D02*
X114862570Y-120466423D01*
X114862570Y-120466423D02*
X114862570Y-120449318D01*
X114862570Y-120449318D02*
X114871123Y-120432212D01*
X114871123Y-120432212D02*
X114879676Y-120423660D01*
X114879676Y-120423660D02*
X114896781Y-120415107D01*
X114896781Y-120415107D02*
X114905334Y-120415107D01*
X115037899Y-120445041D02*
X115025070Y-120449318D01*
X115025070Y-120449318D02*
X115016518Y-120449318D01*
X115016518Y-120449318D02*
X115003689Y-120445041D01*
X115003689Y-120445041D02*
X114978031Y-120419384D01*
X114978031Y-120419384D02*
X114973755Y-120406555D01*
X114973755Y-120406555D02*
X114973755Y-120398002D01*
X114973755Y-120398002D02*
X114978031Y-120385173D01*
X114978031Y-120385173D02*
X114990860Y-120372344D01*
X114990860Y-120372344D02*
X115003689Y-120368068D01*
X115003689Y-120368068D02*
X115012241Y-120368068D01*
X115012241Y-120368068D02*
X115025070Y-120372344D01*
X115025070Y-120372344D02*
X115050728Y-120398002D01*
X115050728Y-120398002D02*
X115055005Y-120410831D01*
X115055005Y-120410831D02*
X115055005Y-120419384D01*
X115055005Y-120419384D02*
X115050728Y-120432212D01*
X115050728Y-120432212D02*
X115037899Y-120445041D01*
X115046452Y-120316752D02*
X115136255Y-120406554D01*
X115050728Y-120321028D02*
X115055005Y-120308199D01*
X115055005Y-120308199D02*
X115072110Y-120291094D01*
X115072110Y-120291094D02*
X115084939Y-120286818D01*
X115084939Y-120286818D02*
X115093492Y-120286818D01*
X115093492Y-120286818D02*
X115106320Y-120291094D01*
X115106320Y-120291094D02*
X115131978Y-120316752D01*
X115131978Y-120316752D02*
X115136255Y-120329581D01*
X115136255Y-120329581D02*
X115136255Y-120338133D01*
X115136255Y-120338133D02*
X115131978Y-120350962D01*
X115131978Y-120350962D02*
X115114873Y-120368068D01*
X115114873Y-120368068D02*
X115102044Y-120372344D01*
X115119150Y-120244054D02*
X115200400Y-120282541D01*
X115161913Y-120201291D02*
X115200400Y-120282541D01*
X115200400Y-120282541D02*
X115213228Y-120312475D01*
X115213228Y-120312475D02*
X115213228Y-120321028D01*
X115213228Y-120321028D02*
X115208952Y-120333857D01*
X115255992Y-120226949D02*
X115196123Y-120167081D01*
X115213229Y-120184186D02*
X115208952Y-120171357D01*
X115208952Y-120171357D02*
X115208952Y-120162804D01*
X115208952Y-120162804D02*
X115213229Y-120149975D01*
X115213229Y-120149975D02*
X115221781Y-120141423D01*
X115311584Y-120171357D02*
X115251715Y-120111489D01*
X115221781Y-120081554D02*
X115221781Y-120090107D01*
X115221781Y-120090107D02*
X115230334Y-120090107D01*
X115230334Y-120090107D02*
X115230334Y-120081554D01*
X115230334Y-120081554D02*
X115221781Y-120081554D01*
X115221781Y-120081554D02*
X115230334Y-120090107D01*
X115332965Y-120030239D02*
X115405662Y-120102936D01*
X115405662Y-120102936D02*
X115409939Y-120115765D01*
X115409939Y-120115765D02*
X115409939Y-120124318D01*
X115409939Y-120124318D02*
X115405662Y-120137147D01*
X115405662Y-120137147D02*
X115392833Y-120149976D01*
X115392833Y-120149976D02*
X115380005Y-120154252D01*
X115388557Y-120085831D02*
X115384281Y-120098660D01*
X115384281Y-120098660D02*
X115367176Y-120115765D01*
X115367176Y-120115765D02*
X115354347Y-120120041D01*
X115354347Y-120120041D02*
X115345794Y-120120041D01*
X115345794Y-120120041D02*
X115332965Y-120115765D01*
X115332965Y-120115765D02*
X115307307Y-120090107D01*
X115307307Y-120090107D02*
X115303031Y-120077278D01*
X115303031Y-120077278D02*
X115303031Y-120068726D01*
X115303031Y-120068726D02*
X115307307Y-120055897D01*
X115307307Y-120055897D02*
X115324412Y-120038791D01*
X115324412Y-120038791D02*
X115337241Y-120034515D01*
X115435597Y-120047344D02*
X115345794Y-119957541D01*
X115474084Y-120008857D02*
X115427044Y-119961818D01*
X115427044Y-119961818D02*
X115414215Y-119957541D01*
X115414215Y-119957541D02*
X115401386Y-119961818D01*
X115401386Y-119961818D02*
X115388557Y-119974647D01*
X115388557Y-119974647D02*
X115384281Y-119987476D01*
X115384281Y-119987476D02*
X115384281Y-119996028D01*
X115444150Y-119919054D02*
X115478360Y-119884844D01*
X115427044Y-119876291D02*
X115504018Y-119953265D01*
X115504018Y-119953265D02*
X115516847Y-119957541D01*
X115516847Y-119957541D02*
X115529676Y-119953265D01*
X115529676Y-119953265D02*
X115538228Y-119944712D01*
X115551057Y-119769384D02*
X115551057Y-119760831D01*
X115551057Y-119760831D02*
X115555333Y-119748002D01*
X115555333Y-119748002D02*
X115576715Y-119726621D01*
X115576715Y-119726621D02*
X115589544Y-119722344D01*
X115589544Y-119722344D02*
X115598097Y-119722344D01*
X115598097Y-119722344D02*
X115610925Y-119726621D01*
X115610925Y-119726621D02*
X115619478Y-119735173D01*
X115619478Y-119735173D02*
X115628031Y-119752278D01*
X115628031Y-119752278D02*
X115628031Y-119854910D01*
X115628031Y-119854910D02*
X115683623Y-119799318D01*
X115649412Y-119653924D02*
X115657965Y-119645371D01*
X115657965Y-119645371D02*
X115670794Y-119641095D01*
X115670794Y-119641095D02*
X115679346Y-119641095D01*
X115679346Y-119641095D02*
X115692175Y-119645371D01*
X115692175Y-119645371D02*
X115713557Y-119658200D01*
X115713557Y-119658200D02*
X115734938Y-119679581D01*
X115734938Y-119679581D02*
X115747767Y-119700963D01*
X115747767Y-119700963D02*
X115752044Y-119713792D01*
X115752044Y-119713792D02*
X115752044Y-119722345D01*
X115752044Y-119722345D02*
X115747767Y-119735173D01*
X115747767Y-119735173D02*
X115739215Y-119743726D01*
X115739215Y-119743726D02*
X115726386Y-119748002D01*
X115726386Y-119748002D02*
X115717833Y-119748002D01*
X115717833Y-119748002D02*
X115705004Y-119743726D01*
X115705004Y-119743726D02*
X115683623Y-119730897D01*
X115683623Y-119730897D02*
X115662241Y-119709516D01*
X115662241Y-119709516D02*
X115649412Y-119688134D01*
X115649412Y-119688134D02*
X115645136Y-119675305D01*
X115645136Y-119675305D02*
X115645136Y-119666752D01*
X115645136Y-119666752D02*
X115649412Y-119653924D01*
X115722109Y-119598332D02*
X115722109Y-119589779D01*
X115722109Y-119589779D02*
X115726385Y-119576950D01*
X115726385Y-119576950D02*
X115747767Y-119555569D01*
X115747767Y-119555569D02*
X115760596Y-119551292D01*
X115760596Y-119551292D02*
X115769149Y-119551292D01*
X115769149Y-119551292D02*
X115781977Y-119555569D01*
X115781977Y-119555569D02*
X115790530Y-119564121D01*
X115790530Y-119564121D02*
X115799083Y-119581226D01*
X115799083Y-119581226D02*
X115799083Y-119683858D01*
X115799083Y-119683858D02*
X115854675Y-119628266D01*
X115940201Y-119542740D02*
X115888885Y-119594056D01*
X115914543Y-119568398D02*
X115824740Y-119478595D01*
X115824740Y-119478595D02*
X115829017Y-119499977D01*
X115829017Y-119499977D02*
X115829017Y-119517082D01*
X115829017Y-119517082D02*
X115824740Y-119529911D01*
X116017174Y-119414451D02*
X116059937Y-119371688D01*
X116034279Y-119448661D02*
X115974411Y-119328925D01*
X115974411Y-119328925D02*
X116094148Y-119388793D01*
X116158292Y-119316096D02*
X116154016Y-119328925D01*
X116154016Y-119328925D02*
X116136911Y-119346030D01*
X116136911Y-119346030D02*
X116124082Y-119350306D01*
X116124082Y-119350306D02*
X116115529Y-119350306D01*
X116115529Y-119350306D02*
X116102700Y-119346030D01*
X116102700Y-119346030D02*
X116077042Y-119320372D01*
X116077042Y-119320372D02*
X116072766Y-119307543D01*
X116072766Y-119307543D02*
X116072766Y-119298990D01*
X116072766Y-119298990D02*
X116077042Y-119286161D01*
X116077042Y-119286161D02*
X116094148Y-119269056D01*
X116094148Y-119269056D02*
X116106977Y-119264780D01*
X116235266Y-119239122D02*
X116230990Y-119251951D01*
X116230990Y-119251951D02*
X116213884Y-119269056D01*
X116213884Y-119269056D02*
X116201055Y-119273333D01*
X116201055Y-119273333D02*
X116192503Y-119273333D01*
X116192503Y-119273333D02*
X116179674Y-119269056D01*
X116179674Y-119269056D02*
X116154016Y-119243398D01*
X116154016Y-119243398D02*
X116149740Y-119230570D01*
X116149740Y-119230570D02*
X116149740Y-119222017D01*
X116149740Y-119222017D02*
X116154016Y-119209188D01*
X116154016Y-119209188D02*
X116171121Y-119192083D01*
X116171121Y-119192083D02*
X116183950Y-119187806D01*
X116307963Y-119166425D02*
X116303687Y-119179254D01*
X116303687Y-119179254D02*
X116286582Y-119196359D01*
X116286582Y-119196359D02*
X116273753Y-119200635D01*
X116273753Y-119200635D02*
X116260924Y-119196359D01*
X116260924Y-119196359D02*
X116226713Y-119162149D01*
X116226713Y-119162149D02*
X116222437Y-119149320D01*
X116222437Y-119149320D02*
X116226713Y-119136491D01*
X116226713Y-119136491D02*
X116243818Y-119119386D01*
X116243818Y-119119386D02*
X116256647Y-119115109D01*
X116256647Y-119115109D02*
X116269476Y-119119386D01*
X116269476Y-119119386D02*
X116278029Y-119127938D01*
X116278029Y-119127938D02*
X116243818Y-119179254D01*
X116367831Y-119115109D02*
X116355002Y-119119386D01*
X116355002Y-119119386D02*
X116342174Y-119115109D01*
X116342174Y-119115109D02*
X116265200Y-119038136D01*
X116431976Y-119042412D02*
X116427700Y-119055241D01*
X116427700Y-119055241D02*
X116410595Y-119072346D01*
X116410595Y-119072346D02*
X116397766Y-119076622D01*
X116397766Y-119076622D02*
X116384937Y-119072346D01*
X116384937Y-119072346D02*
X116350726Y-119038136D01*
X116350726Y-119038136D02*
X116346450Y-119025307D01*
X116346450Y-119025307D02*
X116350726Y-119012478D01*
X116350726Y-119012478D02*
X116367832Y-118995372D01*
X116367832Y-118995372D02*
X116380660Y-118991096D01*
X116380660Y-118991096D02*
X116393489Y-118995372D01*
X116393489Y-118995372D02*
X116402042Y-119003925D01*
X116402042Y-119003925D02*
X116367832Y-119055241D01*
X116479016Y-119003925D02*
X116419147Y-118944057D01*
X116436252Y-118961162D02*
X116431976Y-118948333D01*
X116431976Y-118948333D02*
X116431976Y-118939780D01*
X116431976Y-118939780D02*
X116436252Y-118926952D01*
X116436252Y-118926952D02*
X116444805Y-118918399D01*
X116573094Y-118909846D02*
X116526055Y-118862807D01*
X116526055Y-118862807D02*
X116513226Y-118858531D01*
X116513226Y-118858531D02*
X116500397Y-118862807D01*
X116500397Y-118862807D02*
X116483292Y-118879912D01*
X116483292Y-118879912D02*
X116479016Y-118892741D01*
X116568818Y-118905570D02*
X116564542Y-118918399D01*
X116564542Y-118918399D02*
X116543160Y-118939780D01*
X116543160Y-118939780D02*
X116530331Y-118944057D01*
X116530331Y-118944057D02*
X116517502Y-118939780D01*
X116517502Y-118939780D02*
X116508950Y-118931228D01*
X116508950Y-118931228D02*
X116504673Y-118918399D01*
X116504673Y-118918399D02*
X116508950Y-118905570D01*
X116508950Y-118905570D02*
X116530331Y-118884188D01*
X116530331Y-118884188D02*
X116534608Y-118871359D01*
X116543160Y-118820044D02*
X116577371Y-118785833D01*
X116526055Y-118777280D02*
X116603029Y-118854254D01*
X116603029Y-118854254D02*
X116615858Y-118858530D01*
X116615858Y-118858530D02*
X116628687Y-118854254D01*
X116628687Y-118854254D02*
X116637239Y-118845701D01*
X116697107Y-118777281D02*
X116692831Y-118790110D01*
X116692831Y-118790110D02*
X116675726Y-118807215D01*
X116675726Y-118807215D02*
X116662897Y-118811491D01*
X116662897Y-118811491D02*
X116650068Y-118807215D01*
X116650068Y-118807215D02*
X116615857Y-118773004D01*
X116615857Y-118773004D02*
X116611581Y-118760175D01*
X116611581Y-118760175D02*
X116615857Y-118747347D01*
X116615857Y-118747347D02*
X116632963Y-118730241D01*
X116632963Y-118730241D02*
X116645792Y-118725965D01*
X116645792Y-118725965D02*
X116658620Y-118730241D01*
X116658620Y-118730241D02*
X116667173Y-118738794D01*
X116667173Y-118738794D02*
X116632963Y-118790110D01*
X116782633Y-118700307D02*
X116692831Y-118610505D01*
X116778357Y-118696031D02*
X116774081Y-118708860D01*
X116774081Y-118708860D02*
X116756976Y-118725965D01*
X116756976Y-118725965D02*
X116744147Y-118730241D01*
X116744147Y-118730241D02*
X116735594Y-118730241D01*
X116735594Y-118730241D02*
X116722765Y-118725965D01*
X116722765Y-118725965D02*
X116697107Y-118700307D01*
X116697107Y-118700307D02*
X116692831Y-118687478D01*
X116692831Y-118687478D02*
X116692831Y-118678926D01*
X116692831Y-118678926D02*
X116697107Y-118666097D01*
X116697107Y-118666097D02*
X116714212Y-118648991D01*
X116714212Y-118648991D02*
X116727041Y-118644715D01*
X116893818Y-118589123D02*
X116804015Y-118499320D01*
X116804015Y-118499320D02*
X116825397Y-118477939D01*
X116825397Y-118477939D02*
X116842502Y-118469386D01*
X116842502Y-118469386D02*
X116859607Y-118469386D01*
X116859607Y-118469386D02*
X116872436Y-118473662D01*
X116872436Y-118473662D02*
X116893818Y-118486491D01*
X116893818Y-118486491D02*
X116906647Y-118499320D01*
X116906647Y-118499320D02*
X116919476Y-118520702D01*
X116919476Y-118520702D02*
X116923752Y-118533531D01*
X116923752Y-118533531D02*
X116923752Y-118550636D01*
X116923752Y-118550636D02*
X116915199Y-118567741D01*
X116915199Y-118567741D02*
X116893818Y-118589123D01*
X117013555Y-118460833D02*
X117009278Y-118473662D01*
X117009278Y-118473662D02*
X116992173Y-118490768D01*
X116992173Y-118490768D02*
X116979344Y-118495044D01*
X116979344Y-118495044D02*
X116966515Y-118490768D01*
X116966515Y-118490768D02*
X116932305Y-118456557D01*
X116932305Y-118456557D02*
X116928028Y-118443728D01*
X116928028Y-118443728D02*
X116932305Y-118430899D01*
X116932305Y-118430899D02*
X116949410Y-118413794D01*
X116949410Y-118413794D02*
X116962239Y-118409518D01*
X116962239Y-118409518D02*
X116975068Y-118413794D01*
X116975068Y-118413794D02*
X116983620Y-118422347D01*
X116983620Y-118422347D02*
X116949410Y-118473662D01*
X117052041Y-118422347D02*
X117064870Y-118418070D01*
X117064870Y-118418070D02*
X117081975Y-118400965D01*
X117081975Y-118400965D02*
X117086252Y-118388136D01*
X117086252Y-118388136D02*
X117081975Y-118375307D01*
X117081975Y-118375307D02*
X117077699Y-118371031D01*
X117077699Y-118371031D02*
X117064870Y-118366755D01*
X117064870Y-118366755D02*
X117052041Y-118371031D01*
X117052041Y-118371031D02*
X117039212Y-118383860D01*
X117039212Y-118383860D02*
X117026383Y-118388136D01*
X117026383Y-118388136D02*
X117013554Y-118383860D01*
X117013554Y-118383860D02*
X117009278Y-118379584D01*
X117009278Y-118379584D02*
X117005002Y-118366755D01*
X117005002Y-118366755D02*
X117009278Y-118353926D01*
X117009278Y-118353926D02*
X117022107Y-118341097D01*
X117022107Y-118341097D02*
X117034936Y-118336821D01*
X117133292Y-118349649D02*
X117073423Y-118289781D01*
X117043489Y-118259847D02*
X117043489Y-118268399D01*
X117043489Y-118268399D02*
X117052042Y-118268399D01*
X117052042Y-118268399D02*
X117052042Y-118259847D01*
X117052042Y-118259847D02*
X117043489Y-118259847D01*
X117043489Y-118259847D02*
X117052042Y-118268399D01*
X117154673Y-118208531D02*
X117227370Y-118281228D01*
X117227370Y-118281228D02*
X117231647Y-118294057D01*
X117231647Y-118294057D02*
X117231647Y-118302610D01*
X117231647Y-118302610D02*
X117227370Y-118315439D01*
X117227370Y-118315439D02*
X117214541Y-118328268D01*
X117214541Y-118328268D02*
X117201712Y-118332544D01*
X117210265Y-118264123D02*
X117205989Y-118276952D01*
X117205989Y-118276952D02*
X117188883Y-118294057D01*
X117188883Y-118294057D02*
X117176055Y-118298334D01*
X117176055Y-118298334D02*
X117167502Y-118298334D01*
X117167502Y-118298334D02*
X117154673Y-118294057D01*
X117154673Y-118294057D02*
X117129015Y-118268399D01*
X117129015Y-118268399D02*
X117124739Y-118255570D01*
X117124739Y-118255570D02*
X117124739Y-118247018D01*
X117124739Y-118247018D02*
X117129015Y-118234189D01*
X117129015Y-118234189D02*
X117146120Y-118217084D01*
X117146120Y-118217084D02*
X117158949Y-118212807D01*
X117197436Y-118165768D02*
X117257305Y-118225636D01*
X117205989Y-118174320D02*
X117205989Y-118165768D01*
X117205989Y-118165768D02*
X117210265Y-118152939D01*
X117210265Y-118152939D02*
X117223094Y-118140110D01*
X117223094Y-118140110D02*
X117235923Y-118135833D01*
X117235923Y-118135833D02*
X117248752Y-118140110D01*
X117248752Y-118140110D02*
X117295791Y-118187149D01*
X117330002Y-118144386D02*
X117342831Y-118140110D01*
X117342831Y-118140110D02*
X117359936Y-118123004D01*
X117359936Y-118123004D02*
X117364213Y-118110175D01*
X117364213Y-118110175D02*
X117359936Y-118097346D01*
X117359936Y-118097346D02*
X117355660Y-118093070D01*
X117355660Y-118093070D02*
X117342831Y-118088794D01*
X117342831Y-118088794D02*
X117330002Y-118093070D01*
X117330002Y-118093070D02*
X117317173Y-118105899D01*
X117317173Y-118105899D02*
X117304344Y-118110175D01*
X117304344Y-118110175D02*
X117291515Y-118105899D01*
X117291515Y-118105899D02*
X117287239Y-118101623D01*
X117287239Y-118101623D02*
X117282963Y-118088794D01*
X117282963Y-118088794D02*
X117287239Y-118075965D01*
X117287239Y-118075965D02*
X117300068Y-118063136D01*
X117300068Y-118063136D02*
X117312897Y-118058860D01*
X117402700Y-118063136D02*
X117411252Y-118063136D01*
X117411252Y-118063136D02*
X117411252Y-118071688D01*
X117411252Y-118071688D02*
X117402700Y-118071688D01*
X117402700Y-118071688D02*
X117402700Y-118063136D01*
X117402700Y-118063136D02*
X117411252Y-118071688D01*
X117492502Y-117939123D02*
X117535265Y-117896360D01*
X117509608Y-117973333D02*
X117449739Y-117853596D01*
X117449739Y-117853596D02*
X117569476Y-117913465D01*
X117612239Y-117870702D02*
X117599410Y-117874978D01*
X117599410Y-117874978D02*
X117586581Y-117870702D01*
X117586581Y-117870702D02*
X117509607Y-117793728D01*
X117659278Y-117823662D02*
X117646450Y-117827939D01*
X117646450Y-117827939D02*
X117633621Y-117823662D01*
X117633621Y-117823662D02*
X117556647Y-117746689D01*
X117761910Y-117721030D02*
X117702042Y-117661162D01*
X117719147Y-117678267D02*
X117714871Y-117665438D01*
X117714871Y-117665438D02*
X117714871Y-117656886D01*
X117714871Y-117656886D02*
X117719147Y-117644057D01*
X117719147Y-117644057D02*
X117727700Y-117635504D01*
X117817502Y-117665438D02*
X117757634Y-117605570D01*
X117727700Y-117575636D02*
X117727700Y-117584189D01*
X117727700Y-117584189D02*
X117736252Y-117584189D01*
X117736252Y-117584189D02*
X117736252Y-117575636D01*
X117736252Y-117575636D02*
X117727700Y-117575636D01*
X117727700Y-117575636D02*
X117736252Y-117584189D01*
X117838884Y-117524320D02*
X117911581Y-117597018D01*
X117911581Y-117597018D02*
X117915857Y-117609847D01*
X117915857Y-117609847D02*
X117915857Y-117618399D01*
X117915857Y-117618399D02*
X117911581Y-117631228D01*
X117911581Y-117631228D02*
X117898752Y-117644057D01*
X117898752Y-117644057D02*
X117885923Y-117648333D01*
X117894476Y-117579912D02*
X117890199Y-117592741D01*
X117890199Y-117592741D02*
X117873094Y-117609847D01*
X117873094Y-117609847D02*
X117860265Y-117614123D01*
X117860265Y-117614123D02*
X117851713Y-117614123D01*
X117851713Y-117614123D02*
X117838884Y-117609847D01*
X117838884Y-117609847D02*
X117813226Y-117584189D01*
X117813226Y-117584189D02*
X117808949Y-117571360D01*
X117808949Y-117571360D02*
X117808949Y-117562807D01*
X117808949Y-117562807D02*
X117813226Y-117549978D01*
X117813226Y-117549978D02*
X117830331Y-117532873D01*
X117830331Y-117532873D02*
X117843160Y-117528597D01*
X117941515Y-117541425D02*
X117851713Y-117451623D01*
X117980002Y-117502939D02*
X117932963Y-117455899D01*
X117932963Y-117455899D02*
X117920134Y-117451623D01*
X117920134Y-117451623D02*
X117907305Y-117455899D01*
X117907305Y-117455899D02*
X117894476Y-117468728D01*
X117894476Y-117468728D02*
X117890200Y-117481557D01*
X117890200Y-117481557D02*
X117890200Y-117490110D01*
X117950068Y-117413136D02*
X117984279Y-117378925D01*
X117932963Y-117370373D02*
X118009936Y-117447346D01*
X118009936Y-117447346D02*
X118022765Y-117451623D01*
X118022765Y-117451623D02*
X118035594Y-117447346D01*
X118035594Y-117447346D02*
X118044147Y-117438794D01*
X118065528Y-117408860D02*
X118078357Y-117404584D01*
X118078357Y-117404584D02*
X118095462Y-117387478D01*
X118095462Y-117387478D02*
X118099739Y-117374649D01*
X118099739Y-117374649D02*
X118095462Y-117361820D01*
X118095462Y-117361820D02*
X118091186Y-117357544D01*
X118091186Y-117357544D02*
X118078357Y-117353268D01*
X118078357Y-117353268D02*
X118065528Y-117357544D01*
X118065528Y-117357544D02*
X118052699Y-117370373D01*
X118052699Y-117370373D02*
X118039870Y-117374649D01*
X118039870Y-117374649D02*
X118027041Y-117370373D01*
X118027041Y-117370373D02*
X118022765Y-117366097D01*
X118022765Y-117366097D02*
X118018489Y-117353268D01*
X118018489Y-117353268D02*
X118022765Y-117340439D01*
X118022765Y-117340439D02*
X118035594Y-117327610D01*
X118035594Y-117327610D02*
X118048423Y-117323334D01*
X118215200Y-117267741D02*
X118155331Y-117207873D01*
X118172436Y-117224978D02*
X118168160Y-117212149D01*
X118168160Y-117212149D02*
X118168160Y-117203596D01*
X118168160Y-117203596D02*
X118172436Y-117190767D01*
X118172436Y-117190767D02*
X118180989Y-117182215D01*
X118300726Y-117173662D02*
X118296449Y-117186491D01*
X118296449Y-117186491D02*
X118279344Y-117203596D01*
X118279344Y-117203596D02*
X118266515Y-117207873D01*
X118266515Y-117207873D02*
X118253686Y-117203596D01*
X118253686Y-117203596D02*
X118219476Y-117169386D01*
X118219476Y-117169386D02*
X118215200Y-117156557D01*
X118215200Y-117156557D02*
X118219476Y-117143728D01*
X118219476Y-117143728D02*
X118236581Y-117126623D01*
X118236581Y-117126623D02*
X118249410Y-117122347D01*
X118249410Y-117122347D02*
X118262239Y-117126623D01*
X118262239Y-117126623D02*
X118270792Y-117135175D01*
X118270792Y-117135175D02*
X118236581Y-117186491D01*
X118339212Y-117135176D02*
X118352041Y-117130899D01*
X118352041Y-117130899D02*
X118369147Y-117113794D01*
X118369147Y-117113794D02*
X118373423Y-117100965D01*
X118373423Y-117100965D02*
X118369147Y-117088136D01*
X118369147Y-117088136D02*
X118364870Y-117083860D01*
X118364870Y-117083860D02*
X118352041Y-117079583D01*
X118352041Y-117079583D02*
X118339212Y-117083860D01*
X118339212Y-117083860D02*
X118326384Y-117096689D01*
X118326384Y-117096689D02*
X118313555Y-117100965D01*
X118313555Y-117100965D02*
X118300726Y-117096689D01*
X118300726Y-117096689D02*
X118296449Y-117092412D01*
X118296449Y-117092412D02*
X118292173Y-117079583D01*
X118292173Y-117079583D02*
X118296449Y-117066755D01*
X118296449Y-117066755D02*
X118309278Y-117053926D01*
X118309278Y-117053926D02*
X118322107Y-117049649D01*
X118450397Y-117023991D02*
X118446121Y-117036820D01*
X118446121Y-117036820D02*
X118429015Y-117053925D01*
X118429015Y-117053925D02*
X118416186Y-117058202D01*
X118416186Y-117058202D02*
X118403358Y-117053925D01*
X118403358Y-117053925D02*
X118369147Y-117019715D01*
X118369147Y-117019715D02*
X118364871Y-117006886D01*
X118364871Y-117006886D02*
X118369147Y-116994057D01*
X118369147Y-116994057D02*
X118386252Y-116976952D01*
X118386252Y-116976952D02*
X118399081Y-116972675D01*
X118399081Y-116972675D02*
X118411910Y-116976952D01*
X118411910Y-116976952D02*
X118420463Y-116985504D01*
X118420463Y-116985504D02*
X118386252Y-117036820D01*
X118497436Y-116985504D02*
X118437568Y-116925636D01*
X118454673Y-116942741D02*
X118450397Y-116929912D01*
X118450397Y-116929912D02*
X118450397Y-116921360D01*
X118450397Y-116921360D02*
X118454673Y-116908531D01*
X118454673Y-116908531D02*
X118463226Y-116899978D01*
X118484607Y-116878597D02*
X118565857Y-116917083D01*
X118565857Y-116917083D02*
X118527370Y-116835833D01*
X118651384Y-116823004D02*
X118647107Y-116835833D01*
X118647107Y-116835833D02*
X118630002Y-116852939D01*
X118630002Y-116852939D02*
X118617173Y-116857215D01*
X118617173Y-116857215D02*
X118604344Y-116852939D01*
X118604344Y-116852939D02*
X118570134Y-116818728D01*
X118570134Y-116818728D02*
X118565857Y-116805899D01*
X118565857Y-116805899D02*
X118570134Y-116793070D01*
X118570134Y-116793070D02*
X118587239Y-116775965D01*
X118587239Y-116775965D02*
X118600068Y-116771689D01*
X118600068Y-116771689D02*
X118612897Y-116775965D01*
X118612897Y-116775965D02*
X118621449Y-116784518D01*
X118621449Y-116784518D02*
X118587239Y-116835833D01*
X118736910Y-116746031D02*
X118647107Y-116656228D01*
X118732633Y-116741755D02*
X118728357Y-116754584D01*
X118728357Y-116754584D02*
X118711252Y-116771689D01*
X118711252Y-116771689D02*
X118698423Y-116775965D01*
X118698423Y-116775965D02*
X118689870Y-116775965D01*
X118689870Y-116775965D02*
X118677041Y-116771689D01*
X118677041Y-116771689D02*
X118651383Y-116746031D01*
X118651383Y-116746031D02*
X118647107Y-116733202D01*
X118647107Y-116733202D02*
X118647107Y-116724649D01*
X118647107Y-116724649D02*
X118651383Y-116711820D01*
X118651383Y-116711820D02*
X118668489Y-116694715D01*
X118668489Y-116694715D02*
X118681318Y-116690439D01*
X118771120Y-116694715D02*
X118779673Y-116694715D01*
X118779673Y-116694715D02*
X118779673Y-116703268D01*
X118779673Y-116703268D02*
X118771120Y-116703268D01*
X118771120Y-116703268D02*
X118771120Y-116694715D01*
X118771120Y-116694715D02*
X118779673Y-116703268D01*
D10*
%TO.C,H4*%
X106465427Y-91122500D02*
G75*
G03*
X103785427Y-91122500I-1340000J0D01*
G01*
X103785427Y-91122500D02*
G75*
G03*
X106465427Y-91122500I1340000J0D01*
G01*
%TO.C,H1*%
X106465427Y-108877499D02*
G75*
G03*
X103785427Y-108877499I-1340000J0D01*
G01*
X103785427Y-108877499D02*
G75*
G03*
X106465427Y-108877499I1340000J0D01*
G01*
%TO.C,H2*%
X91089146Y-100000000D02*
G75*
G03*
X88409146Y-100000000I-1340000J0D01*
G01*
X88409146Y-100000000D02*
G75*
G03*
X91089146Y-100000000I1340000J0D01*
G01*
%TO.C,H3*%
X71950000Y-100000000D02*
G75*
G03*
X68450000Y-100000000I-1750000J0D01*
G01*
X68450000Y-100000000D02*
G75*
G03*
X71950000Y-100000000I1750000J0D01*
G01*
%TO.C,H5*%
X101750000Y-70200000D02*
G75*
G03*
X98250000Y-70200000I-1750000J0D01*
G01*
X98250000Y-70200000D02*
G75*
G03*
X101750000Y-70200000I1750000J0D01*
G01*
%TO.C,H6*%
X131550000Y-100000000D02*
G75*
G03*
X128050000Y-100000000I-1750000J0D01*
G01*
X128050000Y-100000000D02*
G75*
G03*
X131550000Y-100000000I1750000J0D01*
G01*
%TO.C,H7*%
X136750000Y-100000000D02*
G75*
G03*
X133250000Y-100000000I-1750000J0D01*
G01*
X133250000Y-100000000D02*
G75*
G03*
X136750000Y-100000000I1750000J0D01*
G01*
%TO.C,H8*%
X66750000Y-100000000D02*
G75*
G03*
X63250000Y-100000000I-1750000J0D01*
G01*
X63250000Y-100000000D02*
G75*
G03*
X66750000Y-100000000I1750000J0D01*
G01*
%TD*%
M02*
